<svg width="1222" height="931" viewBox="0 0 1222 931" fill="none" xmlns="http://www.w3.org/2000/svg">
<path d="M1111.79 531.492H666.224V892.21H1111.79V531.492Z" fill="#FFAFA4"/>
<path fill-rule="evenodd" clip-rule="evenodd" d="M794.948 696.938H725.181V848.439H794.948V696.938ZM1068.63 704.125H998.86V848.439H1068.63V704.125ZM977.406 663.704H907.631V848.439H977.406V663.704ZM886.177 611.974H816.403V848.439H886.177V611.974ZM1049 680.36H1017.59V697.52H1049V680.36ZM774.43 673.692H743.018V690.843H774.43V673.692ZM958.225 641.575H926.813V658.734H958.225V641.575ZM865.867 588.657H834.463V605.817H865.867V588.657Z" fill="#FFF1E2"/>
<path fill-rule="evenodd" clip-rule="evenodd" d="M926.567 821.098L1063.67 672.86C1065.62 670.745 1068.91 670.643 1070.99 672.632C1073.07 674.63 1073.17 677.972 1071.22 680.087L929.853 832.941C928.794 834.082 927.294 834.687 925.763 834.593C924.224 834.499 922.802 833.712 921.897 832.446L823.664 696.264L718.79 838.1C717.066 840.428 713.818 840.9 711.53 839.146C709.241 837.4 708.778 834.09 710.502 831.762L819.566 684.247C820.556 682.91 822.102 682.132 823.741 682.14C825.38 682.148 826.919 682.95 827.893 684.295L926.567 821.098Z" fill="#DC5D3C"/>
<path fill-rule="evenodd" clip-rule="evenodd" d="M859.374 193.976C858.832 192.451 858.537 190.809 858.537 189.098C858.537 181.08 865.043 174.571 873.063 174.571C881.078 174.571 887.589 181.08 887.589 189.098C887.589 197.115 881.078 203.625 873.063 203.625C871.113 203.625 869.257 203.24 867.553 202.544L722.164 372.546C723.095 374.462 723.619 376.613 723.619 378.886C723.619 386.903 717.108 393.413 709.093 393.413C701.073 393.413 694.567 386.903 694.567 378.886C694.567 378.489 694.579 378.096 694.614 377.707L680.766 368.097C678.303 370.008 675.215 371.148 671.862 371.148C670.235 371.148 668.674 370.881 667.218 370.389L520.344 563.951C520.792 565.354 521.033 566.845 521.033 568.394C521.033 576.409 514.527 582.921 506.507 582.921C498.487 582.921 491.981 576.409 491.981 568.394C491.981 567.611 492.04 566.845 492.158 566.102L401.625 475.363C399.604 476.43 397.3 477.037 394.854 477.037C393.393 477.037 391.979 476.819 390.647 476.412L232.989 721.852C234.275 724.02 235.014 726.548 235.014 729.253C235.014 737.268 228.505 743.779 220.487 743.779C212.469 743.779 205.96 737.268 205.96 729.253C205.96 721.233 212.469 714.721 220.487 714.721C221.476 714.721 222.441 714.821 223.375 715.01L381.66 468.592C380.806 466.742 380.328 464.679 380.328 462.511C380.328 454.49 386.84 447.979 394.854 447.979C402.875 447.979 409.386 454.49 409.386 462.511C409.386 463.719 409.233 464.897 408.956 466.023L498.805 556.078C501.039 554.676 503.679 553.868 506.507 553.868C508.564 553.868 510.52 554.293 512.294 555.065L658.514 362.363C657.754 360.602 657.33 358.66 657.33 356.62C657.33 348.602 663.842 342.093 671.862 342.093C679.876 342.093 686.388 348.602 686.388 356.62C686.388 356.959 686.376 357.296 686.353 357.629L700.313 367.315C702.753 365.46 705.793 364.358 709.093 364.358C710.508 364.358 711.875 364.561 713.165 364.938L859.374 193.976Z" fill="#FFAFA4"/>
<path d="M568.169 70.4301H106.517V419.16H568.169V70.4301Z" fill="#FFF1E2"/>
<path fill-rule="evenodd" clip-rule="evenodd" d="M199.245 129.364H167.833V385.195H199.245V129.364ZM261.573 106.529H230.161V385.06H261.573V106.529ZM323.9 164.982H292.489V384.912H323.9V164.982ZM386.23 128.697H354.816V384.751H386.23V128.697ZM448.559 199.841H417.147V384.577H448.559V199.841ZM510.881 251.476H479.469V384.386H510.881V251.476Z" fill="#FFAFA4" fill-opacity="0.64"/>
<path fill-rule="evenodd" clip-rule="evenodd" d="M634.369 783.267H571.609V699.793H528.655L602.989 591.999L677.323 699.793H634.369V783.267Z" fill="#E5734E"/>
<path fill-rule="evenodd" clip-rule="evenodd" d="M974.787 86.6495H1037.55V170.124H1080.5L1006.17 277.917L931.832 170.124H974.787V86.6495Z" fill="#FFB000"/>
<path d="M818.382 580.66C876.151 580.66 922.981 533.025 922.981 474.263C922.981 415.502 876.151 367.866 818.382 367.866C760.613 367.866 713.781 415.502 713.781 474.263C713.781 533.025 760.613 580.66 818.382 580.66Z" fill="#FFCD80"/>
<path fill-rule="evenodd" clip-rule="evenodd" d="M793.786 401.673L789.939 403.069L788.035 397.636L794.747 395.202C796.337 394.625 798.046 395.377 798.571 396.876L801.792 406.063C807.754 404.182 813.705 403.031 819.633 402.608C827.208 402.065 834.757 402.709 842.271 404.537C843.121 404.739 843.811 405.3 844.172 406.059C844.526 406.82 844.516 407.706 844.134 408.493L835.664 425.916C835.024 427.228 833.518 427.944 832.094 427.61C824.711 425.885 817.149 425.946 809.406 427.786L820.137 458.4C849.803 453.907 867.525 461.642 873.74 480.581C877.159 490.854 876.108 500.772 870.624 510.291C865.691 519.21 857.58 526.743 846.223 532.818L851.756 548.604C852.281 550.101 851.423 551.779 849.834 552.356L843.244 554.745L841.342 549.319L845.067 547.968L839.654 532.525C839.172 531.15 839.85 529.602 841.237 528.916C852.538 523.299 860.594 516.276 865.343 507.699C869.994 499.628 870.859 491.255 867.97 482.569C862.378 465.529 845.708 459.88 818.442 464.529C817.003 464.769 815.635 464.003 815.179 462.703L802.623 426.884C802.361 426.135 802.441 425.301 802.836 424.576C803.233 423.856 803.915 423.308 804.724 423.073C813.795 420.379 822.651 419.836 831.28 421.436L837.115 409.436C831.365 408.342 825.598 407.993 819.807 408.413C813.481 408.862 807.144 410.219 800.774 412.47C799.195 413.029 797.503 412.276 796.98 410.785L793.786 401.673ZM838.523 510.852C842.274 508.144 844.733 505.355 845.765 502.397C846.391 500.502 846.644 498.533 846.527 496.495L852.571 495.932C852.716 498.692 852.361 501.359 851.503 503.973C849.808 508.819 845.524 513.513 838.406 517.828C837.62 518.303 836.668 518.426 835.811 518.154C834.962 517.88 834.297 517.244 834.011 516.426L827.281 497.228L833.018 495.147L838.523 510.852ZM780.203 445.429C780.348 442.609 780.946 440.09 781.96 437.871C781.984 437.816 782.016 437.759 782.04 437.704C784.477 433.125 788.076 429.687 792.822 427.397C793.6 427.023 794.502 426.977 795.287 427.268C796.075 427.564 796.679 428.176 796.948 428.942L802.459 444.664L796.722 446.744L792.376 434.348C790.328 435.863 788.686 437.773 787.444 440.082C786.73 441.675 786.342 443.483 786.237 445.504C786.237 445.556 786.231 445.611 786.224 445.665C785.995 447.802 786.371 450.158 787.272 452.729L781.535 454.81C780.341 451.403 779.918 448.273 780.203 445.429Z" fill="#FDA31F"/>
<path fill-rule="evenodd" clip-rule="evenodd" d="M790.057 464.643C786.161 462.615 783.383 459.358 781.79 454.814L787.527 452.733C788.62 455.849 790.464 458.124 793.14 459.509L793.235 459.559C795.374 460.772 798.313 461.276 802.045 461.205L796.977 446.748L802.714 444.667L809.067 462.792C809.362 463.633 809.226 464.579 808.701 465.352C808.181 466.116 807.322 466.63 806.387 466.727C799.154 467.479 793.728 466.693 790.057 464.643Z" fill="#FDA31F"/>
<path fill-rule="evenodd" clip-rule="evenodd" d="M828.537 482.154L833.092 495.148L827.355 497.228L821.645 480.938C821.366 480.143 821.47 479.255 821.926 478.507C822.391 477.756 823.156 477.224 824.03 477.051C832.474 475.382 838.676 475.886 842.678 478.117L842.768 478.176C846.752 480.604 849.549 484.064 851.132 488.579C852.017 491.103 852.514 493.559 852.645 495.932L846.601 496.495C846.502 494.608 846.097 492.662 845.395 490.66C844.258 487.415 842.274 484.917 839.426 483.163C836.917 481.783 833.283 481.518 828.537 482.154Z" fill="#FDA31F"/>
<path fill-rule="evenodd" clip-rule="evenodd" d="M810.229 485.226C781.611 489.28 764.666 481.636 758.932 463.327C755.34 452.338 756.046 442.473 760.85 433.731C765.249 425.732 773.172 418.627 784.751 412.543L781.441 403.101C780.916 401.601 781.772 399.92 783.354 399.346L788.054 397.641L789.958 403.073L788.13 403.736L791.324 412.848C791.808 414.229 791.125 415.785 789.728 416.468C778.247 422.117 770.343 428.66 766.162 436.266C762.094 443.675 761.667 452.039 764.72 461.391C769.855 477.792 785.77 483.337 811.959 479.124C813.385 478.894 814.743 479.658 815.195 480.946L828.355 518.489C828.623 519.255 828.532 520.106 828.121 520.837C827.703 521.571 826.992 522.11 826.161 522.333C818.757 524.299 812.141 524.984 806.336 524.427C801.308 524.158 796.583 523.274 792.153 521.774L784.235 534.523C790.791 536.162 797.727 537.034 805.024 537.155C813.512 537.217 821.904 535.795 830.212 532.9C831.794 532.352 833.477 533.102 833.998 534.588L839.411 550.031L841.362 549.324L843.264 554.75L838.441 556.499C836.859 557.073 835.151 556.325 834.626 554.828L829.182 539.298C821.095 541.812 812.936 543.031 804.682 542.97C795.427 542.82 786.76 541.529 778.65 539.113C777.799 538.859 777.122 538.234 776.819 537.422C776.51 536.612 776.611 535.692 777.087 534.924L788.371 516.761C789.165 515.472 790.823 514.917 792.214 515.478C796.758 517.304 801.694 518.346 807.003 518.625L807.145 518.633C811.447 519.054 816.248 518.674 821.547 517.517L810.229 485.226Z" fill="#FDA31F"/>
<path fill-rule="evenodd" clip-rule="evenodd" d="M840.622 593.99C832.852 595.618 824.796 596.475 816.555 596.475C809.721 596.475 804.185 590.836 804.185 583.892C804.185 576.948 809.721 571.31 816.555 571.31C868.501 571.31 910.675 528.411 910.675 475.572C910.675 422.732 868.501 379.833 816.555 379.833C809.721 379.833 804.185 374.196 804.185 367.251C804.185 360.307 809.721 354.668 816.555 354.668C882.155 354.668 935.415 408.843 935.415 475.572C935.415 525.03 906.152 567.59 864.295 586.307L941.84 772.371C944.507 778.764 941.569 786.156 935.284 788.862C928.998 791.575 921.731 788.586 919.064 782.193L840.622 593.99Z" fill="#DC5D3C"/>
<path fill-rule="evenodd" clip-rule="evenodd" d="M816.528 571.306C764.582 571.306 722.408 528.408 722.408 475.569C722.408 422.732 764.582 379.833 816.528 379.833C823.355 379.833 828.898 374.195 828.898 367.251C828.898 360.306 823.355 354.668 816.528 354.668C750.928 354.668 697.668 408.842 697.668 475.569C697.668 542.296 750.928 596.472 816.528 596.472C823.355 596.472 828.898 590.833 828.898 583.889C828.898 576.945 823.355 571.306 816.528 571.306Z" fill="#DC5D3C"/>
<path fill-rule="evenodd" clip-rule="evenodd" d="M982.997 634.986C982.997 634.986 976.34 609.554 978.544 577.13C981.652 531.526 1010.34 491.844 1052.21 475.235C1094.08 458.63 1141.61 468.081 1174.25 499.504C1181.78 506.794 1188.66 515.358 1194.44 525.432C1222.86 574.975 1232.07 629.591 1208.14 683.555C1208.14 683.555 1223.56 786.598 1201.34 860.874C1190.13 898.181 1158.33 925.234 1120.25 929.858C1118.97 930.031 1117.68 930.18 1116.37 930.338C1081.59 934.561 1047.48 918.353 1028.34 888.524C991.068 830.44 933.741 741.104 933.741 741.104C933.741 741.104 901.301 743.975 888.769 745.083C884.284 745.492 880.272 742.276 879.615 737.746C879.251 735.033 880.086 732.045 883.898 729.513C883.898 729.513 879.87 729.481 876.715 728.703C871.737 727.484 869.742 723.151 869.525 718.511C869.324 714.146 870.592 709.105 876.429 706.148C869.077 707.556 861.949 702.783 860.325 695.359C860.256 695.06 860.194 694.777 860.14 694.51C859.544 691.812 859.923 688.989 861.199 686.551C862.405 684.231 864.485 681.691 868.041 680.158C868.041 680.158 864.577 679.064 860.835 677.885C855.431 676.178 851.744 671.098 851.744 665.342V665.334C851.744 660.23 854.774 655.622 859.421 653.671C869.51 649.417 885.993 642.481 885.993 642.481C885.993 642.481 864.763 614.941 873.592 606.849C875.162 605.409 878.664 604.576 888.962 613.494C892.851 616.86 907.95 621.161 927.054 618.495C927.054 618.495 952.049 618.338 982.997 634.986ZM1005.97 338.639C1038.45 338.639 1064.82 365.463 1064.82 398.503C1064.82 431.542 1038.45 458.367 1005.97 458.367C973.488 458.367 947.116 431.542 947.116 398.503C947.116 365.463 973.488 338.639 1005.97 338.639Z" fill="#A8C1CF"/>
<path fill-rule="evenodd" clip-rule="evenodd" d="M931.595 741.284L944.491 739.805C946.184 739.609 947.715 740.851 947.908 742.581C948.101 744.304 946.88 745.861 945.179 746.057L937.339 746.954L933.59 741.103L931.595 741.284ZM870.951 724.502L908.208 721.002C909.909 720.837 911.417 722.111 911.571 723.841C911.734 725.572 910.481 727.105 908.78 727.262L883.569 729.629C883.623 729.59 883.685 729.551 883.746 729.511C883.746 729.511 879.718 729.48 876.564 728.701C873.897 728.049 872.088 726.507 870.951 724.502ZM864.271 702.624C864.55 702.459 864.867 702.333 865.199 702.254L899.712 694.689C901.374 694.32 903.02 695.405 903.384 697.104C903.739 698.794 902.68 700.469 901.01 700.839L875.891 706.352C876.015 706.281 876.147 706.21 876.278 706.147C871.794 707.004 867.395 705.565 864.271 702.624ZM858.032 676.704L894.849 665.167C896.48 664.656 898.212 665.584 898.714 667.244C899.217 668.903 898.297 670.664 896.665 671.176L867.588 680.29C867.689 680.243 867.789 680.196 867.89 680.156C867.89 680.156 864.426 679.063 860.684 677.884C859.749 677.585 858.86 677.192 858.032 676.704ZM882.107 637.234L894.988 631.816C896.565 631.147 898.374 631.91 899.031 633.514C899.681 635.127 898.931 636.967 897.353 637.627L885.834 642.472C885.733 642.338 884.172 640.301 882.107 637.234Z" fill="#82A3B5"/>
<path fill-rule="evenodd" clip-rule="evenodd" d="M982.528 633.798C981.268 628.435 976.436 605.448 978.361 577.13C981.469 531.526 1010.16 491.844 1052.03 475.235C1093.9 458.63 1141.43 468.081 1174.06 499.504C1181.6 506.794 1188.47 515.357 1194.26 525.431C1222.68 574.975 1231.89 629.591 1207.96 683.554C1207.96 683.554 1223.38 786.598 1201.16 860.874C1189.95 898.181 1158.14 925.233 1120.07 929.857C1118.78 930.03 1117.49 930.18 1116.19 930.337C1081.41 934.56 1047.3 918.352 1028.16 888.524L1002.64 848.755L1089.4 745.61C1044.05 673.787 994.643 641.104 982.528 633.798Z" fill="url(#paint0_linear_113_1288)"/>
<path fill-rule="evenodd" clip-rule="evenodd" d="M1089.2 745.089C1089.36 745.238 1089.5 745.419 1089.63 745.608L1145.67 831.657C1146.61 833.111 1146.23 835.062 1144.81 836.021C1143.38 836.98 1141.47 836.579 1140.52 835.132L1085.41 750.515L1089.53 745.608L1089.2 745.089ZM1208.63 687.532L1208.77 688.648L1208.6 689.01C1208.6 689.01 1196.22 618.917 1178.46 565.332C1178.03 564.223 1178.53 562.972 1179.58 562.469C1180.63 561.958 1181.89 562.367 1182.47 563.397C1191.93 582.074 1204.89 610.031 1219.27 647.653C1219.06 648.769 1218.84 649.886 1218.61 650.995L1218.6 651.034L1218.49 651.553L1218.48 651.6L1218.37 652.127L1218.36 652.159C1218.13 653.268 1217.87 654.377 1217.61 655.478L1217.6 655.517L1217.48 656.02L1217.46 656.099L1217.35 656.586L1217.32 656.681L1217.2 657.16L1217.18 657.247L1217.05 657.742L1217.05 657.774C1216.86 658.497 1216.67 659.221 1216.47 659.952L1216.46 659.999L1216.33 660.463L1216.3 660.597L1216.18 661.022L1216.13 661.187L1216.02 661.604L1215.97 661.777L1215.86 662.186L1215.81 662.359L1215.69 662.775L1215.65 662.917L1215.52 663.357C1215.46 663.546 1215.41 663.735 1215.35 663.924L1215.2 664.411L1215.18 664.49L1215.06 664.883L1215 665.087L1214.88 665.449L1214.81 665.685L1214.7 666.031L1214.63 666.283L1214.52 666.621L1214.43 666.88L1214.32 667.219L1214.24 667.478L1214.13 667.808L1214.05 668.076L1213.94 668.406L1213.83 668.721L1213.75 668.972L1213.65 669.255L1213.55 669.562L1213.45 669.861L1213.34 670.168L1213.24 670.459L1213.13 670.765L1213.03 671.056L1212.93 671.371L1212.82 671.654L1212.71 671.976L1212.61 672.252L1212.49 672.59L1212.4 672.849L1212.25 673.242L1212.18 673.447L1211.96 674.037L1211.88 674.233L1211.73 674.634L1211.64 674.878L1211.51 675.232L1211.41 675.492L1211.28 675.838L1211.18 676.097L1211.05 676.443L1210.95 676.703L1210.81 677.057L1210.71 677.3L1210.55 677.686L1210.47 677.898L1210.27 678.393L1210.23 678.496L1209.98 679.093L1209.91 679.274L1209.73 679.691L1209.64 679.927L1209.48 680.297L1209.38 680.54L1209.23 680.894L1209.13 681.146L1208.97 681.508L1208.87 681.751L1208.71 682.121L1208.61 682.349L1208.43 682.758L1208.35 682.947L1208.09 683.552L1208.13 683.867L1208.14 683.969L1208.19 684.26L1208.2 684.402L1208.26 684.818L1208.29 684.976L1208.36 685.534L1208.38 685.699L1208.48 686.407L1208.5 686.549L1208.61 687.445L1208.63 687.532ZM1011.95 655.21C1011.95 655.21 1009.01 632.05 1005.04 563.987C1004.95 562.469 1005.98 561.997 1006.54 561.871C1007.54 561.643 1008.31 562.304 1008.4 562.886L1024.99 666.77C1020.4 662.484 1016.04 658.639 1011.95 655.21Z" fill="#284D62"/>
<path fill-rule="evenodd" clip-rule="evenodd" d="M960.226 360.982C971.019 347.36 987.548 338.639 1006.07 338.639C1038.55 338.639 1064.92 365.463 1064.92 398.503C1064.92 417.197 1056.48 433.901 1043.27 444.88L1022.73 424.126C1024.91 423.968 1027.17 423.378 1029.36 422.319C1037.1 418.571 1039.08 408.717 1036.11 402.355C1033.12 395.995 1024.43 393.873 1016.69 397.621C1011.68 400.053 1010.15 406.008 1009.21 410.471L960.226 360.982Z" fill="black"/>
<path d="M441.84 526.352C499.609 526.352 546.44 478.716 546.44 419.955C546.44 361.193 499.609 313.558 441.84 313.558C384.071 313.558 337.24 361.193 337.24 419.955C337.24 478.716 384.071 526.352 441.84 526.352Z" fill="#A8C1CF"/>
<path fill-rule="evenodd" clip-rule="evenodd" d="M340.004 396.06C340.761 395.716 341.685 395.516 342.802 395.717C345.004 396.111 346.569 398.029 346.633 400.217C347.365 401.538 349.341 404.991 351.698 408.246C357.262 415.935 366.648 426.979 379.645 438.251C385.598 412.344 396.994 390.741 409.596 373.42C390.986 358.815 380.75 345.362 378.671 342.793C377.039 340.783 377.325 337.807 379.297 336.15C381.276 334.494 384.198 334.78 385.83 336.789C387.817 339.239 397.566 352.047 415.301 365.949C439.469 335.801 465.647 320.792 465.647 320.792C467.874 319.514 470.703 320.317 471.964 322.585C473.224 324.853 472.435 327.734 470.201 329.013C470.201 329.013 445.577 343.135 422.746 371.495C440.428 384 464.472 396.409 495.041 402.171C498.327 379.486 497.129 358.41 494.817 342.789C494.438 340.213 496.186 337.809 498.714 337.42C501.25 337.032 503.615 338.808 503.994 341.384C506.422 357.79 507.636 379.87 504.187 403.663C516.086 405.308 528.904 405.935 542.643 405.2C543.779 405.139 544.831 405.497 545.673 406.14C545.967 408.429 546.184 410.739 546.338 413.069C545.542 413.967 544.413 414.556 543.13 414.623C528.657 415.398 515.15 414.73 502.603 412.982C498.111 435.998 488.988 460.093 472.242 481.847C489.081 484.332 507.496 484.482 527.428 481.257C524.83 485.001 521.992 488.571 518.954 491.937C499.603 494.092 481.689 493.234 465.261 490.27C454.027 502.868 439.933 514.467 422.337 524.337C422.275 524.376 422.205 524.408 422.136 524.439C420.234 524.069 418.355 523.645 416.492 523.173C416.322 522.961 416.167 522.733 416.036 522.481C414.799 520.2 415.618 517.33 417.86 516.072C432.542 507.83 444.641 498.314 454.568 487.997C427.03 481.265 404.075 468.735 386.007 455.301C383.982 470.582 383.99 487.258 386.835 505.329C387.082 506.918 386.518 508.451 385.451 509.489C382.59 507.618 379.83 505.612 377.171 503.473C374.387 483.585 374.851 465.324 377.588 448.705C355.659 430.602 342.484 412.311 338.782 405.418C338.651 405.175 338.531 404.941 338.419 404.715C338.832 401.788 339.362 398.901 340.004 396.06ZM417.025 378.975C404.385 396.377 393.02 418.344 387.724 444.897C406.48 459.523 431.305 473.503 461.751 479.96C479.44 458.584 488.895 434.492 493.449 411.487C461.07 405.416 435.65 392.224 417.025 378.975ZM342.763 405.017C342.546 405.054 342.326 405.076 342.103 405.081C341.881 405.086 341.655 405.075 341.427 405.046C341.911 405.109 342.355 405.093 342.763 405.017Z" fill="#82A3B5"/>
<path fill-rule="evenodd" clip-rule="evenodd" d="M84.6835 620.921C84.6835 620.921 -69.0378 497.203 37.7401 350.668C49.105 335.073 118.068 244.17 216.066 182.557C219.892 180.143 224.818 180.544 228.22 183.545C230.388 185.507 231.798 188.501 230.4 193.099C230.4 193.099 245.566 189.737 244.521 204.557C244.521 204.557 262.28 199.713 262.897 218.322C262.897 218.322 292.258 181.726 305.05 165.781C308.403 161.603 314.263 160.563 318.808 163.34C318.809 163.341 318.809 163.341 318.81 163.341C320.873 164.602 322.358 166.644 322.938 169.019C323.519 171.394 323.147 173.906 321.905 176.002C267.325 267.949 209.307 352.306 151.114 436.28C151.114 436.28 199.117 485.675 223.853 503.455C233.898 510.667 334.27 574.46 348.785 609.392C348.785 609.392 350.009 601.387 351.403 592.272C353.819 576.465 365.273 563.663 380.504 559.715C390.833 557.041 400.419 554.556 400.419 554.556C400.419 554.556 417.552 551.584 432.141 551.702C441.697 551.772 450.139 558.024 453.154 567.241C454.538 571.495 453.958 576.159 451.562 579.918C450.209 582.049 449.01 583.921 449.01 583.921C449.01 583.921 452.451 585.108 455.644 586.209C459.046 587.381 461.79 589.968 463.205 593.326C465.957 599.869 464.774 607.442 460.159 612.798C458.721 614.473 457.654 615.707 457.654 615.707H458.698C464.141 615.707 469.034 619.073 471.068 624.216C473.859 631.278 471.601 639.362 465.586 643.884C464.094 645.001 463.058 645.787 463.058 645.787C464.945 645.135 466.707 646.456 467.944 649.483C470.395 655.468 468.145 662.381 462.811 665.927C454.492 671.456 443.513 678.754 443.513 678.754C441.047 730.366 434.916 786.035 406.117 852.385C397.427 872.336 380.334 887.207 359.614 892.845C359.598 892.861 359.583 892.861 359.568 892.869C316.195 904.665 270.742 883.188 251.632 841.87C242.458 822.014 232.661 797.541 223.853 768.719C223.853 768.719 187.392 773.563 151.114 754.878C107.532 732.434 64.2142 681.553 84.6835 620.921Z" fill="url(#paint1_linear_113_1288)"/>
<path fill-rule="evenodd" clip-rule="evenodd" d="M19.2595 536.643C23.838 522.346 39.8184 490.237 90.5656 493.257C90.5656 493.257 108.565 439.872 165.476 450.613C181.619 466.624 207.786 491.817 223.981 503.456C234.025 510.668 334.398 574.461 348.913 609.393L349.08 608.3C358.448 636.265 375.459 696.284 366.909 761.233C366.909 761.233 333.211 784.157 300.436 755.359C300.436 755.359 269.41 797.227 224.538 770.528C224.351 769.923 224.166 769.325 223.981 768.72C223.981 768.72 187.52 773.564 151.242 754.879C107.66 732.435 64.342 681.554 84.8113 620.922C84.8113 620.922 44.2307 588.263 19.2595 536.643ZM232.599 489.537L245.804 497.896C241.041 495.687 236.607 492.871 232.599 489.537Z" fill="#FD9500"/>
<path fill-rule="evenodd" clip-rule="evenodd" d="M362.037 746.124L354.545 832.188C354.395 833.918 355.653 835.452 357.353 835.601C359.053 835.758 360.553 834.476 360.707 832.746L368.191 746.682C368.346 744.952 367.085 743.418 365.385 743.269C363.684 743.112 362.184 744.393 362.037 746.124Z" fill="#FD9500"/>
<path fill-rule="evenodd" clip-rule="evenodd" d="M201.629 768.843C198.994 737.355 206.032 711.75 210.738 698.695C211.115 697.783 212.069 697.28 213.019 697.476C213.967 697.673 214.649 698.522 214.648 699.505C215.559 725.103 222.184 759.587 224.32 770.148C224.172 769.669 224.025 769.197 223.879 768.717C223.879 768.717 214.992 769.897 201.629 768.843ZM63.2814 600.3C74.4724 586.176 85.5358 575.489 95.8354 567.397C111.696 554.932 125.745 548.625 135.65 545.401C136.796 545.141 137.962 545.755 138.421 546.848C138.881 547.949 138.502 549.223 137.522 549.883C107.554 570.739 90.4637 606.859 84.6807 620.896C84.114 620.432 75.1659 613.126 63.2814 600.3Z" fill="#E15D33"/>
<path fill-rule="evenodd" clip-rule="evenodd" d="M463.287 645.762C465.158 645.164 466.89 646.493 468.111 649.482C468.181 649.647 468.243 649.812 468.305 649.977C462.591 653.61 450.167 660.782 438.818 662.379C437.124 662.615 435.563 661.411 435.331 659.697C435.091 657.975 436.274 656.386 437.967 656.15C447.368 654.829 457.543 649.301 463.287 645.762ZM457.829 615.705H458.865C461.385 615.705 463.79 616.429 465.846 617.718C462.437 620.251 448.853 629.876 434.619 633.321C432.957 633.722 431.295 632.676 430.893 630.985C430.499 629.302 431.527 627.604 433.189 627.203C442.907 624.843 452.293 619.37 457.829 615.705ZM449.216 583.934L455.37 586.058C449.703 593.505 439.073 604.578 424.267 607.597C422.597 607.943 420.966 606.835 420.626 605.136C420.293 603.429 421.376 601.77 423.053 601.432C435.091 598.971 443.982 590.446 449.216 583.934Z" fill="#FD9500"/>
<path fill-rule="evenodd" clip-rule="evenodd" d="M407.651 563.2C407.651 563.2 397.098 565.567 385.973 563.955C384.28 563.711 382.718 564.915 382.471 566.629C382.231 568.351 383.414 569.94 385.099 570.184C397.353 571.961 408.981 569.35 408.981 569.35C410.643 568.973 411.703 567.29 411.331 565.599C410.968 563.9 409.314 562.831 407.651 563.2Z" fill="#FD9500"/>
<path fill-rule="evenodd" clip-rule="evenodd" d="M261.31 210.56C262.279 212.531 262.911 215.067 263.019 218.32L267.686 212.502C267.596 212.67 267.488 212.831 267.364 212.984L255.793 227.237C254.706 228.575 252.755 228.765 251.439 227.659C250.123 226.554 249.937 224.569 251.024 223.231L261.31 210.56ZM243.077 196.803C244.228 198.558 244.888 201.042 244.643 204.543L237.469 212.898C236.347 214.205 234.392 214.34 233.106 213.198C231.82 212.056 231.688 210.067 232.811 208.76L243.077 196.803ZM229.771 185.183C231.032 187.071 231.577 189.628 230.521 193.097H230.522C226.65 196.81 222.185 201.118 222.185 201.118C220.946 202.313 218.987 202.26 217.813 201C216.638 199.74 216.69 197.747 217.929 196.553C217.929 196.553 225.836 188.926 229.771 185.183Z" fill="#FD9500"/>
<path fill-rule="evenodd" clip-rule="evenodd" d="M151.132 436.283C151.132 436.283 130.723 415.785 118.635 403.644C117.805 402.809 117.679 401.506 118.333 400.529C118.987 399.551 120.241 399.171 121.328 399.621C137.281 406.225 164.346 417.427 164.346 417.427L151.132 436.283Z" fill="#FD9500"/>
<path fill-rule="evenodd" clip-rule="evenodd" d="M397.869 570.582L402.561 535.571C395.062 532.928 387.717 529.484 380.628 525.19C374.76 521.643 372.827 513.913 376.314 507.944C379.808 501.975 387.408 500.017 393.268 503.564C437.916 530.577 495.723 515.627 522.28 470.215C548.829 424.801 534.14 366.003 489.492 338.994C483.624 335.444 481.691 327.716 485.185 321.748C488.672 315.779 496.272 313.814 502.14 317.364C558.524 351.473 577.071 425.727 543.541 483.078C518.685 525.591 472.15 546.958 426.768 541.28L423.714 564.054C418.117 566.752 408.839 570.243 397.869 570.582Z" fill="#DC5D3C"/>
<path fill-rule="evenodd" clip-rule="evenodd" d="M393.026 503.568C348.379 476.559 333.688 417.761 360.241 372.346C386.792 326.933 444.598 311.99 489.245 338.999C495.113 342.548 502.711 340.584 506.2 334.616C509.69 328.647 507.759 320.919 501.891 317.37C445.509 283.262 372.508 302.132 338.977 359.483C305.445 416.834 323.998 491.089 380.38 525.197C386.248 528.747 393.845 526.782 397.335 520.814C400.824 514.846 398.894 507.117 393.026 503.568Z" fill="#DC5D3C"/>
<path d="M270.703 503.448C304.289 503.448 331.516 475.753 331.516 441.59C331.516 407.427 304.289 379.732 270.703 379.732C237.116 379.732 209.889 407.427 209.889 441.59C209.889 475.753 237.116 503.448 270.703 503.448Z" fill="#FFBB22"/>
<path fill-rule="evenodd" clip-rule="evenodd" d="M249.557 466.024C238.587 467.948 226.913 468.221 214.804 465.976C211.642 458.493 209.889 450.248 209.889 441.59C209.889 407.449 237.139 379.732 270.703 379.732C297.457 379.732 320.199 397.343 328.325 421.775C325.776 433.407 306.641 456.639 267.332 461.375C268.604 458.067 268.707 454.047 267.339 450.137C264.653 442.465 257.308 438.106 250.948 440.409C244.587 442.713 241.604 450.813 244.29 458.485C245.391 461.632 247.277 464.223 249.557 466.024Z" fill="black"/>
<path d="M291.848 375.392C314.753 375.392 333.322 356.504 333.322 333.205C333.322 309.906 314.753 291.019 291.848 291.019C268.942 291.019 250.374 309.906 250.374 333.205C250.374 356.504 268.942 375.392 291.848 375.392Z" fill="black"/>
<path fill-rule="evenodd" clip-rule="evenodd" d="M731.731 199.278C709.349 242.415 664.794 271.833 613.536 271.833C539.795 271.833 479.916 210.93 479.916 135.915C479.916 90.266 502.09 49.8438 536.092 25.223L613.536 135.915L731.731 199.278Z" fill="#E5734E"/>
<path fill-rule="evenodd" clip-rule="evenodd" d="M613.567 135.916L536.123 25.2241C555.513 11.123 578.776 2.19567 603.965 0.386932L613.567 135.916Z" fill="#FFBB22"/>
<path fill-rule="evenodd" clip-rule="evenodd" d="M607.6 0.157237L613.723 -3.05176e-05C651.289 -3.05176e-05 685.26 15.8028 709.529 41.2518L613.723 135.917L604.121 0.388446L605.93 0.24769L607.6 0.157237Z" fill="#A8C1CF"/>
<path fill-rule="evenodd" clip-rule="evenodd" d="M745.521 33.2866C768.931 57.7439 783.342 91.1498 783.342 127.952C783.342 150.832 777.768 172.399 767.91 191.315L649.715 127.952L745.521 33.2866Z" fill="#FFCBC4"/>
<defs>
<linearGradient id="paint0_linear_113_1288" x1="977.912" y1="699.086" x2="1312.1" y2="961.648" gradientUnits="userSpaceOnUse">
<stop stop-color="#82B5B2"/>
<stop offset="0.57" stop-color="#9AC1BB"/>
<stop offset="0.8" stop-color="#CED9CF"/>
<stop offset="1" stop-color="#FFF1E2"/>
</linearGradient>
<linearGradient id="paint1_linear_113_1288" x1="245.363" y1="741.273" x2="-55.0033" y2="817.956" gradientUnits="userSpaceOnUse">
<stop stop-color="#FFBB22"/>
<stop offset="0.47" stop-color="#FEB019"/>
<stop offset="1" stop-color="#FD9500"/>
</linearGradient>
</defs>
</svg>
