<svg width="957" height="744" viewBox="0 0 957 744" fill="none" xmlns="http://www.w3.org/2000/svg">
<path d="M802.668 326.062H111.961V743.108H802.668V326.062Z" fill="#FFF0E6"/>
<path fill-rule="evenodd" clip-rule="evenodd" d="M779.961 607.03H673.314V709.338H779.961V607.03ZM647.291 526.508H540.65V709.338H647.291V526.508ZM514.626 491.803H407.983V709.338H514.626V491.803ZM381.959 450.516H275.316V709.338H381.959V450.516ZM249.293 636.253H142.649V709.338H249.293V636.253Z" fill="#FFA396"/>
<path fill-rule="evenodd" clip-rule="evenodd" d="M754.172 471.013L759.414 457.554L794.742 503.159L738.491 511.279L744.024 497.071L437.604 369.186L409.232 419.998L357.461 393.357L252.47 664.84L181.57 629.231C166.506 654.657 153.998 676.752 144.124 691.152L121.741 675.013C132.773 658.93 147.119 633.013 164.746 603.657L171.258 592.812L237.939 626.303L343.035 354.548L398.354 383.013L425.75 333.949L754.172 471.013Z" fill="#CD0000"/>
<path fill-rule="evenodd" clip-rule="evenodd" d="M734.348 456.654L728.826 181.38L507.878 133.231L268.82 79.6713C226.164 70.1144 181.722 72.2167 140.159 85.7572L92.8202 101.179L27.5238 184.827C26.2674 186.437 23.9406 186.723 22.3308 185.467C20.7215 184.21 20.4348 181.884 21.6912 180.274L88.379 94.8439L137.867 78.7218C180.693 64.7702 226.485 62.6042 270.437 72.4513C360.192 92.5601 509.486 126.008 509.461 126.004L736.107 175.394L741.775 458.044L746.674 451.689C747.352 450.804 748.626 450.637 749.51 451.32C750.39 452.002 750.557 453.271 749.875 454.156L741.906 464.501L742.558 497.046C742.599 499.089 740.976 500.778 738.933 500.823C736.896 500.864 735.202 499.235 735.162 497.198L734.484 463.348L727.239 454.176C726.546 453.302 726.698 452.027 727.572 451.335C728.447 450.642 729.721 450.794 730.409 451.669L734.348 456.654Z" fill="black"/>
<path fill-rule="evenodd" clip-rule="evenodd" d="M218.202 161.928C218.202 161.928 153.552 181.748 102.976 197.252C89.3265 201.436 78.538 211.955 74.0089 225.495C69.4797 239.035 71.7684 253.928 80.1532 265.483C98.7946 291.172 117.628 317.126 117.628 317.126C117.628 317.126 109.194 319.617 110.08 325.136L208.936 326.609L169.944 269.37C169.944 269.37 253.924 263.232 275.461 252.018L403.704 318.033C403.704 318.033 388.852 320.442 388.068 327.19L461.29 326.376C461.29 326.376 480.909 310.515 489.002 303.969C489.823 303.305 490.288 302.297 490.264 301.242C490.234 300.187 489.718 299.205 488.863 298.584C464.071 280.513 317.763 174.488 289.506 168.567C289.506 168.567 261.465 150.417 218.202 161.928Z" fill="url(#paint0_linear_113_1713)"/>
<path fill-rule="evenodd" clip-rule="evenodd" d="M288.292 167.906C289.027 168.32 289.404 168.564 289.404 168.564C291.93 169.094 295.4 170.423 299.639 172.417C303.841 176.953 307.826 182.888 310.147 190.416C312.391 197.694 313.094 206.474 310.887 216.931L434.728 290.694L456.317 275.18L457.556 276.064C458.072 276.433 458.588 276.802 459.098 277.17L459.791 277.664L402.466 318.86C401.723 319.394 400.738 319.351 400.048 318.818C402.111 318.273 403.602 318.031 403.602 318.031L399.667 316.005C399.787 315.844 399.934 315.699 400.106 315.575L431.146 293.269L309.889 221.045C309.505 222.449 309.07 223.882 308.58 225.343C305.58 234.292 297.821 245.769 279.899 254.353L275.359 252.015C272.632 253.435 268.905 254.773 264.478 256.027C264.634 255.924 264.808 255.841 264.996 255.782C291.013 247.779 301.318 234.282 304.745 224.058C309.181 210.819 308.903 200.113 306.282 191.607C302.574 179.579 294.227 171.991 288.292 167.906ZM267.044 160.248C268.6 160.583 270.084 160.943 271.492 161.321C271.747 162.512 271.923 163.713 272.116 164.807C273.062 170.173 273.681 175.527 273.376 180.985C272.422 198.07 265.686 214.57 249.307 221.85C239.461 226.226 227.703 227.986 216.966 227.782C208.062 227.612 197.301 226.586 188.464 225.933C168.28 224.441 151.566 221.953 127.626 224.819C119.15 225.835 112.803 228.794 109.14 233.91C105.465 239.043 104.56 246.248 106.618 255.5C108.038 261.878 110.828 267.781 113.919 273.496C118.692 282.318 123.592 291.398 129.278 299.682L188.661 296.993L191.337 300.92L130.3 303.685C130.185 303.829 130.048 303.959 129.889 304.071C129.062 304.656 127.945 304.532 127.263 303.823L108.491 304.673L105.646 300.753L124.546 299.897C119.366 292.068 114.806 283.637 110.362 275.421C107.092 269.377 104.171 263.124 102.67 256.378C100.3 245.727 101.62 237.464 105.851 231.556C110.093 225.631 117.33 221.978 127.145 220.803C151.391 217.9 168.32 220.388 188.762 221.9C197.53 222.548 208.208 223.569 217.043 223.737C227.207 223.931 238.344 222.296 247.665 218.154C262.592 211.52 268.468 196.329 269.338 180.759C269.625 175.614 269.024 170.568 268.132 165.509C267.842 163.864 267.701 161.887 267.044 160.248Z" fill="#D7441E"/>
<path fill-rule="evenodd" clip-rule="evenodd" d="M173.317 274.234L174.117 275.409L174.029 275.435C173.799 275.033 173.561 274.632 173.317 274.234ZM170.749 270.464C160.39 256.609 141.925 245.346 132.144 239.992C131.387 239.582 131.015 238.703 131.246 237.873C131.476 237.044 132.249 236.484 133.109 236.523C156.17 238.448 180.606 260.218 188.445 267.77C177.437 268.828 170.005 269.371 170.005 269.371L170.749 270.464Z" fill="#711801"/>
<path d="M169.412 56.5952C181.244 56.8901 191.074 47.5376 191.369 35.7058C191.664 23.8741 182.312 14.0435 170.48 13.7487C158.648 13.4539 148.818 22.8064 148.523 34.6381C148.228 46.4699 157.58 56.3004 169.412 56.5952Z" fill="#E86135"/>
<path fill-rule="evenodd" clip-rule="evenodd" d="M160.185 16.0409C163.242 14.4932 166.714 13.6575 170.377 13.749C182.201 14.0438 191.561 23.8823 191.267 35.7063C191.042 44.7277 185.261 52.3148 177.281 55.2736L172.006 43.1685C172.865 43.2549 173.779 43.1245 174.667 42.7463C177.377 41.592 178.828 38.5629 177.907 35.9864C176.985 33.4093 174.037 32.2545 171.327 33.4088C170.219 33.8805 169.322 34.6662 168.711 35.6062L160.185 16.0409Z" fill="black"/>
<path fill-rule="evenodd" clip-rule="evenodd" d="M217.964 66.5511C193.193 63.7515 138.958 66.2924 95.4662 69.6431C87.2697 70.2794 79.672 74.1811 74.3798 80.4729C69.087 86.7642 66.5437 94.9179 67.3204 103.103C67.9225 109.243 69.4397 115.454 72.5345 120.87C72.5345 120.87 68.1464 133.3 81.6585 142.156C85.7493 144.83 90.4159 146.494 95.2755 147.011C105.677 148.025 133.717 149.965 171.436 146.216C171.436 146.216 205.278 173.435 242.439 151.809C271.929 134.649 276.116 73.1241 217.964 66.5511Z" fill="url(#paint1_linear_113_1713)"/>
<path fill-rule="evenodd" clip-rule="evenodd" d="M72.6895 120.871C79.1334 125.559 90.3744 131.481 103.501 132.094C129.892 133.33 201.608 136.681 201.608 136.681C202.723 136.733 203.586 137.68 203.534 138.796C203.482 139.911 202.535 140.773 201.42 140.721C201.42 140.721 129.703 137.37 103.312 136.135C91.602 135.588 80.632 130.95 72.1677 123.28C72.3689 121.779 72.6895 120.871 72.6895 120.871Z" fill="#D7441E"/>
<path fill-rule="evenodd" clip-rule="evenodd" d="M151.437 66.2628C178.463 65.1121 203.507 64.8946 218.193 66.5545C276.346 73.1274 273.203 134.769 243.313 151.223C210.162 169.472 179.372 157.308 170.209 146.446C167.631 143.39 166.046 134.921 166.046 134.921L146.161 133.798L122.753 103.559L151.437 66.2628Z" fill="#D7441E"/>
<path fill-rule="evenodd" clip-rule="evenodd" d="M165.918 134.922C165.918 134.922 187.265 134.692 198.994 134.938C199.525 134.949 199.969 135.341 200.045 135.866C200.121 136.391 199.807 136.894 199.302 137.055L170.057 146.418C167.493 143.337 165.918 134.922 165.918 134.922Z" fill="#711801"/>
<path fill-rule="evenodd" clip-rule="evenodd" d="M558.054 145.743C558.474 146.136 538.048 173.398 500.35 158.868C493.479 156.22 461.752 133.374 483.928 90.938C489.859 79.5918 515.584 46.1736 572.863 66.7642C579.689 69.2174 591.945 74.7426 613.802 90.938C621.937 96.9663 684.672 151.952 720.297 166.125C727.39 168.948 728.563 169.788 734.883 172.817C736.668 173.673 738.387 176.968 731.566 178.427C731.566 178.427 738.301 178.091 735.439 183.081C735.439 183.081 731.081 189.058 728.401 192.733C727.006 194.648 724.751 195.75 722.385 195.68C720.327 195.617 718.026 195.338 716.934 194.447C716.934 194.447 712.202 201.323 701.928 195.988C701.928 195.988 697.555 206.438 677.159 194.447C668.634 189.437 661.9 186.293 655.125 183.683V194.447L835.867 271.466C835.867 271.466 842.293 269.985 852.41 271.466L793.887 326.465L650.124 289.239V315.839C650.124 315.839 662.147 319.7 663.563 326.465H568.793V282.582C568.793 282.582 478.574 290.958 495.198 218.904C496.78 212.044 518.825 161.912 568.793 151.083L558.054 145.743Z" fill="url(#paint2_linear_113_1713)"/>
<path fill-rule="evenodd" clip-rule="evenodd" d="M656.572 245.987V245.985L759.715 284.287L781.253 248.246L785.01 249.846L762.834 286.947C762.829 287.15 762.784 287.356 762.713 287.557C762.546 288.005 762.238 288.359 761.859 288.587L746.529 314.233L742.449 313.176L757.601 287.818L656.329 250.21V250.209L656.451 248.12L656.572 245.987ZM493.415 228.601C494.881 234.576 498.708 240.097 505.109 241.287C512.916 242.739 521.708 237.9 528.134 233.997C536.482 228.925 542.529 222.079 548.186 214.861C554.041 207.388 559.476 199.517 566.418 192.646C569.735 189.364 574.27 185.85 579.104 184.306C582.598 183.191 586.238 183.075 589.757 184.611C594.267 186.581 597.927 190.644 600.678 195.525C604.617 202.523 606.689 211.174 607.023 217.044C608.57 244.568 607.883 269.883 607.347 297.288L650.004 297.411V301.455L568.673 301.222V297.178L603.302 297.277C603.833 269.952 604.531 244.714 602.983 217.272C602.68 211.881 600.769 203.936 597.154 197.509C594.863 193.439 591.901 189.961 588.139 188.317C584.878 186.894 581.47 187.504 578.32 188.942C574.862 190.522 571.702 193.108 569.265 195.521C562.444 202.27 557.12 210.015 551.372 217.356C545.416 224.951 539.015 232.117 530.232 237.454C523.048 241.819 513.103 246.888 504.366 245.264C499.472 244.353 495.695 241.461 493.076 237.653C492.965 234.814 493.071 231.8 493.415 228.601ZM655.005 194.447L658.716 196.029L656.37 249.242L653.857 290.236L650.004 289.239V294.382C649.741 294.014 649.6 293.558 649.63 293.073C649.63 293.073 654.939 212.83 654.954 189.623L654.959 189.461C654.974 189.245 654.99 189.029 655.005 188.818V194.447ZM562.99 148.259C564.492 147.972 566.934 147.529 570.054 147.037L555.877 134.827C555.032 134.099 554.936 132.821 555.664 131.975C556.392 131.129 557.671 131.034 558.516 131.762L574.705 145.704C574.902 145.872 575.054 146.069 575.17 146.283C582.962 145.212 593.165 144.165 603.449 144.131C617.954 144.082 632.576 146.134 641.141 152.661C645.449 155.945 658.716 166.278 659.125 185.342C657.745 184.759 656.375 184.21 655.005 183.682V183.78C653.918 167.573 642.461 158.756 638.689 155.878C630.701 149.787 616.994 148.131 603.459 148.176C586.9 148.231 570.544 150.965 564.543 152.082C565.898 151.72 567.273 151.386 568.673 151.082L562.99 148.259ZM656.329 250.209L656.37 249.242L656.572 245.987L656.451 248.12L656.329 250.209Z" fill="#FD9500"/>
<path fill-rule="evenodd" clip-rule="evenodd" d="M699.262 198.786L688.862 191.907C687.927 191.292 687.674 190.036 688.291 189.105C688.902 188.174 690.161 187.917 691.092 188.533L703.469 196.718C702.968 196.505 702.453 196.262 701.922 195.986C701.922 195.986 701.264 197.561 699.262 198.786ZM713.975 196.884L699.04 186.671C698.114 186.041 697.882 184.781 698.509 183.86C699.141 182.938 700.4 182.702 701.32 183.332L718.758 195.255C718.015 195.069 717.368 194.808 716.928 194.446C716.928 194.446 715.967 195.839 713.975 196.884ZM736.105 180.511C732.642 179.691 730.443 179.754 729.062 180.166C728.759 180.257 728.501 180.378 728.304 180.495L729.558 181.672C730.372 182.435 730.417 183.716 729.654 184.53C728.891 185.345 727.606 185.386 726.792 184.623L718.672 177.009C717.858 176.246 717.813 174.965 718.576 174.15C719.34 173.336 720.624 173.295 721.438 174.058L725.265 177.645C726.691 176.401 729.735 175.076 735.994 176.346C735.352 177.144 734.002 177.902 731.56 178.425C731.56 178.425 735.671 178.22 736.105 180.511Z" fill="#FD9500"/>
<path fill-rule="evenodd" clip-rule="evenodd" d="M558.342 145.887L558.054 145.743C558.474 146.136 538.048 173.398 500.35 158.868C493.479 156.22 461.752 133.374 483.928 90.9381C489.859 79.5919 515.584 46.1736 572.863 66.7642C578.152 68.6643 586.691 72.4058 600.424 81.5182C602.158 88.5147 601.92 100.416 583.632 106.677C583.632 106.677 593.477 131.765 563.98 135.734C563.98 135.734 562.22 140.458 558.342 145.887Z" fill="#FD9500"/>
<path fill-rule="evenodd" clip-rule="evenodd" d="M553.336 282.693L568.524 222.132C568.681 221.505 569.282 221.098 569.924 221.19C570.566 221.281 571.032 221.841 571.006 222.487L568.691 282.584C568.301 282.619 562.072 283.157 553.336 282.693ZM557.962 145.821C557.588 146.227 557.198 146.583 556.809 146.869C556.809 146.869 539.063 125.087 530.063 114.042C529.684 113.577 529.704 112.903 530.113 112.463C530.518 112.022 531.19 111.949 531.681 112.291C540.979 118.61 557.315 129.989 563.483 136.042C563.483 136.042 561.021 142.491 558.012 145.766L557.972 145.744C557.982 145.754 557.977 145.78 557.962 145.821Z" fill="#D7441E"/>
<path fill-rule="evenodd" clip-rule="evenodd" d="M472.941 35.0851C472.556 35.2631 473.077 34.2484 473.092 33.8257C473.123 33.0375 473.133 32.2487 473.153 31.4605C473.209 29.1716 473.118 26.8833 473.133 24.5944C473.168 19.913 472.142 6.59751 477.622 4.30562C480.353 3.16397 481.086 8.23162 481.126 9.92791C481.283 16.4846 476.733 21.4905 475.792 27.6093C475.747 27.9137 476.005 27.0304 476.121 26.7457C476.364 26.1572 476.596 25.5647 476.849 24.9797C477.567 23.3233 478.29 21.671 479.038 20.0283C481.399 14.8408 483.695 9.26556 487.193 4.71363C488.023 3.63114 490.455 0.71129 492.128 1.98793C494.616 3.88799 491.238 9.26657 490.136 11.0837C487.714 15.0679 484.579 18.5616 481.966 22.4112C479.311 26.3109 477.172 30.6454 474.462 34.4723" fill="#FFB000"/>
<path d="M493.558 64.3333C505.582 64.3333 515.329 54.5862 515.329 42.5626C515.329 30.539 505.582 20.792 493.558 20.792C481.535 20.792 471.788 30.539 471.788 42.5626C471.788 54.5862 481.535 64.3333 493.558 64.3333Z" fill="#FFB000"/>
<path d="M446.602 55.5195C461.933 55.5195 474.362 43.0911 474.362 27.7598C474.362 12.4285 461.933 0 446.602 0C431.271 0 418.842 12.4285 418.842 27.7598C418.842 43.0911 431.271 55.5195 446.602 55.5195Z" fill="black"/>
<path fill-rule="evenodd" clip-rule="evenodd" d="M476.601 56.2105C473.588 52.4756 471.788 47.728 471.788 42.5622C471.788 30.5471 481.541 20.792 493.554 20.792C496.719 20.792 499.722 21.4675 502.437 22.6829C501.866 30.1153 497.821 44.7004 476.601 56.2105Z" fill="black"/>
<path fill-rule="evenodd" clip-rule="evenodd" d="M483.293 359.06C483.293 359.06 473.844 357.612 480.467 348.325C482.373 345.655 490.336 342.019 495.053 353.056C495.053 353.056 503.826 348.896 506.03 359.929C506.03 359.929 514.221 355.967 517.032 367.093C517.032 367.093 525.344 366.033 526.441 377.447C528.079 394.471 529.439 406.701 530.44 420.261C530.44 420.261 532.943 446.285 551.484 462.378C551.484 462.378 562.668 425.171 603.303 437.325L641.157 452.291C641.157 452.291 662.574 445.015 672.853 459.976C680.063 454.526 691.697 444.839 694.857 441.916C696.414 440.475 699.589 439.292 701.273 440.197C702.684 440.956 703.634 443.696 701.976 445.531C701.976 445.531 705.485 442.594 708.367 445.051C709.484 446.001 710.404 447.953 708.923 451.361C708.923 451.361 712.548 448.044 715.207 450.294C716.249 451.169 718.099 453.373 715.652 457.11C715.652 457.11 719.571 453.965 722.119 456.447C723.252 457.549 724.197 459.825 717.493 468.192C715.673 470.457 713.817 472.702 711.926 474.927C694.564 495.606 665.932 502.882 640.808 492.987C624.68 486.667 609.825 480.817 609.825 480.817C609.825 480.817 630.398 518.181 630.256 539.811C630.135 559.079 621.767 579.096 597.847 584.915C592.306 586.27 586.537 586.427 580.93 585.37C565.261 582.428 530.446 571.34 534.425 531.119C534.425 531.119 504.65 511.644 485.007 479.983C469.869 455.623 466.047 425.899 474.526 398.505C478.869 384.434 483.88 366.282 483.293 359.06Z" fill="#A8CFCC"/>
<path fill-rule="evenodd" clip-rule="evenodd" d="M698.996 475.261C698.996 475.261 715.883 456.791 715.675 457.11C715.675 457.11 718.406 454.916 720.792 455.634C720.772 455.659 720.757 455.679 720.737 455.699L701.246 477.294C700.684 477.915 699.724 477.961 699.102 477.4C698.48 476.844 698.434 475.883 698.996 475.261ZM691.361 470.23C691.361 470.23 708.971 451.301 708.946 451.361C708.946 451.361 711.909 448.651 714.447 449.794L693.586 472.293C693.019 472.905 692.059 472.945 691.442 472.374C690.83 471.803 690.795 470.842 691.361 470.23ZM702.065 445.481C702.484 445.152 704.896 443.403 707.247 444.349L686.538 466.691C685.966 467.308 685.006 467.343 684.394 466.772C683.777 466.206 683.742 465.245 684.313 464.628L702.065 445.481Z" fill="#82B5B2"/>
<path fill-rule="evenodd" clip-rule="evenodd" d="M516.084 376.863C516.782 373.413 516.974 366.97 517.005 367.09C517.005 367.09 518.299 366.925 519.932 367.428C519.902 369.945 519.735 374.136 519.057 377.465C518.891 378.289 518.092 378.82 517.273 378.653C516.448 378.486 515.918 377.682 516.084 376.863ZM509.026 359.246C509.314 361.83 509.537 366.288 508.733 371.978C508.617 372.807 507.848 373.384 507.019 373.267C506.19 373.15 505.613 372.381 505.73 371.553C506.458 366.394 506.296 362.325 506.048 359.906C506.286 359.798 507.484 359.296 509.026 359.246ZM495.517 367.369C496.432 359.239 494.854 352.648 495.026 353.053C495.026 353.053 496.189 352.503 497.772 352.334C498.495 355.182 499.349 360.445 498.53 367.709C498.434 368.54 497.686 369.14 496.851 369.047C496.022 368.953 495.421 368.202 495.517 367.369ZM480.556 358.072C480.697 355.796 480.743 354.3 480.743 354.3C480.773 353.463 481.471 352.805 482.31 352.831C483.145 352.858 483.802 353.559 483.777 354.395C483.777 354.395 483.372 360.358 483.266 359.058C483.266 359.058 481.891 358.847 480.556 358.072Z" fill="#82B5B2"/>
<path fill-rule="evenodd" clip-rule="evenodd" d="M530.38 419.417L530.441 420.261C530.441 420.261 532.944 446.285 551.484 462.378C551.484 462.378 562.668 425.171 603.303 437.325L632.517 448.878L639.883 492.623C624.119 486.445 609.825 480.817 609.825 480.817C609.825 480.817 630.398 518.181 630.257 539.811C630.135 559.079 621.768 579.096 597.848 584.915C592.306 586.27 586.537 586.427 580.93 585.371C565.262 582.428 530.446 571.34 534.425 531.12C534.425 531.12 504.65 511.644 485.007 479.983C473.879 462.07 468.864 441.259 470.36 420.605L530.38 419.417Z" fill="#82B5B2"/>
<path fill-rule="evenodd" clip-rule="evenodd" d="M534.49 531.117C534.49 531.117 551.908 541.573 566.212 548.257C566.879 548.52 567.253 549.233 567.092 549.931C566.93 550.634 566.273 551.104 565.56 551.043C557.005 550.457 543.677 548.95 534.728 545.042C534.106 540.84 533.985 536.214 534.49 531.117ZM600.401 501.009C562.117 475.198 549.734 460.803 551.549 462.376C551.549 462.376 552.131 460.439 553.516 457.593C559.336 463.377 574.777 477.63 603.227 496.812C606.771 499.199 618.774 506.899 626.854 520.323C628.947 527.265 630.363 534.09 630.322 539.809C630.307 542.868 630.08 545.942 629.614 548.975C629.528 548.722 629.488 548.449 629.488 548.166C629.731 519.564 605.482 504.427 600.401 501.009ZM617.146 495.402C613.415 491.033 606.64 482.964 602.671 478.231C602.418 477.933 602.418 477.493 602.671 477.195C602.924 476.897 603.358 476.826 603.692 477.033L609.896 480.825C610.048 481.098 613.289 487.019 617.146 495.402Z" fill="#044743"/>
<path d="M663.327 558.482C675.988 558.482 686.251 548.219 686.251 535.558C686.251 522.898 675.988 512.635 663.327 512.635C650.667 512.635 640.404 522.898 640.404 535.558C640.404 548.219 650.667 558.482 663.327 558.482Z" fill="#A8CFCC"/>
<path fill-rule="evenodd" clip-rule="evenodd" d="M670.421 513.741C679.628 516.714 686.297 525.365 686.297 535.558C686.297 548.208 676.029 558.482 663.373 558.482C655.076 558.482 647.801 554.063 643.776 547.45L658.429 540.118C658.155 541.307 658.247 542.631 658.772 543.885C660.011 546.843 663.181 548.339 665.846 547.222C668.515 546.105 669.678 542.798 668.439 539.84C667.818 538.349 666.695 537.231 665.401 536.63L673.662 532.494L670.421 513.741Z" fill="black"/>
<path fill-rule="evenodd" clip-rule="evenodd" d="M562.197 599.173C562.197 599.173 567.046 597.955 573.791 596.256C597.963 590.163 623.238 600.867 635.696 622.456C644.939 638.489 643.048 658.607 630.979 672.632C626.09 678.315 622.242 682.789 622.242 682.789C622.242 682.789 629.917 682.633 638.851 682.446C653.837 682.137 667.018 692.305 670.527 706.881C670.826 708.216 671.154 709.551 671.503 710.876C674.137 720.775 680.063 729.482 688.304 735.559C691.383 737.839 694.24 740.696 694.877 743.735C694.877 743.735 553.233 743.558 486.615 743.472C473.252 743.457 461.052 735.888 455.096 723.93C449.145 711.968 450.459 697.674 458.498 687.001C458.498 687.001 407.332 634.596 409.465 573.569C410.623 540.422 440.777 521.361 463.003 531.165C500.782 547.819 531.613 573.21 562.197 599.173Z" fill="url(#paint3_linear_113_1713)"/>
<path fill-rule="evenodd" clip-rule="evenodd" d="M491.887 643.415C491.887 643.415 466.794 619.738 448.759 602.714C448.021 602.021 446.873 602.006 446.12 602.689C445.371 603.371 445.27 604.514 445.887 605.313C461.277 625.229 482.857 653.153 482.857 653.153L491.887 643.415Z" fill="#044743"/>
<path fill-rule="evenodd" clip-rule="evenodd" d="M622.279 682.79L629.241 682.648C625.859 685.586 621.192 689.448 615.368 693.796L615.545 743.634L610.489 743.628L610.327 697.472C595.715 707.862 575.314 720.169 550.565 729.421C549.255 729.912 547.799 729.249 547.309 727.94C546.823 726.635 547.486 725.174 548.795 724.689C585.79 710.855 612.855 690.07 624.979 679.645L622.279 682.79ZM559.023 596.453C560.095 597.358 561.162 598.268 562.234 599.173L569.176 597.429C558.204 602.015 484.078 634.884 452.903 698.165C454.081 694.201 455.962 690.414 458.535 687.001C458.535 687.001 457.322 685.757 455.279 683.432C484.827 635.354 537.424 606.692 559.023 596.453Z" fill="#82B5B2"/>
<path fill-rule="evenodd" clip-rule="evenodd" d="M1.02287 720.65C-4.1646 717.04 10.8892 686.436 34.6191 652.353C58.3489 618.276 81.8265 593.537 87.014 597.152C87.0408 597.167 87.0666 597.187 87.0919 597.207L112.75 616.167C117.938 619.777 102.884 650.381 79.1539 684.464C55.424 718.541 31.9464 743.28 26.7585 739.665C26.7322 739.65 26.7064 739.63 26.6806 739.61L1.02287 720.65Z" fill="#FFCD80"/>
<path fill-rule="evenodd" clip-rule="evenodd" d="M83.7908 597.256L83.9066 597.21L84.0214 597.17L84.1346 597.129L84.1427 597.124L84.2464 597.089H84.257L84.3566 597.054L84.3697 597.049L84.4653 597.018H84.481L84.5725 596.988L84.5902 596.983L84.6787 596.963L84.6984 596.957L84.7828 596.932L84.8046 596.927L84.8859 596.912L84.9092 596.907L84.9871 596.887L85.0123 596.882L85.0872 596.867L85.1135 596.861L85.1853 596.851L85.2136 596.846L85.2823 596.836H85.3117L85.3774 596.826L85.4082 596.821L85.4714 596.816H85.5028L85.5635 596.811L85.5963 596.806H85.654H85.6878L85.7434 596.801H85.7778H85.8309L85.8658 596.806H85.9169H85.9523L86.0013 596.811L86.0372 596.816L86.0842 596.821L86.1206 596.826L86.1656 596.831L86.202 596.836L86.245 596.841L86.2819 596.851L86.3234 596.856L86.3603 596.867L86.3997 596.877L86.4366 596.887L86.4745 596.897L86.5479 596.922L86.6191 596.947L86.6894 596.973L86.7577 597.003L86.7911 597.018L86.8244 597.038L86.8568 597.054L86.8891 597.074L86.921 597.094L86.9523 597.109L86.9837 597.129L87.014 597.155L89.2452 598.803L89.2478 598.828C89.448 600.83 89.0187 603.702 87.9342 607.272C87.0034 610.341 85.5857 613.976 83.7357 618.071L108.58 635.151C108.032 636.339 107.444 637.572 106.818 638.847L81.998 621.782C81.4514 622.915 80.8765 624.078 80.2739 625.266L104.411 643.579C103.794 644.757 103.151 645.96 102.48 647.194L78.3839 628.906C74.2936 636.627 69.1794 645.293 63.27 654.414L86.4786 673.642C85.7399 674.764 84.9906 675.897 84.2297 677.035L61.0408 657.822C59.1276 660.714 57.137 663.646 55.0782 666.604C48.1484 676.554 41.1984 685.691 34.6807 693.548L58.1487 712.295L58.1745 712.315C57.3034 713.377 56.4408 714.414 55.5879 715.425L32.1224 696.682C32.1077 696.672 32.0931 696.657 32.0789 696.647C30.6703 698.3 29.286 699.888 27.9309 701.405L50.9753 720.673C50.9925 720.688 51.0091 720.698 51.0253 720.713C50.1056 721.755 49.2021 722.756 48.3168 723.722L25.2103 704.403C19.7483 710.318 14.8409 714.965 10.8345 718.003C7.8616 720.264 5.31691 721.659 3.36731 722.17C3.29298 722.19 3.21917 722.205 3.14585 722.225L1.02284 720.653L0.993004 720.633L0.96317 720.612L0.933846 720.587L0.905031 720.567L0.876718 720.542L0.848905 720.516L0.821602 720.491L0.7943 720.466L0.741723 720.41L0.691159 720.355L0.642618 720.299L0.595094 720.238L0.572343 720.203L0.550093 720.173L0.527851 720.142L0.506612 720.107L0.484872 720.071L0.465152 720.041L0.443921 720.006L0.425213 719.97L0.404483 719.93L0.387294 719.899L0.367066 719.854L0.351397 719.824L0.331168 719.778L0.317012 719.748L0.297802 719.697L0.284146 719.667L0.265445 719.616L0.253811 719.586L0.235612 719.53L0.224487 719.5L0.207298 719.444L0.197184 719.414L0.180505 719.353L0.171903 719.323L0.156234 719.262L0.148141 719.232L0.132973 719.166L0.1264 719.141L0.112244 719.07L0.10618 719.045L0.0930336 718.974L0.0879726 718.944L0.0753357 718.873L0.0712931 718.843L0.0596591 718.767L0.0566271 718.742L0.0460115 718.661L0.043481 718.641L0.033876 718.55L0.0318547 718.529L0.0237618 718.438L0.0222497 718.423L0.0156766 718.327L0.0141568 718.312L0.00910354 718.211L0.0080929 718.196L0.00405031 718.089L0.00354112 718.079L0.00101065 717.973V717.963L0 717.842L0.000509181 717.72L0.00303194 717.594C0.0717938 714.909 0.836266 714.874 0.819581 716.461C0.814525 716.957 0.848908 717.397 0.941939 717.766C0.999578 717.998 1.04255 718.206 1.19625 718.312C1.34995 718.418 1.55776 718.388 1.7954 718.362C2.17662 718.317 2.59879 718.201 3.06344 718.024C4.54334 717.457 6.33064 716.345 8.38996 714.783C18.7836 706.895 35.3036 687.925 51.7584 664.293C68.2137 640.662 80.2739 618.582 84.0638 606.099C84.8152 603.626 85.2363 601.564 85.253 599.981C85.2581 599.485 85.2237 599.046 85.1307 598.671C85.073 598.439 85.03 598.237 84.8763 598.131C84.7226 598.019 84.5148 598.055 84.2772 598.08C83.8955 598.12 83.4738 598.242 83.0092 598.419C81.5293 598.985 81.2982 598.252 83.7908 597.256Z" fill="#FEA424"/>
<path fill-rule="evenodd" clip-rule="evenodd" d="M732.151 678.821C728.41 678.194 725.553 674.938 725.553 671.019V655.194C725.553 650.826 729.098 647.276 733.466 647.276H846.554C850.922 647.276 854.472 650.826 854.472 655.194V671.019C854.472 674.938 851.615 678.194 847.874 678.821C851.615 679.453 854.472 682.709 854.472 686.627V702.453C854.472 706.138 851.944 709.243 848.526 710.118C851.858 711.053 854.3 714.112 854.3 717.737V733.567C854.3 737.931 850.755 741.48 846.387 741.48H733.299C728.931 741.48 725.386 737.931 725.386 733.567V717.737C725.386 714.051 727.909 710.952 731.327 710.072C727.995 709.137 725.553 706.078 725.553 702.453V686.627C725.553 682.709 728.41 679.453 732.151 678.821Z" fill="#FFC367"/>
<path fill-rule="evenodd" clip-rule="evenodd" d="M836.26 674.932H853.385C852.227 676.959 850.205 678.42 847.823 678.82C848.066 678.86 848.309 678.916 848.546 678.977H846.059V706.107H853.526C852.5 708.069 850.67 709.555 848.475 710.117C848.516 710.127 848.551 710.137 848.587 710.152H835.396V741.479H831.351V710.152H792.96V741.479H788.916V710.152H756.188V741.479H752.143V710.152H748.023V741.479H743.978V710.152H730.994C731.09 710.122 731.181 710.096 731.277 710.071C729.159 709.474 727.394 708.023 726.398 706.107H734.553V678.977H731.378C731.611 678.916 731.854 678.86 732.101 678.82C729.72 678.42 727.697 676.959 726.54 674.932H748.634V647.275H752.679V674.932H761.335V647.275H765.38V674.932H785.74V647.275H789.785V674.932H832.215V647.275H836.26V674.932ZM738.598 678.977V706.107H775.012V678.977H738.598ZM779.056 678.977V706.107H802.274V678.977H779.056ZM806.318 678.977V706.107H812.305V678.977H806.318ZM816.35 678.977V706.107H842.014V678.977H816.35Z" fill="#FEA424"/>
<path fill-rule="evenodd" clip-rule="evenodd" d="M872.192 605.892C893.67 598.687 922.186 616.677 937.632 648.029C953.336 679.907 949.857 714.076 930.21 726.205L930.306 726.407L909.414 737.258C908.798 737.622 908.166 737.965 907.518 738.284C907.245 738.415 906.967 738.547 906.694 738.673L905.855 739.108L905.825 739.052C884.155 748.077 854.36 729.957 838.438 697.644C822.102 664.481 826.526 628.847 848.313 618.113C848.313 618.113 867.176 608.071 868.552 607.394C869.619 606.868 870.706 606.413 871.813 606.024L872.167 605.842L872.192 605.892Z" fill="#FFCD80"/>
<path d="M923.604 716.139C941.678 707.998 946.234 678.985 933.78 651.336C921.326 623.688 896.579 607.874 878.504 616.015C860.43 624.156 855.874 653.169 868.328 680.818C880.782 708.467 905.529 724.28 923.604 716.139Z" fill="#FEA424"/>
<path fill-rule="evenodd" clip-rule="evenodd" d="M881.723 604.31L882.032 604.305C879.13 604.881 876.303 605.821 873.598 607.156C864.442 611.666 858.026 619.958 854.578 630.272C849.284 646.113 850.952 666.661 860.493 686.025C870.034 705.395 885.308 719.243 901.098 724.693C911.372 728.243 921.858 728.212 931.014 723.702C933.724 722.363 936.192 720.699 938.416 718.748L938.341 718.839L938.27 718.935L938.199 719.026L938.078 719.177L938.012 719.263L937.926 719.364L937.865 719.44L937.85 719.46L937.734 719.597L937.668 719.678L937.567 719.799L937.532 719.845L937.491 719.885L937.385 720.017L937.324 720.087L937.188 720.244L937.137 720.3L937.026 720.426L936.97 720.492L936.829 720.649L936.778 720.704L936.662 720.831L936.611 720.886L936.465 721.048L936.414 721.104L936.288 721.235L936.247 721.276L936.096 721.437L936.045 721.488L935.899 721.64L935.883 721.66L935.868 721.67L935.716 721.822L935.666 721.872L935.509 722.034L935.474 722.064L935.332 722.201L935.287 722.246L935.125 722.403L935.084 722.443L934.938 722.575L934.902 722.615L934.731 722.772L934.69 722.808L934.538 722.949L934.508 722.974L934.336 723.126L934.291 723.166L934.119 723.323L934.109 723.328L933.932 723.48L933.886 723.52L933.709 723.672L933.684 723.692L933.522 723.829L933.477 723.859L933.3 724.011L933.259 724.036L933.103 724.168L933.067 724.198L932.88 724.339L932.84 724.375L932.668 724.506L932.647 724.521L932.455 724.668L932.415 724.698L932.223 724.84L932.026 724.982L931.98 725.017L931.788 725.153L931.768 725.169L931.591 725.295L931.545 725.325L931.353 725.457L931.318 725.482L931.141 725.598L931.105 725.624L930.908 725.755L930.868 725.785L930.686 725.902L930.66 725.917L930.458 726.043L930.413 726.074L930.21 726.2L930.307 726.402L921.868 730.786C918.435 731.327 914.911 731.418 911.352 731.079C911.336 731.089 911.316 731.099 911.296 731.109L892.816 741.343C890.576 741.267 888.301 740.979 886.011 740.488L904.925 730.012C903.206 729.608 901.487 729.107 899.773 728.516C893.807 726.453 887.902 723.268 882.315 719.086L864.806 730.331C863.683 729.492 862.566 728.607 861.459 727.676L878.968 716.432C877.668 715.34 876.389 714.192 875.135 712.994L857.202 723.814C856.221 722.858 855.25 721.867 854.299 720.846L872.203 710.036C866.302 703.787 861.054 696.314 856.868 687.815C855.877 685.803 854.967 683.78 854.138 681.748L835.557 691.253C835.041 689.989 834.551 688.725 834.091 687.461L852.682 677.951C849.84 670.013 848.207 662.034 847.727 654.374L828.721 662.333C828.63 660.876 828.585 659.435 828.579 658.01L847.575 650.051C847.529 643.848 848.257 637.902 849.719 632.416L830.915 640.511C831.446 638.706 832.068 636.967 832.781 635.303L850.917 627.497L851.104 627.936C853.339 621.682 856.605 616.151 860.837 611.666C860.837 611.666 866.717 608.329 868.38 607.475L868.552 607.389C869.619 606.863 870.706 606.408 871.813 606.019L872.167 605.837L872.193 605.887L872.42 605.811L872.456 605.801L872.678 605.73L872.719 605.715L872.941 605.65L872.966 605.639L873.184 605.574L873.214 605.564L873.436 605.503L873.477 605.488L873.699 605.427L873.735 605.417L873.957 605.356L873.972 605.351L874.2 605.291L874.24 605.28L874.468 605.225L874.503 605.215L874.736 605.159H874.741L874.979 605.104L875.009 605.093L875.236 605.043L875.277 605.038L875.509 604.987L875.53 604.982L875.762 604.932H875.777L876.015 604.881L876.05 604.876L876.288 604.83L876.313 604.825L876.556 604.78L876.804 604.739L876.829 604.734L877.072 604.699L877.097 604.694L877.345 604.654L877.598 604.618H877.613L877.855 604.583L877.886 604.578L878.128 604.547H878.149L878.396 604.517H878.401L878.649 604.492L878.68 604.487L878.917 604.461L878.953 604.456L879.2 604.436L879.438 604.416L879.478 604.411L879.711 604.396L879.762 604.391L879.989 604.375L880.035 604.37L880.181 604.365L880.399 604.35L880.479 604.345L880.742 604.335H880.773L881.081 604.32L881.395 604.315H881.4L881.708 604.31H881.723Z" fill="#FEA424"/>
<path d="M893.319 686.504C900.525 689.17 907.488 689.25 914.391 686.902C922.519 683.896 925.022 679.33 922.162 673.112C919.687 668.093 915.468 666.034 909.504 666.933C906.769 667.462 903.857 668.054 900.635 668.645C894.806 669.609 889.6 668.902 885.153 666.59C880.571 664.214 877.11 660.548 874.682 655.624C871.786 649.752 871.209 644.391 873.127 639.478C874.868 634.626 878.992 631.042 885.362 628.662C893.279 626.065 901.215 626.021 909.123 628.436L908.005 638.743C901.712 637.089 895.638 637.137 889.966 639.046C887.065 640.079 884.977 641.714 883.837 644.012C882.609 646.342 882.769 649.18 884.268 652.431C885.249 654.42 886.793 655.874 888.993 656.983C891.193 658.092 893.993 658.319 897.396 657.886C899.206 657.576 901.766 657.109 904.942 656.423C911.252 655.178 916.68 655.916 921.314 658.607C925.813 661.235 929.274 664.901 931.656 669.731C937.743 682.704 933.581 691.868 919.347 697.161C910.117 700.449 900.577 700.173 890.861 696.398L893.319 686.504Z" fill="#FFCD80"/>
<path fill-rule="evenodd" clip-rule="evenodd" d="M880.259 620.393L915.201 707.19L926.318 703.928L889.697 617.623L880.259 620.393Z" fill="#FFCD80"/>
<defs>
<linearGradient id="paint0_linear_113_1713" x1="301.155" y1="356.083" x2="209.951" y2="91.6163" gradientUnits="userSpaceOnUse">
<stop stop-color="#E86135"/>
<stop offset="0.59" stop-color="#EC6D47"/>
<stop offset="0.8" stop-color="#F6886F"/>
<stop offset="1" stop-color="#FFA396"/>
</linearGradient>
<linearGradient id="paint1_linear_113_1713" x1="165.092" y1="111.805" x2="-12.6159" y2="-7.08108" gradientUnits="userSpaceOnUse">
<stop stop-color="#E86135"/>
<stop offset="1" stop-color="#FFA396"/>
</linearGradient>
<linearGradient id="paint2_linear_113_1713" x1="664.291" y1="193.333" x2="704.451" y2="414.411" gradientUnits="userSpaceOnUse">
<stop stop-color="#FFB000"/>
<stop offset="1" stop-color="#FD9500"/>
</linearGradient>
<linearGradient id="paint3_linear_113_1713" x1="509.352" y1="681.252" x2="384.37" y2="472.359" gradientUnits="userSpaceOnUse">
<stop stop-color="#A8CFCC"/>
<stop offset="0.58" stop-color="#B9D5D1"/>
<stop offset="0.8" stop-color="#DDE3DC"/>
<stop offset="1" stop-color="#FFF0E6"/>
</linearGradient>
</defs>
</svg>
