<svg width="1034" height="787" viewBox="0 0 1034 787" fill="none" xmlns="http://www.w3.org/2000/svg">
<g clip-path="url(#clip0_113_992)">
<path d="M940.983 449.294H564.209V754.322H940.983V449.294Z" fill="#FFAFA4"/>
<path fill-rule="evenodd" clip-rule="evenodd" d="M673.06 589.197H614.064V717.308H673.06V589.197ZM904.486 595.275H845.491V717.308H904.486V595.275ZM827.349 561.094H768.346V717.308H827.349V561.094ZM750.204 517.35H691.202V717.308H750.204V517.35ZM887.887 575.179H861.325V589.689H887.887V575.179ZM655.709 569.539H629.147V584.043H655.709V569.539ZM811.129 542.381H784.566V556.891H811.129V542.381ZM733.03 497.633H706.474V512.143H733.03V497.633Z" fill="#FFF1E2"/>
<path fill-rule="evenodd" clip-rule="evenodd" d="M784.358 694.188L900.291 568.836C901.945 567.047 904.723 566.961 906.488 568.643C908.247 570.333 908.332 573.159 906.678 574.948L787.137 704.203C786.241 705.167 784.973 705.679 783.679 705.6C782.378 705.52 781.175 704.855 780.41 703.784L697.342 588.627L608.659 708.565C607.201 710.534 604.456 710.933 602.52 709.45C600.585 707.974 600.193 705.174 601.651 703.206L693.877 578.465C694.714 577.335 696.022 576.677 697.408 576.683C698.794 576.69 700.095 577.368 700.919 578.505L784.358 694.188Z" fill="#DC5D3C"/>
<path fill-rule="evenodd" clip-rule="evenodd" d="M727.539 163.886C727.081 162.596 726.832 161.208 726.832 159.761C726.832 152.981 732.333 147.477 739.115 147.477C745.892 147.477 751.398 152.981 751.398 159.761C751.398 166.54 745.892 172.045 739.115 172.045C737.466 172.045 735.896 171.72 734.456 171.131L611.512 314.887C612.3 316.507 612.743 318.326 612.743 320.248C612.743 327.028 607.237 332.532 600.46 332.532C593.678 332.532 588.177 327.028 588.177 320.248C588.177 319.912 588.187 319.58 588.216 319.251L576.506 311.125C574.423 312.741 571.812 313.704 568.977 313.704C567.601 313.704 566.281 313.479 565.05 313.063L440.851 476.742C441.23 477.928 441.434 479.188 441.434 480.499C441.434 487.276 435.933 492.782 429.151 492.782C422.369 492.782 416.867 487.276 416.867 480.499C416.867 479.836 416.917 479.188 417.017 478.56L340.461 401.83C338.752 402.732 336.804 403.246 334.736 403.246C333.5 403.246 332.304 403.061 331.178 402.717L197.86 610.264C198.948 612.098 199.573 614.236 199.573 616.523C199.573 623.3 194.068 628.806 187.288 628.806C180.508 628.806 175.004 623.3 175.004 616.523C175.004 609.741 180.508 604.235 187.288 604.235C188.124 604.235 188.941 604.319 189.73 604.479L323.578 396.105C322.856 394.54 322.452 392.796 322.452 390.962C322.452 384.18 327.959 378.674 334.736 378.674C341.518 378.674 347.024 384.18 347.024 390.962C347.024 391.984 346.894 392.98 346.66 393.932L422.638 470.084C424.526 468.898 426.759 468.216 429.151 468.216C430.89 468.216 432.544 468.574 434.044 469.227L557.69 306.276C557.047 304.787 556.688 303.145 556.688 301.42C556.688 294.64 562.195 289.136 568.977 289.136C575.754 289.136 581.26 294.64 581.26 301.42C581.26 301.707 581.25 301.991 581.23 302.273L593.035 310.464C595.098 308.895 597.669 307.963 600.46 307.963C601.656 307.963 602.812 308.135 603.903 308.453L727.539 163.886Z" fill="#FFAFA4"/>
<path d="M481.293 59.4141H90.9141V354.304H481.293V59.4141Z" fill="#FFF1E2"/>
<path fill-rule="evenodd" clip-rule="evenodd" d="M169.326 109.25H142.764V325.583H169.326V109.25ZM222.031 89.9402H195.469V325.469H222.031V89.9402ZM274.736 139.368H248.174V325.344H274.736V139.368ZM327.442 108.685H300.879V325.208H327.442V108.685ZM380.149 168.845H353.586V325.06H380.149V168.845ZM432.849 212.509H406.286V324.899H432.849V212.509Z" fill="#FFAFA4" fill-opacity="0.64"/>
<path fill-rule="evenodd" clip-rule="evenodd" d="M537.272 662.198H484.201V591.611H447.879L510.737 500.459L573.594 591.611H537.272V662.198Z" fill="#E5734E"/>
<path fill-rule="evenodd" clip-rule="evenodd" d="M825.132 73.1294H878.203V143.716H914.525L851.668 234.868L788.81 143.716H825.132V73.1294Z" fill="#FFB000"/>
<path d="M692.875 490.871C741.725 490.871 781.326 450.59 781.326 400.9C781.326 351.211 741.725 310.93 692.875 310.93C644.025 310.93 604.424 351.211 604.424 400.9C604.424 450.59 644.025 490.871 692.875 490.871Z" fill="#FFCD80"/>
<path fill-rule="evenodd" clip-rule="evenodd" d="M672.076 339.517L668.823 340.697L667.213 336.104L672.889 334.045C674.233 333.558 675.678 334.193 676.123 335.461L678.846 343.23C683.888 341.639 688.92 340.666 693.933 340.308C700.338 339.849 706.722 340.393 713.076 341.939C713.794 342.11 714.378 342.584 714.683 343.225C714.982 343.869 714.974 344.619 714.651 345.284L707.488 360.017C706.948 361.126 705.674 361.732 704.47 361.45C698.227 359.991 691.832 360.042 685.285 361.598L694.359 387.486C719.445 383.687 734.431 390.227 739.686 406.243C742.577 414.93 741.689 423.317 737.051 431.365C732.88 438.907 726.021 445.278 716.417 450.415L721.096 463.763C721.54 465.03 720.815 466.449 719.471 466.936L713.899 468.957L712.29 464.368L715.44 463.226L710.862 450.167C710.455 449.004 711.028 447.695 712.201 447.115C721.758 442.366 728.57 436.427 732.586 429.174C736.518 422.349 737.25 415.269 734.807 407.924C730.078 393.515 715.982 388.737 692.926 392.668C691.709 392.872 690.552 392.224 690.166 391.125L679.549 360.835C679.327 360.202 679.395 359.497 679.729 358.884C680.065 358.275 680.641 357.812 681.326 357.613C688.996 355.335 696.485 354.876 703.781 356.229L708.716 346.081C703.853 345.156 698.977 344.862 694.08 345.216C688.73 345.596 683.372 346.743 677.985 348.647C676.65 349.12 675.219 348.483 674.777 347.222L672.076 339.517ZM709.906 431.84C713.078 429.55 715.158 427.192 716.03 424.69C716.559 423.088 716.774 421.423 716.675 419.7L721.785 419.223C721.908 421.557 721.608 423.812 720.882 426.023C719.449 430.121 715.826 434.09 709.807 437.739C709.143 438.14 708.338 438.244 707.613 438.015C706.895 437.783 706.333 437.246 706.091 436.554L700.4 420.32L705.251 418.56L709.906 431.84ZM660.59 376.517C660.713 374.133 661.218 372.003 662.076 370.126C662.096 370.08 662.123 370.032 662.143 369.986C664.204 366.113 667.248 363.206 671.261 361.269C671.919 360.953 672.681 360.914 673.346 361.16C674.012 361.411 674.523 361.928 674.75 362.576L679.41 375.871L674.559 377.63L670.884 367.147C669.152 368.428 667.764 370.044 666.713 371.996C666.109 373.343 665.782 374.872 665.692 376.581C665.693 376.625 665.687 376.671 665.682 376.717C665.488 378.525 665.806 380.517 666.568 382.691L661.716 384.45C660.707 381.57 660.35 378.922 660.59 376.517Z" fill="#FDA31F"/>
<path fill-rule="evenodd" clip-rule="evenodd" d="M668.923 392.765C665.628 391.05 663.279 388.296 661.932 384.453L666.784 382.694C667.707 385.329 669.267 387.253 671.53 388.423L671.611 388.466C673.419 389.491 675.904 389.918 679.06 389.858L674.775 377.633L679.626 375.873L684.998 391.2C685.248 391.911 685.133 392.711 684.688 393.364C684.249 394.01 683.523 394.445 682.732 394.527C676.616 395.164 672.027 394.499 668.923 392.765Z" fill="#FDA31F"/>
<path fill-rule="evenodd" clip-rule="evenodd" d="M701.462 407.572L705.313 418.56L700.462 420.32L695.633 406.544C695.398 405.872 695.486 405.121 695.872 404.489C696.264 403.854 696.911 403.404 697.651 403.257C704.791 401.846 710.035 402.273 713.419 404.159L713.495 404.209C716.865 406.262 719.23 409.188 720.568 413.006C721.316 415.14 721.737 417.217 721.847 419.224L716.737 419.7C716.653 418.104 716.31 416.458 715.717 414.765C714.755 412.022 713.078 409.909 710.669 408.426C708.547 407.259 705.475 407.035 701.462 407.572Z" fill="#FDA31F"/>
<path fill-rule="evenodd" clip-rule="evenodd" d="M685.981 410.171C661.782 413.598 647.453 407.135 642.604 391.652C639.567 382.36 640.163 374.018 644.226 366.626C647.945 359.862 654.645 353.853 664.437 348.709L661.638 340.724C661.193 339.456 661.917 338.034 663.255 337.549L667.23 336.108L668.84 340.701L667.294 341.262L669.995 348.967C670.405 350.135 669.826 351.45 668.645 352.028C658.937 356.805 652.253 362.337 648.718 368.769C645.277 375.034 644.916 382.107 647.498 390.015C651.84 403.884 665.298 408.573 687.444 405.01C688.65 404.817 689.798 405.462 690.18 406.552L701.308 438.298C701.535 438.946 701.458 439.666 701.111 440.284C700.758 440.904 700.156 441.36 699.454 441.549C693.192 443.211 687.598 443.791 682.69 443.32C678.437 443.092 674.442 442.345 670.696 441.076L664 451.857C669.544 453.242 675.41 453.98 681.58 454.082C688.757 454.134 695.853 452.933 702.879 450.484C704.217 450.021 705.64 450.655 706.08 451.912L710.658 464.971L712.307 464.372L713.916 468.961L709.837 470.44C708.499 470.925 707.055 470.293 706.612 469.027L702.008 455.894C695.17 458.02 688.27 459.052 681.29 459C673.465 458.873 666.135 457.781 659.278 455.738C658.558 455.523 657.985 454.995 657.73 454.308C657.468 453.623 657.554 452.845 657.956 452.196L667.497 436.837C668.169 435.747 669.571 435.278 670.748 435.752C674.59 437.296 678.764 438.177 683.254 438.413L683.373 438.42C687.012 438.776 691.071 438.454 695.552 437.476L685.981 410.171Z" fill="#FDA31F"/>
<path fill-rule="evenodd" clip-rule="evenodd" d="M711.683 502.142C705.113 503.519 698.3 504.244 691.331 504.244C685.552 504.244 680.871 499.476 680.871 493.604C680.871 487.732 685.552 482.964 691.331 482.964C735.258 482.964 770.921 446.688 770.921 402.007C770.921 357.325 735.258 321.049 691.331 321.049C685.552 321.049 680.871 316.282 680.871 310.409C680.871 304.537 685.552 299.769 691.331 299.769C746.803 299.769 791.841 345.58 791.841 402.007C791.841 443.829 767.096 479.818 731.701 495.645L797.274 652.984C799.529 658.39 797.045 664.641 791.73 666.929C786.415 669.223 780.269 666.696 778.014 661.289L711.683 502.142Z" fill="#DC5D3C"/>
<path fill-rule="evenodd" clip-rule="evenodd" d="M691.309 482.961C647.382 482.961 611.719 446.686 611.719 402.005C611.719 357.325 647.382 321.049 691.309 321.049C697.081 321.049 701.769 316.281 701.769 310.409C701.769 304.537 697.081 299.769 691.309 299.769C635.837 299.769 590.799 345.58 590.799 402.005C590.799 458.43 635.837 504.241 691.309 504.241C697.081 504.241 701.769 499.473 701.769 493.601C701.769 487.729 697.081 482.961 691.309 482.961Z" fill="#DC5D3C"/>
<path fill-rule="evenodd" clip-rule="evenodd" d="M832.076 536.809C832.076 536.809 826.447 515.303 828.31 487.886C830.938 449.323 855.199 415.767 890.607 401.722C926.008 387.681 966.202 395.673 993.797 422.244C1000.17 428.408 1005.98 435.65 1010.87 444.169C1034.91 486.064 1042.7 532.248 1022.46 577.88C1022.46 577.88 1035.5 665.014 1016.71 727.823C1007.23 759.371 980.336 782.246 948.138 786.157C947.053 786.303 945.961 786.429 944.856 786.562C915.45 790.133 886.606 776.428 870.419 751.204C838.901 702.088 790.424 626.544 790.424 626.544C790.424 626.544 762.992 628.971 752.395 629.909C748.603 630.255 745.21 627.535 744.654 623.705C744.347 621.41 745.053 618.883 748.276 616.742C748.276 616.742 744.87 616.715 742.202 616.057C737.992 615.026 736.306 611.362 736.123 607.439C735.953 603.748 737.025 599.485 741.961 596.985C735.743 598.175 729.716 594.139 728.343 587.861C728.284 587.609 728.232 587.369 728.186 587.143C727.682 584.862 728.003 582.475 729.081 580.413C730.101 578.452 731.86 576.304 734.867 575.007C734.867 575.007 731.938 574.083 728.774 573.085C724.204 571.642 721.086 567.346 721.086 562.478V562.472C721.086 558.156 723.649 554.259 727.578 552.61C736.109 549.012 750.048 543.147 750.048 543.147C750.048 543.147 732.095 519.859 739.561 513.016C740.888 511.799 743.85 511.094 752.558 518.635C755.847 521.481 768.615 525.119 784.769 522.864C784.769 522.864 805.905 522.731 832.076 536.809ZM851.505 286.215C878.97 286.215 901.27 308.897 901.27 336.836C901.27 364.775 878.97 387.458 851.505 387.458C824.034 387.458 801.734 364.775 801.734 336.836C801.734 308.897 824.034 286.215 851.505 286.215Z" fill="#A8CFCC"/>
<path fill-rule="evenodd" clip-rule="evenodd" d="M788.61 626.696L799.515 625.446C800.947 625.28 802.241 626.33 802.404 627.793C802.568 629.25 801.535 630.567 800.097 630.733L793.467 631.491L790.297 626.543L788.61 626.696ZM737.329 612.505L768.834 609.546C770.272 609.406 771.547 610.484 771.677 611.947C771.815 613.41 770.756 614.706 769.317 614.839L747.998 616.841C748.044 616.808 748.096 616.774 748.149 616.741C748.149 616.741 744.742 616.715 742.075 616.056C739.82 615.504 738.29 614.201 737.329 612.505ZM731.68 594.005C731.916 593.865 732.184 593.759 732.465 593.692L761.649 587.295C763.054 586.983 764.447 587.9 764.754 589.337C765.055 590.766 764.159 592.183 762.747 592.495L741.506 597.157C741.611 597.097 741.722 597.037 741.833 596.984C738.041 597.709 734.321 596.492 731.68 594.005ZM726.404 572.087L757.537 562.331C758.916 561.899 760.38 562.684 760.805 564.087C761.23 565.49 760.452 566.979 759.073 567.412L734.485 575.119C734.57 575.079 734.655 575.039 734.74 575.006C734.74 575.006 731.811 574.082 728.647 573.084C727.856 572.831 727.104 572.499 726.404 572.087ZM746.763 538.711L757.654 534.129C758.988 533.563 760.518 534.208 761.073 535.565C761.623 536.928 760.988 538.484 759.655 539.043L749.914 543.139C749.829 543.026 748.508 541.304 746.763 538.711Z" fill="#82B5B2"/>
<path fill-rule="evenodd" clip-rule="evenodd" d="M831.68 535.805C830.614 531.27 826.528 511.832 828.156 487.886C830.784 449.322 855.045 415.767 890.453 401.722C925.854 387.681 966.048 395.672 993.643 422.244C1000.02 428.408 1005.83 435.65 1010.72 444.169C1034.75 486.063 1042.54 532.247 1022.3 577.879C1022.3 577.879 1035.35 665.014 1016.56 727.823C1007.08 759.37 980.182 782.246 947.984 786.156C946.899 786.303 945.807 786.429 944.702 786.562C915.296 790.133 886.452 776.427 870.265 751.204L848.684 717.575L922.056 630.354C883.7 569.62 841.924 541.983 831.68 535.805Z" fill="url(#paint0_linear_113_992)"/>
<path fill-rule="evenodd" clip-rule="evenodd" d="M921.885 629.914C922.015 630.04 922.14 630.193 922.244 630.353L969.636 703.117C970.433 704.347 970.106 705.996 968.903 706.807C967.701 707.619 966.079 707.28 965.282 706.056L918.675 634.502L922.166 630.353L921.885 629.914ZM1022.87 581.243L1022.99 582.187L1022.85 582.493C1022.85 582.493 1012.38 523.222 997.362 477.909C997.002 476.971 997.421 475.914 998.31 475.488C999.199 475.056 1000.26 475.402 1000.75 476.273C1008.75 492.067 1019.71 515.707 1031.87 547.521C1031.69 548.465 1031.51 549.409 1031.31 550.347L1031.31 550.38L1031.21 550.819L1031.21 550.859L1031.11 551.305L1031.1 551.331C1030.91 552.269 1030.69 553.206 1030.47 554.137L1030.46 554.171L1030.36 554.596L1030.34 554.663L1030.25 555.075L1030.22 555.155L1030.12 555.561L1030.1 555.634L1030 556.053L1029.99 556.079C1029.83 556.691 1029.67 557.303 1029.51 557.921L1029.49 557.961L1029.39 558.354L1029.36 558.467L1029.26 558.826L1029.22 558.965L1029.12 559.318L1029.08 559.464L1028.98 559.81L1028.95 559.956L1028.84 560.309L1028.81 560.428L1028.7 560.801C1028.65 560.96 1028.61 561.12 1028.55 561.28L1028.43 561.692L1028.41 561.758L1028.31 562.091L1028.26 562.264L1028.16 562.57L1028.1 562.769L1028.01 563.062L1027.95 563.275L1027.85 563.561L1027.78 563.78L1027.69 564.066L1027.62 564.285L1027.53 564.565L1027.45 564.791L1027.36 565.07L1027.27 565.336L1027.21 565.549L1027.12 565.788L1027.04 566.048L1026.95 566.3L1026.86 566.56L1026.77 566.806L1026.68 567.065L1026.6 567.311L1026.51 567.577L1026.42 567.816L1026.32 568.089L1026.24 568.322L1026.14 568.608L1026.06 568.827L1025.94 569.16L1025.87 569.333L1025.69 569.831L1025.62 569.998L1025.5 570.337L1025.42 570.543L1025.31 570.842L1025.23 571.062L1025.11 571.354L1025.03 571.574L1024.92 571.866L1024.83 572.086L1024.72 572.385L1024.63 572.591L1024.5 572.917L1024.43 573.097L1024.26 573.515L1024.22 573.602L1024.02 574.107L1023.96 574.26L1023.81 574.613L1023.73 574.812L1023.6 575.125L1023.51 575.331L1023.38 575.63L1023.3 575.843L1023.17 576.149L1023.07 576.355L1022.94 576.668L1022.86 576.86L1022.71 577.206L1022.64 577.366L1022.41 577.878L1022.45 578.144L1022.46 578.23L1022.5 578.476L1022.51 578.596L1022.56 578.948L1022.58 579.082L1022.64 579.554L1022.66 579.693L1022.75 580.292L1022.76 580.411L1022.86 581.17L1022.87 581.243ZM856.561 553.911C856.561 553.911 854.07 534.327 850.716 476.772C850.637 475.488 851.507 475.089 851.984 474.983C852.834 474.79 853.481 475.349 853.56 475.841L867.583 563.687C863.706 560.063 860.019 556.811 856.561 553.911Z" fill="#28625E"/>
<path fill-rule="evenodd" clip-rule="evenodd" d="M812.82 305.108C821.947 293.59 835.924 286.215 851.589 286.215C879.053 286.215 901.353 308.897 901.353 336.836C901.353 352.644 894.214 366.769 883.041 376.054L865.671 358.504C867.521 358.37 869.43 357.871 871.28 356.976C877.824 353.806 879.504 345.473 876.987 340.094C874.464 334.716 867.109 332.922 860.571 336.091C856.328 338.147 855.04 343.183 854.243 346.957L812.82 305.108Z" fill="black"/>
<path d="M374.467 444.947C423.317 444.947 462.918 404.666 462.918 354.976C462.918 305.287 423.317 265.005 374.467 265.005C325.617 265.005 286.016 305.287 286.016 354.976C286.016 404.666 325.617 444.947 374.467 444.947Z" fill="#A8CFCC"/>
<path fill-rule="evenodd" clip-rule="evenodd" d="M288.353 334.771C288.993 334.479 289.774 334.311 290.719 334.48C292.58 334.814 293.904 336.436 293.958 338.286C294.577 339.403 296.248 342.323 298.241 345.076C302.946 351.577 310.883 360.916 321.873 370.448C326.907 348.54 336.544 330.273 347.2 315.626C331.464 303.276 322.808 291.9 321.049 289.727C319.67 288.027 319.912 285.511 321.579 284.11C323.253 282.709 325.724 282.952 327.103 284.651C328.783 286.722 337.027 297.552 352.025 309.308C372.461 283.815 394.598 271.123 394.598 271.123C396.481 270.042 398.873 270.721 399.939 272.639C401.005 274.557 400.338 276.993 398.449 278.074C398.449 278.074 377.626 290.016 358.32 313.998C373.272 324.572 393.604 335.065 419.454 339.938C422.232 320.755 421.219 302.933 419.264 289.724C418.944 287.546 420.422 285.512 422.559 285.184C424.704 284.856 426.704 286.358 427.025 288.536C429.077 302.409 430.104 321.08 427.188 341.2C437.249 342.591 448.089 343.121 459.706 342.499C460.667 342.448 461.556 342.751 462.269 343.295C462.517 345.23 462.7 347.184 462.831 349.154C462.158 349.913 461.203 350.411 460.118 350.468C447.88 351.123 436.458 350.558 425.848 349.08C422.049 368.543 414.335 388.917 400.174 407.313C414.413 409.415 429.986 409.541 446.84 406.815C444.644 409.98 442.244 412.999 439.675 415.845C423.311 417.667 408.163 416.942 394.271 414.435C384.772 425.089 372.854 434.897 357.974 443.243C357.922 443.276 357.863 443.303 357.804 443.329C356.196 443.017 354.607 442.658 353.031 442.259C352.888 442.079 352.757 441.886 352.646 441.674C351.6 439.745 352.293 437.318 354.189 436.254C366.604 429.285 376.835 421.238 385.229 412.513C361.942 406.821 342.532 396.225 327.254 384.866C325.541 397.787 325.547 411.888 327.953 427.17C328.162 428.513 327.685 429.81 326.783 430.688C324.364 429.105 322.03 427.409 319.781 425.601C317.427 408.783 317.82 393.341 320.134 379.288C301.591 363.98 290.45 348.512 287.319 342.684C287.208 342.479 287.107 342.281 287.012 342.089C287.361 339.615 287.81 337.173 288.353 334.771ZM353.483 320.324C342.794 335.039 333.183 353.614 328.705 376.068C344.565 388.436 365.558 400.258 391.303 405.717C406.261 387.641 414.257 367.269 418.107 347.816C390.728 342.682 369.232 331.527 353.483 320.324ZM290.685 342.344C290.502 342.376 290.316 342.394 290.128 342.399C289.939 342.403 289.748 342.394 289.556 342.369C289.965 342.423 290.341 342.409 290.685 342.344Z" fill="#82B5B2"/>
<path fill-rule="evenodd" clip-rule="evenodd" d="M72.4513 524.916C72.4513 524.916 -57.5374 420.299 32.7553 296.387C42.3657 283.199 100.681 206.331 183.55 154.23C186.786 152.189 190.951 152.528 193.827 155.066C195.661 156.724 196.853 159.256 195.671 163.145C195.671 163.145 208.496 160.301 207.612 172.834C207.612 172.834 222.629 168.737 223.151 184.473C223.151 184.473 247.979 153.527 258.796 140.044C261.631 136.511 266.587 135.631 270.43 137.98C270.431 137.981 270.431 137.981 270.431 137.981C272.176 139.046 273.432 140.774 273.923 142.782C274.414 144.79 274.099 146.915 273.048 148.687C226.895 226.438 177.834 297.772 128.626 368.782C128.626 368.782 169.218 410.55 190.135 425.585C198.628 431.684 283.505 485.628 295.779 515.167C295.779 515.167 296.813 508.398 297.993 500.69C300.035 487.324 309.721 476.498 322.601 473.159C331.335 470.898 339.442 468.797 339.442 468.797C339.442 468.797 353.929 466.283 366.266 466.383C374.346 466.443 381.485 471.73 384.035 479.523C385.205 483.121 384.715 487.064 382.688 490.243C381.544 492.045 380.531 493.628 380.531 493.628C380.531 493.628 383.44 494.632 386.14 495.563C389.016 496.554 391.337 498.742 392.534 501.581C394.861 507.114 393.861 513.518 389.958 518.047C388.742 519.463 387.84 520.507 387.84 520.507H388.722C393.325 520.507 397.463 523.353 399.183 527.702C401.543 533.674 399.634 540.51 394.547 544.334C393.286 545.278 392.41 545.943 392.41 545.943C394.005 545.391 395.495 546.508 396.541 549.069C398.614 554.129 396.711 559.975 392.2 562.974C385.166 567.649 375.882 573.82 375.882 573.82C373.797 617.464 368.613 664.539 344.26 720.644C336.911 737.515 322.457 750.091 304.936 754.859C304.923 754.872 304.91 754.872 304.897 754.878C268.22 764.853 229.784 746.692 213.625 711.753C205.868 694.962 197.582 674.268 190.135 649.896C190.135 649.896 159.303 653.992 128.626 638.192C91.7726 619.213 55.1422 576.187 72.4513 524.916Z" fill="url(#paint1_linear_113_992)"/>
<path fill-rule="evenodd" clip-rule="evenodd" d="M17.127 453.649C20.9985 441.559 34.5118 414.408 77.4243 416.961C77.4243 416.961 92.6446 371.819 140.77 380.901C154.42 394.44 176.547 415.744 190.242 425.586C198.736 431.684 283.612 485.629 295.886 515.168L296.028 514.244C303.949 537.891 318.334 588.643 311.103 643.565C311.103 643.565 282.608 662.95 254.893 638.598C254.893 638.598 228.657 674.002 190.713 651.426C190.555 650.914 190.398 650.408 190.242 649.896C190.242 649.896 159.41 653.993 128.733 638.192C91.8797 619.213 55.2493 576.188 72.5583 524.917C72.5583 524.917 38.2429 497.299 17.127 453.649ZM197.529 413.816L208.696 420.885C204.669 419.016 200.919 416.635 197.529 413.816Z" fill="#FD9500"/>
<path fill-rule="evenodd" clip-rule="evenodd" d="M306.984 630.789L300.649 703.566C300.522 705.029 301.586 706.325 303.024 706.452C304.461 706.585 305.729 705.501 305.86 704.038L312.188 631.261C312.319 629.798 311.253 628.501 309.815 628.375C308.377 628.242 307.108 629.326 306.984 630.789Z" fill="#FD9500"/>
<path fill-rule="evenodd" clip-rule="evenodd" d="M171.342 650C169.113 623.374 175.065 601.722 179.045 590.683C179.364 589.911 180.171 589.486 180.973 589.652C181.776 589.818 182.352 590.536 182.351 591.368C183.122 613.013 188.724 642.173 190.529 651.104C190.405 650.699 190.28 650.3 190.157 649.894C190.157 649.894 182.642 650.892 171.342 650ZM54.3535 507.478C63.8168 495.535 73.1721 486.498 81.8816 479.655C95.2936 469.115 107.173 463.781 115.549 461.055C116.518 460.836 117.505 461.354 117.893 462.279C118.281 463.21 117.961 464.287 117.132 464.845C91.7913 482.481 77.3392 513.024 72.4491 524.895C71.9699 524.502 64.4032 518.324 54.3535 507.478Z" fill="#E15D33"/>
<path fill-rule="evenodd" clip-rule="evenodd" d="M392.602 545.922C394.184 545.416 395.649 546.54 396.682 549.067C396.74 549.207 396.793 549.346 396.845 549.486C392.014 552.558 381.508 558.623 371.91 559.973C370.479 560.173 369.158 559.155 368.962 557.705C368.759 556.249 369.76 554.906 371.191 554.706C379.141 553.589 387.745 548.914 392.602 545.922ZM387.986 520.506H388.863C390.994 520.506 393.027 521.117 394.766 522.208C391.883 524.349 380.396 532.489 368.36 535.401C366.955 535.741 365.549 534.856 365.209 533.426C364.876 532.003 365.745 530.567 367.151 530.228C375.369 528.233 383.305 523.604 387.986 520.506ZM380.704 493.64L385.908 495.435C381.115 501.733 372.126 511.096 359.607 513.649C358.194 513.942 356.815 513.004 356.527 511.568C356.246 510.125 357.161 508.722 358.58 508.436C368.759 506.354 376.278 499.146 380.704 493.64Z" fill="#FD9500"/>
<path fill-rule="evenodd" clip-rule="evenodd" d="M345.556 476.106C345.556 476.106 336.632 478.108 327.224 476.745C325.792 476.539 324.472 477.556 324.262 479.006C324.06 480.462 325.06 481.805 326.485 482.012C336.847 483.514 346.68 481.307 346.68 481.307C348.086 480.987 348.981 479.564 348.668 478.135C348.36 476.698 346.961 475.794 345.556 476.106Z" fill="#FD9500"/>
<path fill-rule="evenodd" clip-rule="evenodd" d="M221.81 177.91C222.629 179.576 223.163 181.721 223.254 184.471L227.201 179.552C227.125 179.693 227.033 179.83 226.929 179.959L217.144 192.012C216.225 193.144 214.575 193.304 213.462 192.369C212.35 191.434 212.192 189.756 213.111 188.624L221.81 177.91ZM206.391 166.276C207.365 167.761 207.923 169.861 207.716 172.821L201.65 179.886C200.7 180.992 199.047 181.106 197.96 180.14C196.872 179.175 196.761 177.493 197.71 176.387L206.391 166.276ZM195.139 156.45C196.206 158.047 196.667 160.209 195.774 163.143H195.775C192.501 166.282 188.725 169.925 188.725 169.925C187.677 170.935 186.021 170.891 185.028 169.825C184.035 168.76 184.078 167.075 185.126 166.065C185.126 166.065 191.812 159.616 195.139 156.45Z" fill="#FD9500"/>
<path fill-rule="evenodd" clip-rule="evenodd" d="M128.641 368.784C128.641 368.784 111.383 351.45 101.161 341.183C100.459 340.478 100.352 339.376 100.906 338.549C101.459 337.723 102.519 337.401 103.439 337.782C116.928 343.366 139.815 352.839 139.815 352.839L128.641 368.784Z" fill="#FD9500"/>
<path fill-rule="evenodd" clip-rule="evenodd" d="M337.286 482.349L341.255 452.743C334.913 450.508 328.702 447.596 322.707 443.965C317.745 440.966 316.111 434.429 319.059 429.381C322.014 424.334 328.441 422.678 333.396 425.677C371.151 448.52 420.033 435.878 442.49 397.478C464.941 359.075 452.519 309.354 414.764 286.515C409.802 283.513 408.167 276.978 411.123 271.931C414.071 266.884 420.498 265.223 425.46 268.225C473.139 297.068 488.823 359.857 460.469 408.354C439.45 444.304 400.1 462.372 361.724 457.571L359.142 476.829C354.408 479.11 346.563 482.063 337.286 482.349Z" fill="#DC5D3C"/>
<path fill-rule="evenodd" clip-rule="evenodd" d="M333.189 425.681C295.434 402.842 283.012 353.121 305.465 314.718C327.917 276.316 376.799 263.68 414.553 286.519C419.514 289.521 425.939 287.86 428.89 282.813C431.841 277.766 430.208 271.231 425.246 268.229C377.569 239.388 315.839 255.344 287.484 303.841C259.129 352.337 274.818 415.129 322.495 443.971C327.457 446.972 333.882 445.311 336.832 440.264C339.783 435.218 338.15 428.682 333.189 425.681Z" fill="#DC5D3C"/>
<path d="M229.751 425.579C258.152 425.579 281.175 402.16 281.175 373.271C281.175 344.382 258.152 320.963 229.751 320.963C201.35 320.963 178.326 344.382 178.326 373.271C178.326 402.16 201.35 425.579 229.751 425.579Z" fill="#FFBB22"/>
<path fill-rule="evenodd" clip-rule="evenodd" d="M211.87 393.933C202.593 395.56 192.721 395.791 182.482 393.892C179.808 387.565 178.326 380.593 178.326 373.271C178.326 344.402 201.369 320.963 229.751 320.963C252.374 320.963 271.605 335.855 278.476 356.516C276.322 366.352 260.14 385.997 226.9 390.002C227.976 387.204 228.063 383.805 226.906 380.499C224.635 374.011 218.424 370.325 213.046 372.273C207.667 374.221 205.144 381.07 207.415 387.558C208.347 390.219 209.942 392.41 211.87 393.933Z" fill="black"/>
<path d="M247.632 317.293C267.001 317.293 282.702 301.322 282.702 281.62C282.702 261.918 267.001 245.946 247.632 245.946C228.262 245.946 212.561 261.918 212.561 281.62C212.561 301.322 228.262 317.293 247.632 317.293Z" fill="black"/>
<path fill-rule="evenodd" clip-rule="evenodd" d="M619.602 168.369C600.675 204.846 562.999 229.723 519.654 229.723C457.298 229.723 406.664 178.223 406.664 114.789C406.664 76.1875 425.414 42.006 454.167 21.1863L519.654 114.789L619.602 168.369Z" fill="#E5734E"/>
<path fill-rule="evenodd" clip-rule="evenodd" d="M519.681 114.789L454.193 21.1872C470.59 9.26311 490.262 1.71406 511.561 0.18457L519.681 114.789Z" fill="#FFBB22"/>
<path fill-rule="evenodd" clip-rule="evenodd" d="M514.635 -0.009591L519.813 -0.142578C551.579 -0.142578 580.306 13.2205 600.828 34.7405L519.813 114.791L511.693 0.185922L513.223 0.0668974L514.635 -0.009591Z" fill="#A8CFCC"/>
<path fill-rule="evenodd" clip-rule="evenodd" d="M631.263 28.0049C651.059 48.6863 663.245 76.9347 663.245 108.055C663.245 127.403 658.531 145.64 650.196 161.636L550.248 108.055L631.263 28.0049Z" fill="#FFCBC4"/>
</g>
<defs>
<linearGradient id="paint0_linear_113_992" x1="827.777" y1="591.013" x2="1110.37" y2="813.039" gradientUnits="userSpaceOnUse">
<stop stop-color="#82B5B2"/>
<stop offset="0.57" stop-color="#9AC1BB"/>
<stop offset="0.8" stop-color="#CED9CF"/>
<stop offset="1" stop-color="#FFF1E2"/>
</linearGradient>
<linearGradient id="paint1_linear_113_992" x1="208.324" y1="626.687" x2="-45.6696" y2="691.531" gradientUnits="userSpaceOnUse">
<stop stop-color="#FFBB22"/>
<stop offset="0.47" stop-color="#FEB019"/>
<stop offset="1" stop-color="#FD9500"/>
</linearGradient>
<clipPath id="clip0_113_992">
<rect width="1033.29" height="787" fill="white" transform="translate(0.705078)"/>
</clipPath>
</defs>
</svg>
