<svg width="3139" height="2131" viewBox="0 0 3139 2131" fill="none" xmlns="http://www.w3.org/2000/svg">
<path fill-rule="evenodd" clip-rule="evenodd" d="M1773.68 2121.11V1040.16H1720.44V2121.11H1773.68ZM2808.46 2121.11V1040.16H2755.22V2121.11H2808.46Z" fill="#BABEC2"/>
<path fill-rule="evenodd" clip-rule="evenodd" d="M1773.68 1133.45L1720.44 1134.6V1040.16H1773.68V1133.45ZM2808.46 1043.63V1111.12L2755.22 1112.26V1043.44L2808.46 1043.63Z" fill="black"/>
<path d="M3046.39 1016.75H1486.13V1057.62H3046.39V1016.75Z" fill="#BABEC2"/>
<path fill-rule="evenodd" clip-rule="evenodd" d="M1508.24 1018.27C1527.43 937.531 1594.29 877.866 1673.73 877.866C1753.16 877.866 1820.02 937.531 1839.21 1018.27H1508.24Z" fill="#B9D8D6"/>
<path fill-rule="evenodd" clip-rule="evenodd" d="M1779.97 1018.28C1753.57 956.625 1711.98 944.088 1711.98 944.088C1708.47 943.072 1706.43 939.393 1707.44 935.879C1708.47 932.364 1712.14 930.336 1715.66 931.352C1715.66 931.352 1765.3 945.147 1794.33 1018.28H1779.97Z" fill="#82B5B2"/>
<path fill-rule="evenodd" clip-rule="evenodd" d="M1834.29 1018.27C1839.21 1116.62 1850.92 1271.5 1879.76 1353.37C1886.1 1371.38 1893.18 1385.75 1901.38 1394.81C1908.08 1402.24 1915.43 1405.82 1923.83 1403.45C1931.94 1401.16 1940.3 1395.25 1948.13 1387.39C1947.76 1386.86 1947.41 1386.33 1947.07 1385.78C1936.83 1369.81 1931.41 1344.74 1931.85 1322.77C1932.09 1310.75 1934.09 1299.67 1937.79 1291.4C1941.07 1284.04 1945.76 1278.76 1951.49 1276.12C1957.46 1273.37 1964.75 1273.22 1973.36 1277.4C1994.56 1287.65 1999.16 1310.62 1992.75 1335.76C1988.19 1353.55 1978.17 1372.38 1965.92 1387.39C1967.83 1388.82 1969.88 1389.86 1972.1 1390.42C1977.57 1391.8 1983.75 1389.96 1990.81 1384.64C1996.66 1380.25 2001.6 1372.33 2006.09 1361.97C2013.5 1344.89 2019.3 1321.47 2023.92 1294.83C2042.26 1189.19 2041.75 1033.83 2042.53 1015.37C2042.68 1011.73 2045.77 1008.88 2049.44 1009.03C2053.08 1009.19 2055.93 1012.29 2055.77 1015.94C2054.99 1034.51 2055.44 1190.82 2036.98 1297.1C2032.14 1324.94 2025.99 1349.4 2018.25 1367.24C2012.65 1380.17 2006.07 1389.76 1998.78 1395.25C1987.6 1403.65 1977.52 1405.45 1968.87 1403.28C1964.65 1402.22 1960.67 1400.15 1957.04 1397.22C1947.53 1406.63 1937.22 1413.44 1927.45 1416.21C1914.16 1419.95 1902.13 1415.43 1891.54 1403.7C1882.44 1393.62 1874.31 1377.8 1867.25 1357.78C1838.03 1274.8 1826 1117.66 1821.02 1018.27H1834.29ZM1957.24 1377.03C1967.58 1363.86 1976 1347.76 1979.89 1332.48C1984.58 1314.13 1983.06 1296.82 1967.6 1289.33C1963.4 1287.31 1959.92 1286.83 1957.02 1288.17C1953.91 1289.61 1951.69 1292.77 1949.88 1296.8C1946.8 1303.71 1945.31 1312.99 1945.11 1323.03C1944.73 1341.67 1948.89 1362.92 1957.24 1377.03ZM1830.1 991.03C1831.9 992.14 1833.16 994.096 1833.26 996.383L1833.43 1000.08C1832.38 997.029 1831.27 993.996 1830.1 991.03Z" fill="#82B5B2"/>
<path d="M2295.95 1693.3C2370.24 1693.3 2430.46 1615.01 2430.46 1518.42C2430.46 1421.84 2370.24 1343.55 2295.95 1343.55C2221.65 1343.55 2161.43 1421.84 2161.43 1518.42C2161.43 1615.01 2221.65 1693.3 2295.95 1693.3Z" fill="white"/>
<path fill-rule="evenodd" clip-rule="evenodd" d="M2296.86 1324.26V1354.56C2225.51 1355.96 2169.64 1429.64 2169.64 1518.49C2169.64 1607.33 2225.51 1681.01 2296.86 1682.41V1712.73C2210.66 1711.37 2139.32 1625.64 2139.32 1518.49C2139.32 1411.33 2210.66 1325.6 2296.86 1324.26Z" fill="black"/>
<path fill-rule="evenodd" clip-rule="evenodd" d="M2297.37 1324.32L2299.5 1324.26C2386.65 1324.26 2459.18 1410.52 2459.18 1518.56C2459.18 1626.6 2386.65 1712.86 2299.5 1712.86L2297.37 1712.8V1682.47L2299.5 1682.55C2371.88 1682.55 2428.85 1608.29 2428.85 1518.56C2428.85 1428.83 2371.88 1354.56 2299.5 1354.56L2297.37 1354.63V1324.32Z" fill="black"/>
<path fill-rule="evenodd" clip-rule="evenodd" d="M2300.15 1514.54C2307.77 1514.54 2313.97 1520.72 2313.97 1528.36C2313.97 1535.98 2307.77 1542.18 2300.15 1542.18C2292.51 1542.18 2286.31 1535.98 2286.31 1528.36C2286.31 1520.72 2292.51 1514.54 2300.15 1514.54ZM2323.89 1496.41L2370.42 1406.32C2372.1 1403.07 2370.82 1399.06 2367.57 1397.38C2364.31 1395.71 2360.32 1396.99 2358.64 1400.23L2312.11 1490.33C2310.42 1493.58 2311.7 1497.59 2314.96 1499.26C2318.21 1500.93 2322.2 1499.66 2323.89 1496.41ZM2262.2 1422.24L2279.9 1492.07C2280.79 1495.61 2284.39 1497.75 2287.95 1496.86C2291.5 1495.96 2293.64 1492.35 2292.74 1488.8L2275.06 1418.99C2274.17 1415.43 2270.55 1413.29 2267.01 1414.19C2263.46 1415.08 2261.31 1418.69 2262.2 1422.24Z" fill="black"/>
<path d="M3130.81 1425.97L2948.34 1332.29L2825.03 1572.44L3007.5 1666.13L3130.81 1425.97Z" fill="#A8CFCC"/>
<path fill-rule="evenodd" clip-rule="evenodd" d="M3002.79 1634.55L3033.78 1650.44C3037.04 1652.12 3041.04 1650.82 3042.71 1647.58C3044.38 1644.31 3043.09 1640.32 3039.83 1638.65L3008.84 1622.75C3005.58 1621.1 3001.58 1622.37 2999.91 1625.64C2998.25 1628.89 2999.53 1632.9 3002.79 1634.55ZM3021.96 1597.15L3052.97 1613.03C3056.21 1614.7 3060.22 1613.41 3061.88 1610.16C3063.56 1606.91 3062.26 1602.9 3059.02 1601.25L3028.01 1585.36C3024.76 1583.68 3020.77 1584.97 3019.1 1588.22C3017.42 1591.47 3018.72 1595.48 3021.96 1597.15ZM3041.15 1559.74L3072.14 1575.63C3075.4 1577.29 3079.4 1576.01 3081.07 1572.75C3082.74 1569.5 3081.45 1565.5 3078.19 1563.83L3047.2 1547.94C3043.94 1546.27 3039.94 1547.56 3038.27 1550.81C3036.61 1554.07 3037.9 1558.06 3041.15 1559.74ZM3060.34 1522.32L3091.33 1538.21C3094.57 1539.89 3098.58 1538.59 3100.24 1535.33C3101.92 1532.08 3100.62 1528.09 3097.38 1526.41L3066.37 1510.52C3063.12 1508.85 3059.13 1510.14 3057.46 1513.39C3055.78 1516.66 3057.08 1520.65 3060.34 1522.32ZM3079.51 1484.91L3110.52 1500.8C3113.76 1502.47 3117.76 1501.18 3119.43 1497.91C3121.1 1494.67 3119.81 1490.67 3116.56 1489L3085.56 1473.11C3082.31 1471.43 3078.3 1472.73 3076.65 1475.97C3074.97 1479.24 3076.26 1483.23 3079.51 1484.91ZM3098.17 1448.5L3129.17 1464.39C3132.42 1466.07 3136.41 1464.77 3138.09 1461.53C3139.76 1458.28 3138.47 1454.27 3135.22 1452.61L3104.22 1436.72C3100.97 1435.05 3096.96 1436.34 3095.3 1439.59C3093.63 1442.83 3094.92 1446.84 3098.17 1448.5Z" fill="black"/>
<path fill-rule="evenodd" clip-rule="evenodd" d="M2530.99 1370.36L2812.01 1437.05L2797.06 1478.96L2530.99 1370.36Z" fill="white"/>
<path d="M2818.2 1466.8L2525.04 1362.18L2392 1734.99L2685.16 1839.61L2818.2 1466.8Z" fill="#F27F71"/>
<path fill-rule="evenodd" clip-rule="evenodd" d="M2798.49 1439.86L2529.08 1377.45C2525.51 1376.63 2523.29 1373.06 2524.1 1369.48C2524.93 1365.92 2528.5 1363.7 2532.06 1364.53L2808.62 1428.59C2810.44 1429.02 2812 1430.2 2812.91 1431.82C2813.82 1433.46 2814 1435.4 2813.39 1437.19L2798.31 1481.57C2797.13 1485.03 2793.37 1486.88 2789.91 1485.71C2786.45 1484.53 2784.59 1480.75 2785.77 1477.29L2798.49 1439.86Z" fill="#F27F71"/>
<path d="M3035.81 1481.16H2667.62V1921.22H3035.81V1481.16Z" fill="white"/>
<path fill-rule="evenodd" clip-rule="evenodd" d="M3002.94 1871.15H2698.56V1890.84H3002.94V1871.15ZM3002.94 1835.08H2698.56V1854.76H3002.94V1835.08ZM3002.94 1799H2698.56V1818.69H3002.94V1799ZM3002.94 1762.93H2698.56V1782.62H3002.94V1762.93ZM3002.94 1726.86H2698.56V1746.54H3002.94V1726.86ZM3002.94 1690.78H2698.56V1710.47H3002.94V1690.78ZM3002.94 1654.71H2698.56V1674.4H3002.94V1654.71ZM3002.94 1618.64H2698.56V1638.32H3002.94V1618.64ZM3002.94 1582.56H2698.56V1602.25H3002.94V1582.56ZM3002.94 1546.49H2698.56V1566.17H3002.94V1546.49ZM3002.94 1510.37H2698.56V1530.05H3002.94V1510.37Z" fill="black"/>
<path fill-rule="evenodd" clip-rule="evenodd" d="M2674.24 1914.59H2853C2856.65 1914.59 2859.63 1917.56 2859.63 1921.22C2859.63 1924.88 2856.65 1927.85 2853 1927.85H2667.61C2663.95 1927.85 2660.98 1924.88 2660.98 1921.22V1481.16C2660.98 1477.5 2663.95 1474.53 2667.61 1474.53H2843.64C2847.28 1474.53 2850.27 1477.5 2850.27 1481.16C2850.27 1484.82 2847.28 1487.79 2843.64 1487.79H2674.24V1914.59Z" fill="black"/>
<path fill-rule="evenodd" clip-rule="evenodd" d="M3028.88 1487.79H2843.34C2839.68 1487.79 2836.71 1484.82 2836.71 1481.16C2836.71 1477.5 2839.68 1474.53 2843.34 1474.53H3035.51C3039.17 1474.53 3042.14 1477.5 3042.14 1481.16V1921.22C3042.14 1924.88 3039.17 1927.85 3035.51 1927.85H2852.7C2849.04 1927.85 2846.08 1924.88 2846.08 1921.22C2846.08 1917.56 2849.04 1914.59 2852.7 1914.59H3028.88V1487.79Z" fill="black"/>
<path d="M3101.3 1540.57H2117.21V2128.64H3101.3V1540.57Z" fill="#FFD798"/>
<path fill-rule="evenodd" clip-rule="evenodd" d="M2720.15 1540.59V1803.69L2689.13 1779.28L2660.07 1803.69L2630.57 1779.28L2602.4 1803.69L2576.5 1779.28L2549.36 1803.69V1540.59H2720.15Z" fill="#F8BB61"/>
<path d="M578.443 278.011C655.188 278.011 717.401 215.797 717.401 139.052C717.401 62.3076 655.188 0.09375 578.443 0.09375C501.698 0.09375 439.484 62.3076 439.484 139.052C439.484 215.797 501.698 278.011 578.443 278.011Z" fill="#FFC3BB"/>
<path fill-rule="evenodd" clip-rule="evenodd" d="M502.243 255.245C464.449 230.392 439.484 187.615 439.484 139.052C439.484 62.3599 501.75 0.09375 578.444 0.09375C595.737 0.09375 612.299 3.26036 627.584 9.0467L554.973 151.67C549.554 142.474 539.31 136.267 527.579 136.267C510.196 136.267 496.085 149.889 496.085 166.67C496.085 183.449 510.196 197.073 527.579 197.073C529.083 197.073 530.565 196.97 532.011 196.773L502.243 255.245Z" fill="black"/>
<path fill-rule="evenodd" clip-rule="evenodd" d="M547.101 15.7931C547.101 15.7931 527.438 68.2094 528.187 90.3652C528.586 102.18 538.505 111.45 550.32 111.051C562.138 110.651 571.406 100.733 571.007 88.9181C570.258 66.7624 547.101 15.7931 547.101 15.7931Z" fill="white"/>
<path fill-rule="evenodd" clip-rule="evenodd" d="M540.648 1684.44C468.825 1690.77 380.06 1691.13 275.73 1677.76C204.853 1668.68 -31.799 1594.31 27.9749 1285.09C39.7912 1223.96 99.2669 1072.89 352.068 1059.75C425.849 1055.91 941.428 996.588 1147.98 1224.25C1152.02 1228.72 1157.24 1234.69 1163.11 1242.39C1233.25 1274.22 1436.05 1384.12 1428.31 1588.03C1428.31 1588.03 1412.29 1816.44 1115.88 1914.9C1093.97 1963.96 1068.26 2016.32 1038.22 2072.08C1038.22 2072.08 1105.76 2090.14 1122.87 2128.11H601.716L632.913 2029.36L600.496 2037.02C600.188 2071.35 568.058 2105.62 540.648 2130.34V1684.44Z" fill="url(#paint0_linear_611_3)"/>
<path fill-rule="evenodd" clip-rule="evenodd" d="M609.691 2034.89L638.504 1670.08C638.792 1666.43 641.985 1663.71 645.632 1664C649.279 1664.28 652.007 1667.48 651.719 1671.12L623.243 2031.69L609.691 2034.89Z" fill="#F27F71"/>
<path fill-rule="evenodd" clip-rule="evenodd" d="M697.004 1652.88L760.675 1640.55C760.675 1640.55 784.068 1565.06 800.117 1513.24C801.092 1510.09 799.584 1506.71 796.595 1505.34C793.605 1503.96 790.059 1505.02 788.308 1507.8C753.542 1563.05 697.004 1652.88 697.004 1652.88Z" fill="#F27F71"/>
<path fill-rule="evenodd" clip-rule="evenodd" d="M540.183 1684.44C524.166 1685.85 668.837 1657.52 753.123 1632.18C758.394 1630.59 764.429 1629.7 764.429 1629.7C764.429 1629.7 762.063 1638.25 761.297 1640.58L659.73 1951.54L1101.45 1945.54C1099.38 1949.97 1097.29 1954.41 1095.17 1958.88L656.444 1964.85C656.091 1964.85 655.744 1964.81 655.406 1964.76L632.448 2029.37L619.348 2032.47L744.795 1648.42C678.548 1667.64 611.583 1684.38 540.183 1694.82V1684.44ZM1115.65 1914.82C1312.87 1495.94 1158.96 1237.56 1162.64 1242.4C1167.71 1244.7 1173.49 1247.42 1179.86 1250.55C1220.64 1329.92 1297.21 1551.98 1133.1 1908.76C1127.41 1910.83 1121.58 1912.85 1115.65 1914.82Z" fill="#F27F71"/>
<path fill-rule="evenodd" clip-rule="evenodd" d="M420.496 313.658C727.097 316.929 945.888 358.738 1201.63 379.505C1278.9 385.78 1455.94 430.086 1414.53 589.147C1398.82 649.496 1344.1 691.449 1281.75 690.967C1173.71 690.132 1026.14 688.99 1026.14 688.99C1026.14 688.99 1143.19 788.571 1386.89 792.102C1386.89 792.102 1655.54 814.876 1680.73 815.895C1725.24 817.698 1751.87 818.387 1776.29 819.784C1781.54 820.096 1786.18 823.31 1788.32 828.116C1790.46 832.923 1789.75 838.52 1786.47 842.631C1781.39 848.941 1771.19 856.07 1752.02 863.284C1717.02 876.456 1689.63 877.6 1662.72 885.525C1664.74 881.026 1706.41 920.278 1730.82 945.476C1735.68 950.558 1737.42 957.858 1735.4 964.585C1733.36 971.311 1727.86 976.423 1721 977.964C1715.73 979.162 1709.36 979.426 1701.76 978.073C1716.24 992.196 1699.32 1015.61 1653.75 992.611C1641.79 986.579 1637.66 984.905 1606.89 965.888C1606.89 965.888 1616.72 983.547 1622.49 993.92C1624.01 996.67 1624.34 999.935 1623.36 1002.93C1622.4 1005.93 1620.23 1008.4 1617.38 1009.74C1611.05 1012.69 1601.06 1013.64 1586.21 1005.87C1563.64 994.085 1548.3 987.606 1534.22 981.807C1521.22 976.461 1506.46 977.677 1494.53 985.071C1445.33 1015.44 1291.69 1086.13 1000.75 1019.74C1000.75 1019.74 826.446 996.687 598.527 849.223C592.464 825.204 309.142 1159.46 57.8224 877.573C-41.1668 766.542 -61.6428 308.515 420.496 313.658Z" fill="#FFC3BB"/>
<path fill-rule="evenodd" clip-rule="evenodd" d="M1607.01 966.547C1562.63 907.679 1531.33 906.345 1531.33 906.345C1527.68 906.287 1524.75 903.27 1524.82 899.613C1524.87 895.954 1527.88 893.033 1531.54 893.091C1531.54 893.091 1573.85 892.768 1629.36 975.097C1630.4 976.663 1630.7 978.521 1630.34 980.227C1624.65 976.91 1617.21 972.421 1606.62 965.882L1607.01 966.547ZM1701.49 978.068C1701.99 978.557 1640.79 925.241 1633.1 916.873C1606.92 888.352 1587.77 875.006 1575.08 868.885C1565.58 864.302 1559.58 864.211 1559.35 864.209C1559.43 864.201 1559.52 864.189 1559.58 864.176L1559.35 864.209C1555.84 864.665 1552.56 862.244 1551.98 858.711C1551.38 855.102 1553.83 851.69 1557.44 851.095C1557.44 851.095 1585.33 845.264 1642.88 907.905C1651.43 917.222 1693.25 956.842 1722.24 977.558C1721.74 977.71 1721.24 977.845 1720.73 977.959C1715.46 979.157 1709.1 979.42 1701.49 978.068ZM1578.49 808.082C1590.65 809.075 1602.38 810.022 1613.3 810.897C1622.71 817.627 1632.36 826.704 1641.09 838.944C1647.17 847.47 1659.05 864.781 1680.28 881.089C1674.84 882.249 1669.48 883.513 1664.14 885.029C1646.44 869.714 1635.99 854.61 1630.3 846.641C1613.22 822.69 1592.24 812.437 1578.49 808.082Z" fill="#F27F71"/>
<path fill-rule="evenodd" clip-rule="evenodd" d="M944.483 1007.51C875.227 989.264 748.658 946.08 598.961 849.223C596.215 828.916 305.374 1169.5 58.2562 877.573C-39.2218 762.42 -61.209 308.515 420.93 313.659C727.531 316.93 946.322 358.738 1202.07 379.506C1279.33 385.781 1456.37 430.086 1414.96 589.148C1399.25 649.497 1344.54 691.449 1282.18 690.967C1174.15 690.132 1026.57 688.99 1026.57 688.99C1026.57 688.99 1109.95 759.926 1282.47 784.178L1243.76 1047.09C1200.15 1048.02 1150.77 1045.34 1095.34 1037.35C1049.69 1028.29 997.342 1017.91 944.483 1007.51Z" fill="url(#paint1_linear_611_3)"/>
<path fill-rule="evenodd" clip-rule="evenodd" d="M553.133 881.92C515.572 836.93 495.992 787.2 487.205 759.67C486.556 757.363 487.581 754.912 489.679 753.756C491.777 752.599 494.397 753.04 495.999 754.82C537.698 799.868 589.414 841.827 597.543 848.347C593.369 848.614 577.624 862.621 553.133 881.92ZM1026.48 689.176L1026.49 689.195L1026.56 689.248L1026.68 689.344L1026.74 689.395L1026.79 689.447L1026.87 689.513L1027.01 689.612L1027.12 689.707L1027.22 689.793L1027.31 689.862L1027.42 689.955L1027.62 690.108L1027.77 690.234L1027.85 690.295L1027.95 690.368L1028.25 690.601L1028.45 690.764L1028.5 690.807L1028.56 690.852L1029.06 691.244L1029.24 691.382L1029.26 691.395C1029.53 691.601 1029.81 691.818 1030.11 692.046L1030.17 692.086L1030.45 692.303L1030.97 692.696L1031.08 692.779C1031.35 692.981 1031.65 693.191 1031.93 693.409L1031.98 693.437L1032.03 693.48C1032.71 693.977 1033.44 694.512 1034.21 695.08L1034.36 695.18L1034.7 695.425L1034.88 695.549L1034.93 695.591L1035.08 695.697L1035.37 695.902L1035.52 696.015L1035.62 696.085L1035.84 696.232L1036.07 696.404L1036.2 696.494L1036.34 696.592L1036.62 696.786L1036.82 696.923L1036.9 696.986L1037.08 697.109L1037.43 697.356L1037.58 697.458L1037.63 697.491L1037.81 697.622L1038.27 697.942L1038.37 698.01C960.626 649.179 821.668 545.744 730.124 474.704C726.512 471.9 725.854 466.691 728.657 463.078C731.461 459.466 736.669 458.81 740.283 461.614C834.954 535.081 980.627 643.522 1055.59 689.218L1026.24 688.991L1026.43 689.148L1026.48 689.176ZM1067.74 439.254L1295.96 445.731C1300.52 445.86 1304.34 442.254 1304.48 437.684C1304.59 433.113 1301 429.297 1296.42 429.167L1068.2 422.69C1063.63 422.559 1059.82 426.165 1059.68 430.736C1059.55 435.307 1063.16 439.123 1067.74 439.254Z" fill="#AC2310"/>
<path fill-rule="evenodd" clip-rule="evenodd" d="M837.347 464.542C803.977 388.077 647.266 323.113 647.266 323.113L710.821 328.25C781.495 360.363 833.663 416.19 854.182 440.525C862.005 441.574 881.47 444.542 881.788 448.131C882.187 452.625 884.9 528.079 884.9 528.079C884.651 528.202 884.404 528.323 884.159 528.44L886.35 528.583C925.5 601.042 911.255 703.749 967.137 765.478C984.834 785.023 1007.98 803.391 1033.3 811.802C1062.71 821.57 1093.25 821.123 1123.78 819.33C1131.85 818.856 1151.45 817.428 1161.31 816.7C1164.97 816.434 1168.5 818.067 1170.67 821.027C1179.12 832.561 1200.74 862.096 1211.27 876.451C1214.68 881.106 1214.22 887.547 1210.17 891.664C1195.67 906.423 1162.83 939.864 1151.66 951.215C1149.24 953.68 1145.78 954.812 1142.37 954.247C1135.9 953.253 1125.61 951.581 1121.75 950.467C1099.3 943.983 1077.16 936.381 1055.57 927.431C993.798 901.84 928.485 861.5 901.586 797.727C885.873 760.476 883.495 720.717 883.667 680.834C883.818 645.675 887.929 608.679 880.59 573.972C877.737 560.474 871.394 547.833 865.137 535.644C864.992 535.362 864.414 534.424 863.683 533.199C834.225 532.142 820.614 494.526 820.614 494.526L837.347 464.542Z" fill="black"/>
<path fill-rule="evenodd" clip-rule="evenodd" d="M1134.46 689.337L1074.63 423.062C1074.63 423.062 1017.79 419.68 984.052 413.601C984.052 413.601 901.293 386.689 843.198 405.836C833.751 408.949 804.581 424.912 784.713 463.262C776.417 479.272 803.762 489.668 835.292 463.262C841.738 457.863 854.118 451.601 866.996 450.526C866.996 450.526 826.769 482.003 866.996 508.417C866.996 508.417 858.743 536.451 893.608 542.29C893.608 542.29 888.422 584.203 952.403 624.623C970.73 636.209 1113.02 693.99 1134.46 689.337Z" fill="#FFC3BB"/>
<path fill-rule="evenodd" clip-rule="evenodd" d="M882.054 539.078C887.369 523.744 899.07 514.582 910.356 509.222C923.407 503.021 935.765 502.037 935.765 502.037C939.41 501.737 942.608 504.453 942.906 508.098C943.205 511.746 940.487 514.949 936.842 515.249C936.842 515.249 926.813 516.271 916.044 521.196C899.252 528.874 893.408 542.296 893.408 542.296C888.955 541.551 885.205 540.444 882.054 539.078ZM857.203 500.577C864.406 488.07 875.6 479.984 886.939 474.852C905.532 466.434 924.328 466.079 924.328 466.079C927.985 466.007 931.014 468.916 931.087 472.573C931.16 476.232 928.25 479.26 924.593 479.334C924.593 479.334 908.417 479.679 892.405 486.928C882.229 491.533 866.796 508.423 866.796 508.423C862.87 505.845 859.71 503.218 857.203 500.577ZM844 457.44C844.119 456.316 844.527 455.208 845.243 454.232C865.8 426.144 910.901 424.331 910.901 424.331C914.558 424.213 917.623 427.083 917.743 430.74C917.862 434.395 914.99 437.461 911.333 437.58C911.333 437.58 897.363 438.059 882.372 443.628C873.815 446.808 866.796 450.532 866.796 450.532C858.509 451.223 850.428 454.063 844 457.44Z" fill="#F27F71"/>
<path fill-rule="evenodd" clip-rule="evenodd" d="M431.75 313.649C431.75 313.649 497.353 317.5 591.421 372.371C620.696 389.447 692.275 436.937 779.164 463.605C812.165 473.733 828.171 466.22 839.311 469.563L826.915 499.112C826.915 499.112 771.424 493.356 750.546 485.818C750.546 485.818 487.981 320.528 431.75 313.649Z" fill="black"/>
<path d="M684.182 1684.96H62.6016V2128.64H684.182V1684.96Z" fill="#FFD798"/>
<path fill-rule="evenodd" clip-rule="evenodd" d="M183.975 2128.66H170.719V1684.96H183.975V2128.66ZM475.012 1684.96V1915.04L436.657 1887.69L398.759 1915.04V1684.96H475.012ZM148.069 1684.96V1838.65L117.707 1792.4L96.8633 1811.95V1684.96H148.069Z" fill="#F8BB61"/>
<path fill-rule="evenodd" clip-rule="evenodd" d="M2296.32 792.339H1867.43V99.4775H2908.63V792.339H2457.95V970.744H2516.24V1018.25H2238.51V970.744H2296.32V792.339Z" fill="#A3A8AE"/>
<path fill-rule="evenodd" clip-rule="evenodd" d="M2881.15 99.4775V792.339H2430.47V970.744H2488.77V1018.25H2238.51V970.744H2296.32V792.339H1867.43V99.4775H2881.15Z" fill="#E4E4E6"/>
<path d="M2833.28 152.459H1919.38V722.555H2833.28V152.459Z" fill="white"/>
<path fill-rule="evenodd" clip-rule="evenodd" d="M2430.41 969.296H2452.85C2451.67 970.33 2450.13 970.958 2448.46 970.958L2296.26 969.296V957.702H2430.41V969.296ZM2430.41 805.693H2296.26V792.437H2430.41V805.693Z" fill="#A3A8AE"/>
<rect x="2263.74" y="517.972" width="252.487" height="36.9062" transform="rotate(-45 2263.74 517.972)" fill="#F27F71"/>
<rect x="2289.84" y="339.437" width="252.487" height="36.9062" transform="rotate(45 2289.84 339.437)" fill="#F27F71"/>
<defs>
<linearGradient id="paint0_linear_611_3" x1="665.651" y1="1232.28" x2="2108.24" y2="1741.89" gradientUnits="userSpaceOnUse">
<stop stop-color="#FFC3BB"/>
<stop offset="1" stop-color="#F27F71"/>
</linearGradient>
<linearGradient id="paint1_linear_611_3" x1="433.44" y1="404.964" x2="-411.737" y2="900.802" gradientUnits="userSpaceOnUse">
<stop stop-color="#F27F71"/>
<stop offset="0.58" stop-color="#EC6E5F"/>
<stop offset="0.8" stop-color="#E04B39"/>
<stop offset="1" stop-color="#D52914"/>
</linearGradient>
</defs>
</svg>
