<svg width="528" height="347" viewBox="0 0 528 347" fill="none" xmlns="http://www.w3.org/2000/svg">
<path fill-rule="evenodd" clip-rule="evenodd" d="M78.9662 273.818H170.083V282.187H81.9283L104.054 346.328H95.7393L38.468 183.836L46.104 180.969L78.9662 273.818Z" fill="black"/>
<path fill-rule="evenodd" clip-rule="evenodd" d="M12.2687 336.852C12.2687 336.852 13.3919 282.537 14.2519 240.955C14.8022 214.324 35.1756 192.621 61.0055 191.151C118.081 187.87 174.428 187.036 229.612 190.09C256.417 191.578 278.55 212.186 282.675 239.498C282.69 239.495 282.69 239.495 282.69 239.495C284.948 254.434 281.006 269.66 271.824 281.458C260.174 296.372 240.504 317.152 210.047 336.973C210.047 336.973 221.31 340.325 222.461 345.506C222.461 345.506 136.764 345.403 114.924 345.379C114.119 345.377 113.398 344.867 113.107 344.094C112.817 343.323 113.016 342.444 113.61 341.887C128.952 327.448 186.729 273.072 186.729 273.072L89.2728 274.091C89.2728 274.091 87.7074 330.19 87.3396 343.368C87.297 344.893 86.0772 346.108 84.5935 346.097C69.9467 345.991 0.0023843 345.498 0.0023843 345.498C0.0023843 345.498 -0.479767 340.232 12.2687 336.852Z" fill="url(#paint0_linear_414_302)"/>
<path fill-rule="evenodd" clip-rule="evenodd" d="M232.845 320.44L158.243 299.817L160.487 297.702L235.355 318.4C234.53 319.078 233.694 319.759 232.845 320.44ZM88.5759 296.615L12.9937 298.494L13.0482 295.852L88.6497 293.973L88.5759 296.615Z" fill="#82B5B2"/>
<path fill-rule="evenodd" clip-rule="evenodd" d="M186.631 273.19L213.148 273.126C213.402 273.126 213.617 273.316 213.655 273.575C213.694 273.834 213.545 274.082 213.302 274.161L171.191 287.722L186.631 273.19ZM89.298 274.172L88.9548 286.476L66.5877 276.109C66.1545 275.908 65.9166 275.423 66.0166 274.945C66.1168 274.465 66.5279 274.124 67.0029 274.127L89.298 274.172Z" fill="#346864"/>
<path fill-rule="evenodd" clip-rule="evenodd" d="M218.9 76.7428C218.9 76.7428 193.147 40.9392 135.214 56.5761C127.412 58.682 65.6189 78.8756 41.2424 135.611C38.8588 141.159 26.0071 166.383 44.6385 179.867C57.6379 189.279 71.577 187.534 120.419 170.703C124.552 169.278 150.011 163.741 145.409 157.687C145.409 157.687 147.463 158.115 148.449 156.707C148.449 156.707 148.562 157.433 148.646 157.969C148.703 158.335 148.871 158.673 149.126 158.935C150.294 160.134 153.8 163.733 156.006 165.998C156.386 166.386 156.94 166.533 157.455 166.38C157.969 166.23 158.364 165.802 158.485 165.264C159.136 162.376 160.085 158.17 160.085 158.17C160.085 158.17 183.255 163.348 197.22 140.099C197.22 140.099 197.802 163.063 215.065 172.332C220.107 175.04 248.103 180.791 255.45 151.061C260.586 130.267 264.339 93.1105 267.623 66.4139C267.623 66.4139 284.779 55.3248 286.076 50.0134C286.542 48.1057 284.661 44.9723 280.467 48.1411C280.467 48.1411 286.729 42.6585 284.64 40.0748C283.476 38.6377 281.095 38.5625 276.379 42.7207C276.379 42.7207 282.254 36.5252 279.57 34.0458C276.684 31.383 273.334 36.8599 270.263 39.808C270.263 39.808 277.096 29.0037 273.231 27.138C271.593 26.3475 269.824 26.248 263.86 33.9822C258.336 41.1445 250.502 41.8836 244.825 41.181C244.825 41.181 247.06 27.6864 244.499 26.3789C241.608 24.9014 239.001 27.5428 232.718 40.8128C226.515 53.9085 223.421 66.8839 218.9 76.7428Z" fill="url(#paint1_linear_414_302)"/>
<path fill-rule="evenodd" clip-rule="evenodd" d="M150.688 53.4553C195.487 47.6581 216.786 74.0277 218.713 76.5517C215.791 87.2848 210.78 110.214 210.78 110.214L205.507 110.138C205.592 123.536 197.202 139.548 197.202 139.548L197.169 140.112C183.891 162.204 162.002 158.54 159.935 158.223L160.611 154.73L158.856 149.661L158.31 148.225C158.31 148.225 160.731 144.884 162.876 141.924C164.686 139.426 164.263 135.903 161.917 133.934C157.226 129.996 150.278 124.164 150.278 124.164C150.238 124.132 150.198 124.1 150.158 124.069C144.576 119.672 137.524 117.746 130.56 118.717C115.802 120.775 86.1305 124.914 86.1305 124.914L68.2166 96.3949C89.116 75.6343 113.631 64.3214 126.685 59.4131L150.688 53.4553Z" fill="#82B5B2"/>
<path fill-rule="evenodd" clip-rule="evenodd" d="M148.54 156.76C149.039 156.134 150.691 153.772 149.21 151.492L147.125 148.896C147.125 148.896 150.05 149.33 151.238 149.214C151.238 149.214 151.075 152.229 153.493 152.753C154.155 152.894 154.837 152.639 155.257 152.094C156.424 150.585 159.038 147.192 159.038 147.192C159.038 147.192 160.495 153.667 160.758 154.838C160.785 154.957 160.786 155.08 160.76 155.2C160.52 156.318 159.248 162.244 159.248 162.244L158.567 165.263C158.446 165.802 158.051 166.229 157.537 166.38C157.022 166.533 156.468 166.385 156.088 165.997C153.882 163.733 150.376 160.133 149.208 158.935C148.953 158.673 148.785 158.335 148.728 157.968L148.54 156.76ZM138.212 118.715C138.212 118.715 147.494 120.115 153.45 126.915L149.346 106.523L135.749 106.604L138.212 118.715Z" fill="#FFBF2F"/>
<path fill-rule="evenodd" clip-rule="evenodd" d="M159.38 161.914L159.309 162.243L158.628 165.263C158.507 165.801 158.113 166.229 157.598 166.379C157.084 166.532 156.529 166.385 156.15 165.997L153.029 162.792L159.38 161.914ZM150.166 149.213C150.603 149.237 151.005 149.242 151.3 149.213C151.3 149.213 151.137 152.228 153.555 152.752C153.818 152.808 154.084 152.802 154.335 152.74L154.712 154.542L160.372 152.846L160.82 154.838C160.834 154.899 160.841 154.962 160.841 155.024L149.023 158.614C148.905 158.418 148.825 158.198 148.789 157.968L148.601 156.759C148.691 156.647 148.818 156.479 148.956 156.266L151.486 155.508L150.166 149.213ZM144.132 120.454L141.22 106.572L144.688 106.551L147.994 122.379C146.668 121.586 145.35 120.954 144.132 120.454Z" fill="black"/>
<path fill-rule="evenodd" clip-rule="evenodd" d="M145.906 159.659L138.109 159.018C137.544 158.971 137.123 158.462 137.168 157.881C137.213 157.3 137.708 156.867 138.272 156.913L147.055 157.636C146.212 157.854 145.409 157.687 145.409 157.687C145.915 158.352 146.058 159.011 145.906 159.659ZM149.438 149.704C149.51 149.648 149.59 149.602 149.678 149.566C149.678 149.566 150.66 149.17 151.707 148.747C152.939 148.249 153.855 147.158 154.153 145.83C154.153 145.83 154.153 145.83 154.153 145.829C154.763 143.121 153.665 140.308 151.404 138.787C148.836 137.06 146.088 135.211 146.088 135.211C145.614 134.893 145.48 134.238 145.79 133.75C146.099 133.262 146.735 133.125 147.209 133.444L152.323 136.883L152.46 135.686C152.526 135.107 153.036 134.693 153.598 134.761C154.16 134.829 154.562 135.354 154.496 135.933L154.202 138.5C156.018 140.585 156.786 143.488 156.151 146.306C156.151 146.306 156.151 146.306 156.151 146.307C155.7 148.313 154.317 149.961 152.455 150.713C151.409 151.135 150.426 151.532 150.426 151.532C150.061 151.679 149.663 151.596 149.384 151.35C149.125 151.55 148.779 151.62 148.449 151.508L139.7 148.536C139.163 148.353 138.87 147.756 139.048 147.202C139.225 146.649 139.805 146.348 140.343 146.531L149.091 149.503C149.222 149.547 149.339 149.616 149.438 149.704ZM211.185 98.648C211.185 98.648 203.716 130.897 202.078 145.3C202.011 145.879 202.413 146.404 202.977 146.472C203.539 146.539 204.049 146.125 204.113 145.546C205.746 131.218 213.182 99.1381 213.182 99.1381C213.313 98.5715 212.972 98.0014 212.421 97.8663C211.872 97.7311 211.318 98.0814 211.185 98.648ZM91.6898 120.687C73.9076 124.791 63.0426 128.277 57.7617 131.304C57.1437 131.658 56.9213 132.463 57.2655 133.099C57.6095 133.736 58.3905 133.964 59.0085 133.61C64.1802 130.646 74.8355 127.282 92.2506 123.262C92.9407 123.103 93.3756 122.397 93.2208 121.686C93.066 120.975 92.3801 120.528 91.6898 120.687ZM267.941 66.2045C267.733 66.3412 267.623 66.4138 267.623 66.4138C267.385 68.3466 267.144 70.3343 266.903 72.366L261.643 70.9416C261.443 70.8872 261.294 70.7133 261.269 70.5013C261.241 70.2897 261.341 70.082 261.52 69.9761L267.941 66.2045ZM284.974 40.6929C285.838 43.4399 280.468 48.1411 280.468 48.1411C280.622 48.0247 280.773 47.917 280.919 47.8175C277.174 51.3526 272.117 55.547 267.234 57.76C266.716 57.9949 266.111 57.7527 265.883 57.2192C265.655 56.6861 265.89 56.0624 266.408 55.8278C274.629 52.1016 283.346 42.5312 284.974 40.6929ZM280.27 35.8041C280.224 38.6657 276.379 42.7207 276.379 42.7207C276.661 42.47 276.938 42.2346 277.207 42.0142C273.434 45.7499 267.969 50.687 263.168 53.1972C262.663 53.4611 262.046 53.2534 261.789 52.734C261.533 52.2143 261.735 51.5785 262.24 51.3146C269.984 47.2654 279.491 36.682 280.27 35.8041ZM274.008 31.9045C272.965 35.5386 270.263 39.808 270.263 39.808C270.348 39.7277 270.433 39.6457 270.515 39.5623C267.387 42.9321 263.166 46.6214 258.416 48.4765C257.885 48.6829 257.293 48.4084 257.093 47.8637C256.893 47.3189 257.16 46.7087 257.688 46.5021C265.888 43.3003 272.393 34.2907 274.008 31.9045Z" fill="#82B5B2"/>
<path fill-rule="evenodd" clip-rule="evenodd" d="M117.626 120.526L125.554 111.861C125.91 111.471 126.464 111.347 126.945 111.55C127.427 111.753 127.737 112.241 127.725 112.777L127.589 119.137L117.626 120.526ZM205.545 111.44C205.521 110.29 205.363 103.479 204.681 98.8062C204.629 98.5853 204.747 98.3599 204.955 98.2807C205.16 98.2015 205.393 98.2936 205.493 98.4955C206.975 101.401 209.225 106.113 210.515 110.206L205.562 110.135C205.565 110.568 205.557 111.003 205.545 111.44Z" fill="#346864"/>
<path d="M148.746 45.6594C159.795 45.6594 168.753 36.4056 168.753 24.9904C168.753 13.5752 159.795 4.32129 148.746 4.32129C137.697 4.32129 128.739 13.5752 128.739 24.9904C128.739 36.4056 137.697 45.6594 148.746 45.6594Z" fill="#99C3C0"/>
<path fill-rule="evenodd" clip-rule="evenodd" d="M135.445 40.425C131.331 36.6373 128.739 31.124 128.739 24.9903C128.739 13.5826 137.704 4.32129 148.746 4.32129C155.509 4.32129 161.493 7.79568 165.115 13.1105L148.731 28.1944C148.534 27.6 148.235 27.0204 147.83 26.4873C146.118 24.2341 143.172 23.6577 141.256 25.2009C139.34 26.7441 139.174 29.8263 140.886 32.0795C141.418 32.7797 142.069 33.3178 142.771 33.681L135.445 40.425Z" fill="black"/>
<path d="M371.415 60.78H356.127L362.578 83.644H377.866L371.415 60.78Z" fill="white"/>
<path fill-rule="evenodd" clip-rule="evenodd" d="M362.948 83.1218H367.774C368.052 83.1218 368.281 83.3555 368.28 83.6433C368.28 83.9312 368.053 84.1649 367.773 84.1649H362.568C362.344 84.1649 362.146 84.0116 362.083 83.7888L355.632 60.9247C355.587 60.7671 355.617 60.5973 355.713 60.4663C355.808 60.335 355.957 60.2578 356.118 60.2578H366.842C367.121 60.2578 367.348 60.4914 367.348 60.7793C367.348 61.0672 367.122 61.3009 366.842 61.3009H356.791L362.948 83.1218Z" fill="black"/>
<path fill-rule="evenodd" clip-rule="evenodd" d="M370.951 61.3009H366.767C366.488 61.3009 366.261 61.0672 366.261 60.7793C366.261 60.4914 366.487 60.2578 366.767 60.2578H371.331C371.555 60.2578 371.753 60.411 371.816 60.6339L378.267 83.4979C378.312 83.6556 378.282 83.8254 378.186 83.9567C378.09 84.0876 377.941 84.1649 377.783 84.1649H367.698C367.418 84.1649 367.191 83.9312 367.192 83.6433C367.192 83.3555 367.42 83.1218 367.699 83.1218H377.107L370.951 61.3009Z" fill="black"/>
<path d="M370.836 62.8325H358.179L359.027 65.3614H371.685L370.836 62.8325Z" fill="black"/>
<path d="M372.033 66.9858H359.375L360.224 69.5147H372.881L372.033 66.9858Z" fill="black"/>
<path d="M373.229 71.1367H360.572L361.421 73.6656H374.078L373.229 71.1367Z" fill="black"/>
<path d="M374.426 75.29H361.769L362.617 77.8189H375.275L374.426 75.29Z" fill="black"/>
<path d="M375.794 79.4407H363.137L363.985 81.9695H376.643L375.794 79.4407Z" fill="black"/>
<path fill-rule="evenodd" clip-rule="evenodd" d="M374.866 73.9087C374.367 72.4576 371.383 63.3768 373.687 59.521C373.844 59.27 374.092 59.0958 374.374 59.0401C375.195 58.9034 376.943 59.2594 379.416 63.3657C379.416 63.3657 401.876 98.0977 409.983 103.287C409.983 103.287 410.199 76.766 440.525 72.4299C444.734 71.8278 474.319 65.9068 490.901 108.174C496.386 122.158 496.325 133.339 496.227 145.29C496.163 154.764 491.388 163.543 483.572 168.544C473.332 175.1 460.634 176.125 449.527 171.287C442.076 168.053 432.458 164.768 421.541 163.113L397.575 160.727C397.575 160.727 398.772 167.47 388.849 166.172C388.849 166.172 381.036 165.111 382.597 159.715C382.597 159.715 377.332 158.838 378.419 153.598C378.419 153.598 373.428 149.589 377.86 144.694C377.86 144.694 363.452 144.515 360.522 137.45C360.276 136.839 360.261 136.153 360.484 135.532C360.753 134.764 361.45 133.945 363.15 133.885C363.15 133.885 383.082 133.57 388.326 132.024L376.932 112.065C376.932 112.065 368.058 107.043 366.013 99.0141C363.906 99.0241 362.117 97.3508 361.955 95.153C361.817 93.273 362.914 91.5881 364.539 90.9428L363.606 91.0154C361.402 91.1864 359.479 89.4835 359.312 87.215C359.179 85.3841 360.23 83.7409 361.799 83.085C359.671 83.1861 357.839 81.5249 357.677 79.3251C357.513 77.0851 359.146 75.1293 361.32 74.9604L374.866 73.9087Z" fill="url(#paint2_linear_414_302)"/>
<path fill-rule="evenodd" clip-rule="evenodd" d="M397.189 163.326C392.498 163.049 388.733 164.208 388.733 164.208C388.054 164.419 387.339 164.02 387.136 163.324C386.934 162.627 387.318 161.89 387.997 161.679C387.997 161.679 393.475 159.988 399.691 160.943L397.517 160.726C397.517 160.726 397.743 161.996 397.189 163.326ZM380.128 158.682C381.025 155.881 384.078 149.702 393.777 148.178C394.475 148.069 395.131 148.564 395.236 149.284C395.344 150.004 394.862 150.678 394.162 150.788C385.608 152.132 383.137 157.666 382.507 159.709C382.307 159.671 381.176 159.429 380.128 158.682ZM376.511 151.181C377.765 148.428 381.182 143.955 390.363 142.194C391.058 142.061 391.729 142.534 391.858 143.25C391.988 143.966 391.527 144.655 390.832 144.789C379.377 146.986 378.326 153.764 378.362 153.598C378.362 153.598 377.216 152.678 376.511 151.181ZM374.622 144.465C376.122 142.464 380.869 136.894 387.874 135.861C388.574 135.757 389.225 136.259 389.325 136.98C389.425 137.701 388.938 138.37 388.238 138.473C383.306 139.201 379.692 142.529 377.785 144.704C377.547 144.699 376.311 144.655 374.622 144.465ZM449.17 131.108L464.819 136.772C465.485 137.013 466.218 136.652 466.454 135.964C466.687 135.277 466.336 134.523 465.67 134.282L450.021 128.617C449.352 128.376 448.621 128.738 448.385 129.425C448.152 130.112 448.503 130.866 449.17 131.108ZM386.934 129.681C388.577 129.347 406.66 125.731 419.851 125.877C420.559 125.885 421.128 126.482 421.12 127.211C421.112 127.939 420.53 128.524 419.823 128.516C406.217 128.366 387.918 132.127 388.269 132.023L386.934 129.681ZM376.875 112.065L380.841 113.901C381.356 114.147 381.576 114.775 381.34 115.304C381.1 115.832 380.489 116.062 379.977 115.816L378.657 115.183L376.875 112.065ZM374.138 71.761C376.457 72.15 378.108 73.4256 378.708 74.4343C380.049 76.6859 379.518 78.8958 378.236 80.4699C378.318 80.8893 378.459 81.5293 378.672 82.309C378.982 82.5336 379.244 82.7675 379.462 83.0008C380.648 84.2703 380.725 85.6174 380.748 86.0331C380.774 86.534 380.73 86.9998 380.628 87.4322C381.745 89.598 383.319 91.734 385.542 92.9631C386.039 93.2387 386.226 93.8792 385.959 94.3926C385.693 94.9059 385.07 95.0989 384.57 94.8233C383.629 94.3023 382.784 93.6454 382.022 92.8987C382.025 92.9088 382.027 92.9185 382.03 92.9285C382.863 95.6093 381.528 98.5033 378.975 99.5276C375.089 101.098 369.644 101.202 366.668 101.118C366.381 100.442 366.14 99.7404 365.956 99.0137C365.694 99.0151 373.743 99.3732 378.226 97.5611C379.79 96.934 380.597 95.1519 380.061 93.5153C380.054 93.4971 380.049 93.4786 380.043 93.4601C379.659 92.3714 378.608 91.6836 377.485 91.7928L375.373 91.9984C374.968 92.1222 374.712 92.1763 374.712 92.1763C374.507 92.2196 374.302 92.1961 374.122 92.1201L362.177 93.2825C362.595 92.2186 363.426 91.3616 364.482 90.9425L374.996 89.9144C375.619 89.7115 376.56 89.3338 377.362 88.7141C378.116 88.1311 378.764 87.3152 378.7 86.1495C378.687 85.9188 378.644 85.1711 377.985 84.4658C377.17 83.5967 375.571 82.8646 372.513 82.7917C372.431 82.7899 372.351 82.778 372.277 82.7574C368.696 82.8794 365.025 82.9361 361.375 83.0844C360.035 83.0208 358.848 82.2607 358.179 81.1274C363.482 80.8173 368.896 80.7954 374.068 80.5766C374.799 80.5457 375.596 80.1577 376.234 79.5699C376.322 79.4105 376.45 79.2754 376.606 79.1812C377.401 78.2365 377.739 76.9222 376.96 75.5371C376.237 74.2538 374.809 73.9083 374.809 73.9083C374.691 73.5642 374.432 72.7911 374.138 71.761ZM380.62 92.2096C380.274 92.36 380.22 92.5171 380.195 92.568C380.249 92.488 380.315 92.4152 380.389 92.3529C380.459 92.2962 380.536 92.2479 380.62 92.2098L380.638 92.2025L380.62 92.2096ZM379.469 89.5946C379.372 89.7046 379.267 89.811 379.162 89.9134C379.405 89.9981 379.641 90.1037 379.867 90.2288C379.728 90.0192 379.597 89.8075 379.469 89.5946Z" fill="#FD9500"/>
<path fill-rule="evenodd" clip-rule="evenodd" d="M409.982 103.232L410.067 103.287C410.067 103.287 410.282 76.7657 440.608 72.4296C444.817 71.8276 474.402 65.9065 490.984 108.174C491.043 108.321 491.099 108.467 491.156 108.613C481.328 119.264 470.524 111.236 470.524 111.236C465.241 127.865 448.349 120.721 448.349 120.721L453.814 132.735C441.051 127.908 416.226 128.609 416.226 128.609C411.079 121.93 410.103 109.903 409.982 103.232Z" fill="#FD9500"/>
<path fill-rule="evenodd" clip-rule="evenodd" d="M447.825 130.96C447.825 130.96 444.528 120.005 442.155 112.126C442.05 111.773 442.224 111.395 442.555 111.255C442.888 111.116 443.27 111.261 443.434 111.591C447.635 120.049 453.969 132.795 453.969 132.795L447.825 130.96Z" fill="#E86135"/>
<path fill-rule="evenodd" clip-rule="evenodd" d="M354.13 201.889C377.925 172.17 427.199 183.194 438.046 184.667C508.252 194.198 492.68 249.726 490.142 256.818C484.57 272.382 471.154 278.402 451.132 280.495V340.901C451.132 340.901 445.021 335.282 443.616 328.9C443.616 328.9 441.207 328.747 437.039 328.317C437.039 328.317 440.21 337.177 441.879 341.844C442.109 342.482 442.019 343.195 441.64 343.752C441.263 344.311 440.646 344.644 439.984 344.644H360.261C364.603 336.483 373.152 336.552 373.152 336.552C369.812 327.937 366.367 319.56 362.976 311.009C341.142 302.027 321.889 288.693 316.017 269.006C313.738 261.368 312.392 227.762 354.13 201.889Z" fill="url(#paint3_linear_414_302)"/>
<path fill-rule="evenodd" clip-rule="evenodd" d="M365.359 316.97C373.298 321.095 387.04 324.922 396.147 309.184C396.339 308.849 396.665 308.622 397.036 308.556C397.408 308.493 397.787 308.601 398.077 308.852C398.077 308.852 403.773 313.811 410.778 316.26C414.818 317.672 419.309 318.269 423.343 316.395C426.014 315.152 428.465 312.821 430.467 308.986C430.8 308.345 431.576 308.102 432.202 308.448C432.825 308.794 433.058 309.593 432.722 310.235C430.397 314.692 427.503 317.355 424.397 318.799C419.76 320.956 414.595 320.383 409.953 318.76C404.439 316.83 399.687 313.444 397.58 311.805C388.421 326.308 375.451 324.257 366.772 320.488L366.167 318.987C365.954 318.456 365.741 317.926 365.529 317.395L365.359 316.97Z" fill="#FD9500"/>
<path fill-rule="evenodd" clip-rule="evenodd" d="M422.986 281.045C422.986 281.045 401.224 280.952 389.248 280.902C388.759 280.899 388.341 281.274 388.277 281.776C388.215 282.277 388.523 282.75 388.997 282.876C401.547 286.265 425.585 292.758 425.585 292.758L422.986 281.045Z" fill="#FD9500"/>
<path fill-rule="evenodd" clip-rule="evenodd" d="M452.7 280.322C452.18 280.383 451.66 280.441 451.132 280.496V283.072C441.576 283.69 432.722 283.843 424.089 283.722L439.776 328.585C438.977 328.511 438.059 328.424 437.039 328.318L439.325 334.71C439.195 334.576 439.087 334.41 439.02 334.217L421.349 283.677C419.734 283.642 418.127 283.6 416.52 283.55C415.815 283.529 415.259 282.919 415.279 282.193C415.3 281.465 415.892 280.892 416.597 280.913C428.096 281.27 439.73 281.227 452.7 280.322ZM360.569 195.283C345.961 208.696 340.198 223.334 344.228 248.835C346.97 266.202 354.204 288.52 366.216 318.737C366.295 318.935 366.323 319.144 366.308 319.344C365.195 316.576 364.083 313.802 362.976 311.009C361.953 310.59 360.938 310.16 359.928 309.719C350.149 284.255 344.151 264.79 341.698 249.26C338.696 230.273 340.934 217.063 347.986 205.967C349.921 204.59 351.966 203.23 354.13 201.89C356.111 199.414 358.269 197.221 360.569 195.283Z" fill="#FD9500"/>
<path d="M417.332 70.9731C427.717 70.9731 436.136 62.2402 436.136 51.4676C436.136 40.6951 427.717 31.9622 417.332 31.9622C406.946 31.9622 398.527 40.6951 398.527 51.4676C398.527 62.2402 406.946 70.9731 417.332 70.9731Z" fill="#FFBF2F"/>
<path fill-rule="evenodd" clip-rule="evenodd" d="M402.809 39.1782C406.26 34.7763 411.519 31.9615 417.41 31.9615C427.789 31.9615 436.214 40.7013 436.214 51.4668C436.214 53.6672 435.863 55.7829 435.214 57.7555C431.897 57.4565 430.013 54.9132 429.365 53.8499C430.577 53.2069 431.421 51.7896 431.421 50.1464C431.421 47.8993 429.844 46.0747 427.901 46.0747C425.958 46.0747 424.382 47.8993 424.382 50.1464C424.382 50.6774 424.469 51.1852 424.631 51.6508C412.716 52.9723 405.139 42.8445 402.809 39.1782ZM411.35 28.8569C411.837 29.0258 412.373 28.8326 412.652 28.3879C412.929 27.9434 412.881 27.3609 412.529 26.9737C412.429 26.8468 412.317 26.7233 412.199 26.5961C409.236 23.4144 405.898 20.527 402.343 18.0845C391.408 10.5701 378.379 4.94946 365.57 1.96703C352.339 -1.11357 335.823 -1.28697 324.132 6.6856C316.44 11.9302 310.688 23.0274 317.319 31.6934C319.698 34.8017 323.115 36.962 326.647 38.4167C340.945 44.3056 355.853 40.5905 369.436 34.6937C377.169 31.3363 384.859 26.8856 393.282 25.5044C398.57 24.6374 406.729 27.1717 411.35 28.8569Z" fill="black"/>
<path fill-rule="evenodd" clip-rule="evenodd" d="M483.936 281.158L519.717 181.69L527.353 184.556L470.535 345.085H460.941L480.927 289.524H424.002V281.158H483.936Z" fill="black"/>
<path d="M346.577 78.1123H239.014L251.675 155.896H359.238L346.577 78.1123Z" fill="black"/>
<path d="M318.936 152.022H294.92L298.414 173.374H322.429L318.936 152.022Z" fill="black"/>
<path d="M340.623 84.0427H246.536L257.057 148.346H351.143L340.623 84.0427Z" fill="#EAEAEB"/>
<path d="M337.661 89.7229H305.691L310.364 118.286H342.334L337.661 89.7229Z" fill="white"/>
<path fill-rule="evenodd" clip-rule="evenodd" d="M306.654 90.514L308.262 100.394C308.332 100.825 308.049 101.234 307.631 101.306C307.212 101.379 306.815 101.088 306.745 100.657L304.987 89.8537C304.949 89.6239 305.012 89.3888 305.158 89.2109C305.305 89.033 305.519 88.9304 305.745 88.9304H337.715C338.09 88.9304 338.411 89.2095 338.473 89.5907L340.231 100.394C340.301 100.825 340.018 101.234 339.6 101.306C339.181 101.379 338.785 101.088 338.715 100.657L337.064 90.514H306.654Z" fill="black"/>
<path fill-rule="evenodd" clip-rule="evenodd" d="M341.421 117.495L338.667 100.658C338.596 100.227 338.878 99.8186 339.297 99.746C339.715 99.6734 340.113 99.9643 340.183 100.395L343.089 118.155C343.126 118.385 343.064 118.62 342.918 118.798C342.771 118.975 342.557 119.078 342.331 119.078H310.361C309.986 119.078 309.665 118.799 309.603 118.418L306.697 100.658C306.627 100.227 306.909 99.8186 307.328 99.746C307.746 99.6734 308.143 99.9643 308.214 100.395L311.012 117.495H341.421Z" fill="black"/>
<path fill-rule="evenodd" clip-rule="evenodd" d="M322.041 118.286H320.482L315.779 89.7229H317.34L322.041 118.286ZM333.414 118.286H331.853L327.152 89.7229H328.71L333.414 118.286Z" fill="black"/>
<path fill-rule="evenodd" clip-rule="evenodd" d="M341.337 111.713H309.367L309.109 110.13H341.078L341.337 111.713ZM340.186 104.673H308.217L307.958 103.089H339.927L340.186 104.673ZM338.948 97.1017H306.978L306.717 95.5181H338.689L338.948 97.1017Z" fill="black"/>
<path fill-rule="evenodd" clip-rule="evenodd" d="M297.565 142.673H323.079L315.989 99.3416H297.565" fill="white"/>
<path fill-rule="evenodd" clip-rule="evenodd" d="M315.393 100.133H297.617C297.193 100.133 296.85 99.7784 296.85 99.3413C296.85 98.9043 297.195 98.5496 297.619 98.5496H316.045C316.42 98.5496 316.74 98.8286 316.802 99.2098L323.855 142.541C323.893 142.771 323.83 143.006 323.684 143.184C323.537 143.362 323.322 143.464 323.096 143.464H297.581C297.157 143.464 296.813 143.109 296.813 142.672C296.813 142.235 297.159 141.881 297.583 141.881H322.188L315.393 100.133Z" fill="black"/>
<path fill-rule="evenodd" clip-rule="evenodd" d="M297.525 99.3416H260.556L267.645 142.673H297.525" fill="white"/>
<path fill-rule="evenodd" clip-rule="evenodd" d="M268.314 141.881H297.543C297.967 141.881 298.312 142.236 298.312 142.673C298.311 143.11 297.967 143.464 297.542 143.464H267.662C267.287 143.464 266.966 143.185 266.904 142.804L259.851 99.4732C259.814 99.2435 259.877 99.0083 260.023 98.8303C260.17 98.6524 260.384 98.5498 260.61 98.5498H297.58C298.004 98.5498 298.349 98.9046 298.348 99.3415C298.347 99.7787 298.003 100.133 297.578 100.133H261.518L268.314 141.881Z" fill="black"/>
<path d="M315.95 99.3416H260.556L261.407 104.545H316.801L315.95 99.3416Z" fill="black"/>
<path fill-rule="evenodd" clip-rule="evenodd" d="M321.058 130.479H265.663L265.404 128.895H320.799L321.058 130.479ZM318.774 116.524H263.382L263.12 114.94H318.515L318.774 116.524Z" fill="black"/>
<path fill-rule="evenodd" clip-rule="evenodd" d="M281.899 142.672H280.341L273.207 99.3416H274.766L281.899 142.672ZM296.994 142.672H295.433L288.3 99.3416H289.861L296.994 142.672ZM311.9 142.672H310.341L303.208 99.3416H304.766L311.9 142.672Z" fill="black"/>
<path d="M317.091 124.436C317.124 124.869 317.043 125.27 316.849 125.639C316.645 125.999 316.344 126.297 315.928 126.532C315.511 126.758 315.007 126.9 314.416 126.948C313.703 127.005 313.112 126.921 312.63 126.687C312.294 126.522 312.003 126.282 311.778 125.977C311.543 125.672 311.419 125.369 311.396 125.067C311.383 124.886 311.431 124.731 311.553 124.6C311.663 124.459 311.809 124.387 311.999 124.371C312.15 124.359 312.284 124.399 312.401 124.481C312.519 124.572 312.621 124.716 312.706 124.901C312.814 125.125 312.928 125.308 313.05 125.45C313.162 125.592 313.322 125.711 313.521 125.796C313.729 125.88 313.983 125.91 314.294 125.885C314.726 125.851 315.069 125.722 315.325 125.499C315.58 125.276 315.692 125.014 315.669 124.713C315.65 124.472 315.566 124.286 315.404 124.148C315.252 124.008 315.053 123.913 314.816 123.851C314.579 123.789 314.262 123.734 313.874 123.674C313.353 123.595 312.911 123.489 312.548 123.356C312.185 123.224 311.897 123.024 311.665 122.76C311.443 122.495 311.317 122.161 311.285 121.739C311.255 121.347 311.338 120.986 311.525 120.658C311.723 120.338 312.016 120.072 312.405 119.879C312.803 119.675 313.279 119.556 313.83 119.511C314.272 119.476 314.657 119.495 314.986 119.58C315.315 119.665 315.598 119.794 315.822 119.958C316.046 120.121 316.211 120.3 316.327 120.493C316.443 120.686 316.507 120.873 316.522 121.064C316.535 121.235 316.487 121.401 316.376 121.541C316.257 121.692 316.112 121.775 315.931 121.789C315.76 121.803 315.637 121.773 315.541 121.699C315.443 121.616 315.343 121.493 315.228 121.31C315.077 121.049 314.901 120.851 314.709 120.715C314.517 120.578 314.22 120.521 313.809 120.555C313.437 120.585 313.143 120.689 312.925 120.879C312.706 121.058 312.601 121.269 312.619 121.5C312.63 121.641 312.68 121.768 312.768 121.862C312.856 121.966 312.963 122.039 313.109 122.108C313.255 122.167 313.4 122.216 313.544 122.255C313.688 122.284 313.923 122.325 314.25 122.38C314.659 122.448 315.038 122.519 315.377 122.603C315.707 122.697 315.999 122.815 316.242 122.958C316.485 123.1 316.681 123.296 316.831 123.537C316.98 123.778 317.063 124.075 317.091 124.436Z" fill="black"/>
<path fill-rule="evenodd" clip-rule="evenodd" d="M312.892 119.177L313.985 127.387C314.043 127.82 314.43 128.123 314.85 128.064C315.272 128.004 315.565 127.604 315.509 127.171L314.416 118.961C314.36 118.528 313.971 118.225 313.551 118.284C313.129 118.344 312.836 118.744 312.892 119.177Z" fill="black"/>
<path fill-rule="evenodd" clip-rule="evenodd" d="M267.747 107.078L268.627 112.341C268.698 112.772 269.098 113.061 269.516 112.987C269.934 112.913 270.216 112.503 270.142 112.073L269.262 106.81C269.191 106.379 268.793 106.09 268.376 106.164C267.958 106.238 267.676 106.647 267.747 107.078Z" fill="black"/>
<path fill-rule="evenodd" clip-rule="evenodd" d="M272.535 133.968L273.414 139.231C273.486 139.662 273.885 139.951 274.303 139.877C274.721 139.803 275.003 139.393 274.929 138.963L274.05 133.7C273.978 133.269 273.58 132.98 273.163 133.054C272.745 133.128 272.463 133.538 272.535 133.968Z" fill="black"/>
<path fill-rule="evenodd" clip-rule="evenodd" d="M285.472 120.624C285.707 120.589 285.904 120.788 286.094 121.034C286.409 121.436 286.64 122.025 286.735 122.697C286.829 123.368 286.77 124.001 286.579 124.479C286.465 124.769 286.331 125.018 286.097 125.053C285.676 125.116 285.386 125.518 285.447 125.95C285.508 126.383 285.897 126.683 286.317 126.62C286.91 126.532 287.435 126.146 287.8 125.508C288.217 124.774 288.426 123.666 288.257 122.469C288.088 121.273 287.582 120.272 286.98 119.69C286.454 119.185 285.844 118.969 285.252 119.057C284.831 119.12 284.541 119.522 284.602 119.955C284.663 120.387 285.052 120.687 285.472 120.624Z" fill="black"/>
<path fill-rule="evenodd" clip-rule="evenodd" d="M286.097 125.053C285.865 125.088 285.665 124.889 285.476 124.644C285.163 124.241 284.932 123.652 284.837 122.981C284.742 122.309 284.802 121.677 284.99 121.199C285.104 120.908 285.24 120.659 285.473 120.625C285.893 120.562 286.186 120.16 286.125 119.727C286.064 119.295 285.672 118.995 285.252 119.058C284.66 119.146 284.137 119.532 283.772 120.17C283.353 120.904 283.146 122.011 283.315 123.208C283.483 124.405 283.987 125.406 284.592 125.988C285.117 126.492 285.725 126.709 286.318 126.621C286.738 126.558 287.031 126.156 286.97 125.723C286.909 125.291 286.517 124.991 286.097 125.053Z" fill="black"/>
<path fill-rule="evenodd" clip-rule="evenodd" d="M287.524 134.52C287.759 134.485 287.956 134.684 288.146 134.93C288.46 135.332 288.692 135.921 288.787 136.593C288.881 137.264 288.822 137.897 288.632 138.375C288.517 138.665 288.383 138.914 288.149 138.949C287.728 139.012 287.438 139.413 287.499 139.846C287.56 140.278 287.949 140.579 288.37 140.516C288.962 140.428 289.488 140.041 289.852 139.404C290.269 138.67 290.478 137.562 290.309 136.365C290.14 135.169 289.634 134.168 289.031 133.586C288.506 133.081 287.895 132.865 287.303 132.953C286.883 133.016 286.592 133.418 286.653 133.85C286.714 134.283 287.104 134.583 287.524 134.52Z" fill="black"/>
<path fill-rule="evenodd" clip-rule="evenodd" d="M288.149 138.949C287.916 138.984 287.717 138.785 287.527 138.54C287.215 138.137 286.983 137.548 286.889 136.877C286.794 136.205 286.853 135.573 287.042 135.095C287.156 134.804 287.292 134.555 287.524 134.521C287.945 134.458 288.237 134.056 288.176 133.623C288.115 133.191 287.724 132.891 287.304 132.954C286.711 133.042 286.188 133.428 285.824 134.066C285.404 134.8 285.198 135.907 285.366 137.104C285.535 138.301 286.039 139.302 286.644 139.884C287.169 140.388 287.777 140.605 288.369 140.517C288.79 140.454 289.082 140.052 289.021 139.619C288.96 139.187 288.569 138.887 288.149 138.949Z" fill="black"/>
<path fill-rule="evenodd" clip-rule="evenodd" d="M302.569 134.512C302.804 134.477 303.001 134.676 303.191 134.922C303.506 135.324 303.737 135.913 303.832 136.585C303.926 137.256 303.867 137.888 303.677 138.367C303.563 138.657 303.429 138.906 303.194 138.941C302.774 139.003 302.483 139.405 302.544 139.838C302.605 140.27 302.995 140.571 303.415 140.508C304.007 140.42 304.533 140.033 304.897 139.396C305.314 138.662 305.523 137.554 305.354 136.357C305.185 135.161 304.679 134.16 304.076 133.578C303.551 133.073 302.941 132.857 302.348 132.945C301.928 133.008 301.638 133.41 301.699 133.842C301.76 134.275 302.149 134.575 302.569 134.512Z" fill="black"/>
<path fill-rule="evenodd" clip-rule="evenodd" d="M303.194 138.941C302.961 138.976 302.762 138.777 302.572 138.532C302.26 138.129 302.028 137.54 301.934 136.869C301.839 136.197 301.898 135.565 302.087 135.087C302.201 134.796 302.337 134.547 302.57 134.513C302.99 134.45 303.282 134.048 303.221 133.615C303.161 133.183 302.769 132.883 302.349 132.946C301.756 133.034 301.233 133.42 300.869 134.058C300.45 134.792 300.243 135.899 300.411 137.096C300.58 138.293 301.084 139.294 301.689 139.876C302.214 140.38 302.822 140.597 303.415 140.509C303.835 140.446 304.127 140.043 304.066 139.611C304.006 139.179 303.614 138.879 303.194 138.941Z" fill="black"/>
<path d="M285.652 30.4287L255.769 17.7136L238.6 56.4179L268.483 69.1331L285.652 30.4287Z" fill="#DD6140"/>
<path d="M281.3 33.3382L256.624 22.8298L254.393 27.8616L279.07 38.37L281.3 33.3382Z" fill="white"/>
<path fill-rule="evenodd" clip-rule="evenodd" d="M255.803 32.3337C256.843 32.7972 257.343 34.0067 256.909 35.0385C256.475 36.0704 255.276 36.5228 254.236 36.0593L253.931 36.7858C255.366 37.4256 257.014 36.7781 257.614 35.3527C258.213 33.9273 257.544 32.247 256.108 31.6072L255.803 32.3337Z" fill="white"/>
<path fill-rule="evenodd" clip-rule="evenodd" d="M254.267 36.0572C253.227 35.594 252.728 34.385 253.162 33.3532C253.596 32.3215 254.795 31.8689 255.835 32.3321L256.14 31.6057C254.702 30.9653 253.054 31.613 252.454 33.0382C251.855 34.4634 252.524 36.1433 253.962 36.7837L254.267 36.0572Z" fill="white"/>
<path fill-rule="evenodd" clip-rule="evenodd" d="M253.238 38.5722C254.278 39.0358 254.778 40.2452 254.344 41.277C253.91 42.3089 252.712 42.7613 251.672 42.2978L251.366 43.0244C252.802 43.6642 254.45 43.0166 255.049 41.5912C255.648 40.1659 254.979 38.4855 253.543 37.8457L253.238 38.5722Z" fill="white"/>
<path fill-rule="evenodd" clip-rule="evenodd" d="M251.703 42.2958C250.662 41.8326 250.163 40.6235 250.597 39.5918C251.031 38.56 252.23 38.1075 253.27 38.5707L253.575 37.8442C252.138 37.2038 250.489 37.8515 249.889 39.2767C249.29 40.7019 249.959 42.3818 251.397 43.0222L251.703 42.2958Z" fill="white"/>
<path fill-rule="evenodd" clip-rule="evenodd" d="M250.502 44.8081C251.542 45.2716 252.042 46.481 251.608 47.5129C251.175 48.5447 249.976 48.9972 248.936 48.5336L248.631 49.2602C250.066 49.9 251.714 49.2525 252.313 47.8271C252.913 46.4017 252.243 44.7213 250.808 44.0815L250.502 44.8081Z" fill="white"/>
<path fill-rule="evenodd" clip-rule="evenodd" d="M248.967 48.5314C247.927 48.0681 247.427 46.8591 247.861 45.8274C248.296 44.7956 249.494 44.3431 250.534 44.8063L250.84 44.0798C249.402 43.4394 247.754 44.0871 247.154 45.5123C246.554 46.9375 247.224 48.6174 248.662 49.2578L248.967 48.5314Z" fill="white"/>
<path fill-rule="evenodd" clip-rule="evenodd" d="M247.938 51.0461C248.978 51.5096 249.478 52.7191 249.044 53.7509C248.61 54.7828 247.412 55.2352 246.372 54.7717L246.066 55.4982C247.502 56.138 249.15 55.4905 249.749 54.0651C250.348 52.6397 249.679 50.9594 248.243 50.3196L247.938 51.0461Z" fill="white"/>
<path fill-rule="evenodd" clip-rule="evenodd" d="M246.402 54.7696C245.362 54.3064 244.863 53.0974 245.297 52.0656C245.731 51.0339 246.93 50.5813 247.97 51.0446L248.275 50.3181C246.837 49.6777 245.189 50.3254 244.589 51.7506C243.99 53.1758 244.659 54.8557 246.097 55.4961L246.402 54.7696Z" fill="white"/>
<path fill-rule="evenodd" clip-rule="evenodd" d="M261.957 35.0649C262.997 35.5284 263.497 36.7379 263.063 37.7697C262.63 38.8016 261.431 39.254 260.391 38.7905L260.086 39.517C261.521 40.1568 263.169 39.5093 263.768 38.0839C264.368 36.6585 263.698 34.9782 262.263 34.3384L261.957 35.0649Z" fill="white"/>
<path fill-rule="evenodd" clip-rule="evenodd" d="M260.422 38.7887C259.382 38.3255 258.882 37.1164 259.317 36.0847C259.751 35.053 260.949 34.6004 261.99 35.0636L262.295 34.3371C260.857 33.6967 259.209 34.3445 258.609 35.7697C258.01 37.1949 258.679 38.8747 260.117 39.5152L260.422 38.7887Z" fill="white"/>
<path fill-rule="evenodd" clip-rule="evenodd" d="M259.393 41.3037C260.433 41.7672 260.933 42.9766 260.499 44.0085C260.065 45.0403 258.867 45.4928 257.827 45.0292L257.521 45.7558C258.957 46.3956 260.604 45.7481 261.204 44.3227C261.803 42.8973 261.134 41.217 259.698 40.5771L259.393 41.3037Z" fill="white"/>
<path fill-rule="evenodd" clip-rule="evenodd" d="M257.858 45.0272C256.817 44.564 256.318 43.3549 256.752 42.3232C257.186 41.2915 258.385 40.8389 259.425 41.3021L259.73 40.5757C258.293 39.9353 256.644 40.583 256.045 42.0082C255.445 43.4334 256.114 45.1133 257.552 45.7537L257.858 45.0272Z" fill="white"/>
<path fill-rule="evenodd" clip-rule="evenodd" d="M256.657 47.539C257.697 48.0026 258.197 49.212 257.763 50.2438C257.33 51.2757 256.131 51.7281 255.091 51.2646L254.786 51.9912C256.221 52.631 257.869 51.9834 258.468 50.558C259.068 49.1327 258.398 47.4523 256.963 46.8125L256.657 47.539Z" fill="white"/>
<path fill-rule="evenodd" clip-rule="evenodd" d="M255.122 51.2628C254.082 50.7996 253.582 49.5905 254.017 48.5588C254.451 47.5271 255.649 47.0745 256.689 47.5377L256.995 46.8113C255.557 46.1708 253.909 46.8186 253.309 48.2438C252.71 49.669 253.379 51.3489 254.817 51.9893L255.122 51.2628Z" fill="white"/>
<path fill-rule="evenodd" clip-rule="evenodd" d="M254.093 53.7776C255.133 54.2411 255.633 55.4505 255.199 56.4824C254.765 57.5142 253.566 57.9666 252.527 57.5031L252.221 58.2297C253.657 58.8695 255.304 58.2219 255.904 56.7966C256.503 55.3712 255.834 53.6908 254.398 53.051L254.093 53.7776Z" fill="white"/>
<path fill-rule="evenodd" clip-rule="evenodd" d="M252.558 57.5011C251.517 57.0379 251.018 55.8288 251.452 54.7971C251.886 53.7654 253.085 53.3128 254.125 53.776L254.43 53.0495C252.992 52.4091 251.344 53.0569 250.744 54.4821C250.145 55.9073 250.814 57.5871 252.252 58.2276L252.558 57.5011Z" fill="white"/>
<path fill-rule="evenodd" clip-rule="evenodd" d="M268.112 37.7966C269.152 38.2601 269.652 39.4695 269.218 40.5014C268.784 41.5333 267.586 41.9857 266.546 41.5222L266.24 42.2487C267.676 42.8885 269.324 42.241 269.923 40.8156C270.522 39.3902 269.853 37.7099 268.417 37.0701L268.112 37.7966Z" fill="white"/>
<path fill-rule="evenodd" clip-rule="evenodd" d="M266.577 41.5201C265.537 41.0569 265.037 39.8479 265.471 38.8161C265.905 37.7844 267.104 37.3318 268.144 37.795L268.45 37.0686C267.012 36.4282 265.363 37.0759 264.764 38.5011C264.164 39.9263 264.833 41.6062 266.271 42.2466L266.577 41.5201Z" fill="white"/>
<path fill-rule="evenodd" clip-rule="evenodd" d="M265.377 44.0346C266.417 44.4982 266.917 45.7076 266.483 46.7394C266.049 47.7713 264.851 48.2237 263.811 47.7602L263.505 48.4868C264.941 49.1266 266.589 48.479 267.188 47.0536C267.787 45.6283 267.118 43.9479 265.682 43.3081L265.377 44.0346Z" fill="white"/>
<path fill-rule="evenodd" clip-rule="evenodd" d="M263.842 47.7584C262.802 47.2952 262.302 46.0861 262.736 45.0544C263.17 44.0227 264.369 43.5701 265.409 44.0333L265.715 43.3069C264.277 42.6665 262.628 43.3142 262.029 44.7394C261.429 46.1646 262.098 47.8445 263.536 48.4849L263.842 47.7584Z" fill="white"/>
<path fill-rule="evenodd" clip-rule="evenodd" d="M262.812 50.2702C263.852 50.7338 264.352 51.9432 263.918 52.975C263.484 54.0069 262.286 54.4593 261.246 53.9958L260.941 54.7224C262.376 55.3622 264.024 54.7146 264.623 53.2892C265.222 51.8639 264.553 50.1835 263.118 49.5437L262.812 50.2702Z" fill="white"/>
<path fill-rule="evenodd" clip-rule="evenodd" d="M261.277 53.9938C260.237 53.5306 259.737 52.3215 260.171 51.2898C260.605 50.258 261.804 49.8055 262.844 50.2687L263.15 49.5422C261.712 48.9018 260.064 49.5495 259.464 50.9747C258.864 52.3999 259.533 54.0798 260.971 54.7202L261.277 53.9938Z" fill="white"/>
<path fill-rule="evenodd" clip-rule="evenodd" d="M260.248 56.5088C261.288 56.9723 261.788 58.1817 261.354 59.2136C260.92 60.2454 259.721 60.6978 258.682 60.2343L258.376 60.9609C259.812 61.6007 261.459 60.9531 262.059 59.5278C262.658 58.1024 261.989 56.422 260.553 55.7822L260.248 56.5088Z" fill="white"/>
<path fill-rule="evenodd" clip-rule="evenodd" d="M258.712 60.2325C257.672 59.7693 257.173 58.5603 257.607 57.5285C258.041 56.4968 259.24 56.0442 260.28 56.5074L260.585 55.781C259.147 55.1406 257.499 55.7883 256.899 57.2135C256.3 58.6387 256.969 60.3186 258.407 60.959L258.712 60.2325Z" fill="white"/>
<path fill-rule="evenodd" clip-rule="evenodd" d="M274.267 40.5276C275.307 40.9911 275.807 42.2005 275.373 43.2324C274.939 44.2642 273.741 44.7166 272.701 44.2531L272.395 44.9797C273.831 45.6195 275.479 44.9719 276.078 43.5466C276.677 42.1212 276.008 40.4408 274.573 39.801L274.267 40.5276Z" fill="white"/>
<path fill-rule="evenodd" clip-rule="evenodd" d="M272.732 44.2511C271.692 43.7879 271.192 42.5788 271.626 41.5471C272.06 40.5154 273.259 40.0628 274.299 40.526L274.605 39.7995C273.167 39.1591 271.518 39.8069 270.919 41.2321C270.319 42.6573 270.988 44.3371 272.426 44.9776L272.732 44.2511Z" fill="white"/>
<path fill-rule="evenodd" clip-rule="evenodd" d="M271.531 46.7637C272.571 47.2272 273.071 48.4366 272.637 49.4684C272.204 50.5003 271.005 50.9527 269.965 50.4892L269.66 51.2158C271.095 51.8556 272.743 51.208 273.342 49.7826C273.942 48.3573 273.272 46.6769 271.837 46.0371L271.531 46.7637Z" fill="white"/>
<path fill-rule="evenodd" clip-rule="evenodd" d="M269.996 50.4872C268.956 50.024 268.456 48.8149 268.891 47.7832C269.325 46.7515 270.523 46.2989 271.564 46.7621L271.869 46.0356C270.431 45.3952 268.783 46.0429 268.183 47.4681C267.584 48.8933 268.253 50.5732 269.691 51.2136L269.996 50.4872Z" fill="white"/>
<path fill-rule="evenodd" clip-rule="evenodd" d="M268.967 53.0022C270.007 53.4657 270.507 54.6751 270.073 55.707C269.639 56.7388 268.441 57.1913 267.401 56.7277L267.095 57.4543C268.531 58.0941 270.179 57.4465 270.778 56.0212C271.377 54.5958 270.708 52.9154 269.272 52.2756L268.967 53.0022Z" fill="white"/>
<path fill-rule="evenodd" clip-rule="evenodd" d="M267.432 56.7257C266.392 56.2625 265.892 55.0534 266.326 54.0217C266.76 52.99 267.959 52.5374 268.999 53.0006L269.305 52.2742C267.867 51.6337 266.218 52.2815 265.619 53.7067C265.019 55.1319 265.688 56.8118 267.126 57.4522L267.432 56.7257Z" fill="white"/>
<path fill-rule="evenodd" clip-rule="evenodd" d="M266.402 59.2407C267.442 59.7042 267.942 60.9136 267.508 61.9455C267.075 62.9773 265.876 63.4298 264.836 62.9663L264.531 63.6928C265.966 64.3326 267.614 63.6851 268.213 62.2597C268.812 60.8343 268.143 59.154 266.708 58.5142L266.402 59.2407Z" fill="white"/>
<path fill-rule="evenodd" clip-rule="evenodd" d="M264.867 62.964C263.827 62.5008 263.327 61.2917 263.761 60.26C264.195 59.2283 265.394 58.7757 266.434 59.2389L266.74 58.5124C265.302 57.872 263.654 58.5198 263.054 59.945C262.454 61.3702 263.123 63.05 264.561 63.6904L264.867 62.964Z" fill="white"/>
<path d="M446.341 172.536H102.752V182.551H446.341V172.536Z" fill="black"/>
<path fill-rule="evenodd" clip-rule="evenodd" d="M348.832 167.222H353.212V165.332H360.051V167.222H364.714V165.332H371.552V167.222H376.218V165.332H383.056V167.222H384.512C385.181 167.222 385.822 167.496 386.296 167.984C386.768 168.47 387.035 169.13 387.035 169.819V172.453H337.492C337.492 172.453 337.492 171.133 337.492 169.819C337.492 169.13 337.758 168.47 338.23 167.984C338.704 167.496 339.345 167.222 340.014 167.222H341.993V165.332H348.832V167.222Z" fill="#D2D3D5"/>
<path d="M179.312 166.165H119.165V173.232H179.312V166.165Z" fill="white"/>
<path fill-rule="evenodd" clip-rule="evenodd" d="M151.703 165.007V167.119H120.532V171.661H151.703V173.772H119.506C118.94 173.772 118.481 173.3 118.481 172.717V166.063C118.481 165.48 118.94 165.007 119.506 165.007H151.703Z" fill="black"/>
<path fill-rule="evenodd" clip-rule="evenodd" d="M151.723 165.007H180.204C180.771 165.007 181.23 165.48 181.23 166.063V172.717C181.23 173.3 180.771 173.772 180.204 173.772H151.723C150.769 172.738 151.133 172.16 151.723 171.661H179.179V167.119H151.723C151.334 166.34 151.239 165.617 151.723 165.007Z" fill="black"/>
<path fill-rule="evenodd" clip-rule="evenodd" d="M155.411 166.384L155.578 173.014C155.593 173.597 156.064 174.056 156.63 174.043C157.196 174.027 157.643 173.542 157.629 172.958L157.461 166.329C157.446 165.748 156.975 165.286 156.409 165.302C155.843 165.318 155.396 165.803 155.411 166.384ZM168.285 163.296V172.607C168.285 173.191 168.744 173.663 169.31 173.663C169.876 173.663 170.335 173.191 170.335 172.607V163.296C170.335 162.713 169.876 162.24 169.31 162.24C168.744 162.24 168.285 162.713 168.285 163.296ZM161.967 163.449V172.008C161.967 172.592 162.426 173.064 162.992 173.064C163.558 173.064 164.017 172.592 164.017 172.008V163.449C164.017 162.866 163.558 162.393 162.992 162.393C162.426 162.393 161.967 162.866 161.967 163.449ZM174.311 163.388V171.784C174.311 172.365 174.77 172.84 175.336 172.84C175.903 172.84 176.362 172.365 176.362 171.784V163.388C176.362 162.808 175.903 162.333 175.336 162.333C174.77 162.333 174.311 162.808 174.311 163.388Z" fill="black"/>
<path fill-rule="evenodd" clip-rule="evenodd" d="M194.176 116.017H192.361C191.351 116.017 190.531 115.172 190.531 114.132C190.531 113.092 191.351 112.248 192.361 112.248H237.88C238.892 112.248 239.71 113.092 239.71 114.132C239.71 115.172 238.892 116.017 237.88 116.017H237.034C237.954 116.35 238.803 116.893 239.505 117.618C240.74 118.888 241.433 120.611 241.433 122.408V172.464H189.775C189.775 172.464 189.775 137.479 189.775 122.408C189.775 120.611 190.47 118.888 191.702 117.618C192.407 116.893 193.253 116.35 194.176 116.017Z" fill="#FFF4E5"/>
<path fill-rule="evenodd" clip-rule="evenodd" d="M237.057 116.016C237.713 116.253 238.331 116.597 238.887 117.037L190.972 118.547C191.195 118.217 191.446 117.905 191.725 117.617C192.43 116.892 193.276 116.349 194.199 116.016H237.057Z" fill="#F4978B"/>
<path d="M207.966 124.74L191.314 129.937L200.063 159.66L216.716 154.463L207.966 124.74Z" fill="#F4978B"/>
<path fill-rule="evenodd" clip-rule="evenodd" d="M204.221 139.044C206.175 139.044 207.761 140.678 207.761 142.69C207.761 144.702 206.175 146.335 204.221 146.335C203.796 146.335 203.452 146.69 203.452 147.127C203.452 147.564 203.796 147.919 204.221 147.919C207.023 147.919 209.299 145.576 209.299 142.69C209.299 139.804 207.023 137.46 204.221 137.46C203.796 137.46 203.452 137.815 203.452 138.252C203.452 138.689 203.796 139.044 204.221 139.044Z" fill="#DE6647"/>
<path fill-rule="evenodd" clip-rule="evenodd" d="M204.256 146.335C202.3 146.335 200.716 144.702 200.716 142.69C200.716 140.678 202.3 139.044 204.256 139.044C204.679 139.044 205.025 138.689 205.025 138.252C205.025 137.815 204.679 137.46 204.256 137.46C201.452 137.46 199.178 139.804 199.178 142.69C199.178 145.576 201.452 147.919 204.256 147.919C204.679 147.919 205.025 147.564 205.025 147.127C205.025 146.69 204.679 146.335 204.256 146.335Z" fill="#DE6647"/>
<path fill-rule="evenodd" clip-rule="evenodd" d="M205.886 157.833L204.558 153.648C204.384 153.095 204.679 152.498 205.214 152.317C205.753 152.137 206.332 152.439 206.509 152.993L207.849 157.22L205.886 157.833ZM208.647 156.971L207.752 153.993C207.585 153.437 207.888 152.845 208.429 152.673C208.97 152.501 209.544 152.812 209.71 153.369L210.61 156.359L208.647 156.971ZM202.131 126.551L203.579 131.371C203.746 131.928 203.443 132.52 202.902 132.692C202.361 132.864 201.787 132.552 201.621 131.995L200.167 127.163L202.131 126.551ZM198.919 127.553L200.137 131.208C200.321 131.759 200.034 132.36 199.498 132.549C198.963 132.738 198.381 132.444 198.196 131.892L196.956 128.166L198.919 127.553Z" fill="#DE6647"/>
<path d="M240.608 142.097L223.798 137.468L216.005 167.472L232.814 172.101L240.608 142.097Z" fill="#F4978B"/>
<path fill-rule="evenodd" clip-rule="evenodd" d="M230.308 152.253C231.967 153.313 232.478 155.563 231.447 157.273C230.416 158.982 228.232 159.508 226.572 158.447C226.211 158.216 225.737 158.331 225.513 158.702C225.289 159.074 225.399 159.561 225.761 159.793C228.141 161.314 231.275 160.56 232.754 158.108C234.232 155.656 233.499 152.429 231.119 150.907C230.757 150.676 230.284 150.791 230.06 151.162C229.836 151.534 229.946 152.021 230.308 152.253Z" fill="#DE6647"/>
<path fill-rule="evenodd" clip-rule="evenodd" d="M226.471 158.447C224.81 157.385 224.301 155.137 225.331 153.427C226.362 151.718 228.545 151.19 230.207 152.252C230.566 152.482 231.042 152.369 231.265 151.997C231.489 151.626 231.377 151.137 231.018 150.907C228.635 149.384 225.503 150.14 224.025 152.592C222.546 155.044 223.278 158.269 225.66 159.792C226.019 160.022 226.495 159.909 226.719 159.537C226.943 159.166 226.83 158.677 226.471 158.447Z" fill="#DE6647"/>
<path fill-rule="evenodd" clip-rule="evenodd" d="M222.027 169.104L223.043 164.827C223.178 164.262 223.734 163.916 224.282 164.053C224.832 164.192 225.169 164.764 225.036 165.33L224.009 169.65L222.027 169.104ZM224.814 169.871L225.579 166.855C225.723 166.292 226.283 165.953 226.831 166.101C227.379 166.248 227.707 166.825 227.563 167.388L226.796 170.417L224.814 169.871ZM234.862 140.488L233.623 145.37C233.48 145.933 232.919 146.272 232.372 146.124C231.824 145.977 231.496 145.4 231.64 144.836L232.88 139.942L234.862 140.488ZM231.62 139.595L230.782 143.361C230.657 143.929 230.105 144.284 229.553 144.154C229.001 144.023 228.658 143.457 228.783 142.889L229.638 139.049L231.62 139.595Z" fill="#DE6647"/>
<path d="M224.365 134.358C227.794 134.358 230.574 131.496 230.574 127.965C230.574 124.435 227.794 121.572 224.365 121.572C220.936 121.572 218.156 124.435 218.156 127.965C218.156 131.496 220.936 134.358 224.365 134.358Z" fill="#FFCF84"/>
<path fill-rule="evenodd" clip-rule="evenodd" d="M224.362 123.893C226.606 123.893 228.429 125.77 228.429 128.082C228.429 130.394 226.606 132.271 224.362 132.271C224.147 132.271 223.969 132.451 223.969 132.673C223.969 132.895 224.147 133.076 224.362 133.076C227.038 133.076 229.21 130.838 229.21 128.082C229.21 125.326 227.038 123.088 224.362 123.088C224.147 123.088 223.969 123.268 223.969 123.49C223.969 123.712 224.147 123.893 224.362 123.893Z" fill="#FDA92F"/>
<path fill-rule="evenodd" clip-rule="evenodd" d="M224.374 132.271C222.128 132.271 220.305 130.394 220.305 128.082C220.305 125.77 222.128 123.893 224.374 123.893C224.587 123.893 224.762 123.712 224.762 123.49C224.762 123.268 224.587 123.088 224.374 123.088C221.696 123.088 219.523 125.326 219.523 128.082C219.523 130.838 221.696 133.076 224.374 133.076C224.587 133.076 224.762 132.895 224.762 132.673C224.762 132.451 224.587 132.271 224.374 132.271Z" fill="#FDA92F"/>
<path fill-rule="evenodd" clip-rule="evenodd" d="M223.356 134.289L223.412 132.76C223.42 132.538 223.602 132.365 223.817 132.374C224.035 132.382 224.202 132.57 224.194 132.792L224.135 134.358C223.871 134.352 223.61 134.328 223.356 134.289ZM225.629 134.208L225.247 132.646C225.196 132.431 225.322 132.212 225.532 132.158C225.74 132.104 225.952 132.235 226.006 132.45L226.38 133.984C226.137 134.074 225.886 134.149 225.629 134.208ZM219.116 131.516L220.285 130.565C220.454 130.427 220.7 130.457 220.834 130.632C220.967 130.806 220.939 131.059 220.769 131.197L219.59 132.155C219.421 131.953 219.262 131.739 219.116 131.516ZM218.327 129.788L219.788 128.972C219.977 128.867 220.216 128.939 220.318 129.134C220.421 129.33 220.349 129.574 220.159 129.68L218.601 130.55C218.493 130.304 218.404 130.049 218.327 129.788ZM230.42 128.911L229.01 128.843C228.795 128.833 228.628 128.645 228.639 128.423C228.649 128.201 228.831 128.029 229.046 128.039L230.487 128.108C230.482 128.38 230.459 128.648 230.42 128.911ZM228.623 123.401C228.81 123.589 228.985 123.789 229.149 124L228.003 125.211C227.852 125.371 227.606 125.374 227.452 125.219C227.296 125.064 227.293 124.809 227.444 124.65L228.623 123.401ZM221.187 122.424L222.202 123.984C222.323 124.169 222.274 124.419 222.095 124.543C221.915 124.666 221.672 124.617 221.554 124.432L220.536 122.868C220.741 122.706 220.959 122.558 221.187 122.424ZM224.819 121.597C225.081 121.621 225.34 121.661 225.594 121.717L225.44 123.314C225.417 123.535 225.224 123.697 225.012 123.675C224.796 123.653 224.64 123.456 224.66 123.235L224.819 121.597Z" fill="#FDA92F"/>
<path d="M207.678 141.384C207.289 144.892 209.735 148.061 213.142 148.462C216.549 148.862 219.626 146.343 220.015 142.835C220.404 139.327 217.958 136.159 214.551 135.758C211.144 135.357 208.067 137.876 207.678 141.384Z" fill="#FFCF84"/>
<path fill-rule="evenodd" clip-rule="evenodd" d="M217.848 142.654C217.593 144.949 215.575 146.6 213.344 146.338C211.113 146.076 209.509 143.998 209.763 141.703C209.788 141.482 209.634 141.28 209.42 141.255C209.206 141.229 209.011 141.391 208.987 141.612C208.683 144.348 210.596 146.825 213.256 147.138C215.915 147.45 218.321 145.482 218.624 142.745C218.649 142.524 218.495 142.322 218.281 142.297C218.066 142.271 217.872 142.433 217.848 142.654Z" fill="#FDA92F"/>
<path fill-rule="evenodd" clip-rule="evenodd" d="M209.599 141.705C209.854 139.407 211.872 137.755 214.103 138.017C216.334 138.28 217.939 140.357 217.684 142.655C217.66 142.873 217.814 143.073 218.028 143.098C218.242 143.123 218.436 142.965 218.46 142.746C218.764 140.007 216.852 137.531 214.192 137.218C211.533 136.905 209.127 138.874 208.823 141.613C208.799 141.831 208.953 142.031 209.167 142.056C209.381 142.081 209.575 141.923 209.599 141.705Z" fill="#FDA92F"/>
<path fill-rule="evenodd" clip-rule="evenodd" d="M207.903 140.447L209.372 140.678C209.585 140.711 209.732 140.917 209.699 141.136C209.666 141.358 209.466 141.507 209.253 141.474L207.748 141.236C207.784 140.967 207.836 140.702 207.903 140.447ZM207.724 142.782L209.274 142.568C209.487 142.54 209.684 142.693 209.713 142.915C209.741 143.133 209.591 143.336 209.377 143.367L207.855 143.575C207.795 143.316 207.751 143.051 207.724 142.782ZM211.06 136.424L211.845 137.728C211.959 137.916 211.902 138.165 211.719 138.281C211.535 138.398 211.294 138.34 211.181 138.152L210.389 136.837C210.604 136.686 210.828 136.548 211.06 136.424ZM212.817 135.812L213.438 137.4C213.519 137.606 213.422 137.841 213.222 137.924C213.022 138.007 212.794 137.906 212.713 137.7L212.05 136.006C212.3 135.924 212.556 135.861 212.817 135.812ZM212.291 148.284L212.516 146.849C212.551 146.63 212.751 146.481 212.964 146.517C213.177 146.552 213.322 146.758 213.288 146.977L213.058 148.443C212.796 148.407 212.541 148.353 212.291 148.284ZM217.812 147.071C217.609 147.241 217.396 147.396 217.174 147.54L216.135 146.231C215.999 146.058 216.023 145.806 216.19 145.666C216.357 145.524 216.604 145.55 216.74 145.723L217.812 147.071ZM219.599 139.574L217.977 140.436C217.786 140.538 217.55 140.46 217.451 140.262C217.352 140.065 217.427 139.821 217.619 139.721L219.243 138.858C219.376 139.086 219.495 139.326 219.599 139.574ZM219.984 143.384C219.931 143.649 219.863 143.909 219.78 144.162L218.256 143.824C218.046 143.775 217.912 143.56 217.957 143.345C218.003 143.127 218.211 142.989 218.422 143.036L219.984 143.384Z" fill="#FDA92F"/>
<path d="M195.963 170.032C198.476 172.435 202.405 172.285 204.738 169.697C207.071 167.11 206.925 163.065 204.412 160.662C201.899 158.26 197.971 158.41 195.638 160.998C193.305 163.585 193.45 167.63 195.963 170.032Z" fill="#FFCF84"/>
<path fill-rule="evenodd" clip-rule="evenodd" d="M202.867 162.421C204.511 163.992 204.607 166.645 203.079 168.339C201.551 170.034 198.975 170.132 197.331 168.561C197.172 168.409 196.923 168.417 196.776 168.58C196.63 168.742 196.641 168.999 196.799 169.15C198.759 171.025 201.83 170.907 203.652 168.887C205.473 166.867 205.359 163.705 203.399 161.831C203.241 161.68 202.991 161.687 202.845 161.85C202.698 162.013 202.709 162.269 202.867 162.421Z" fill="#FDA92F"/>
<path fill-rule="evenodd" clip-rule="evenodd" d="M197.349 168.559C195.702 166.985 195.607 164.332 197.135 162.638C198.663 160.943 201.239 160.845 202.885 162.419C203.041 162.568 203.289 162.558 203.435 162.396C203.582 162.233 203.573 161.978 203.417 161.829C201.454 159.953 198.384 160.071 196.562 162.09C194.741 164.11 194.854 167.272 196.817 169.148C196.973 169.298 197.22 169.288 197.367 169.125C197.514 168.963 197.505 168.708 197.349 168.559Z" fill="#FDA92F"/>
<path fill-rule="evenodd" clip-rule="evenodd" d="M195.332 169.332L196.383 168.252C196.536 168.094 196.784 168.095 196.936 168.252C197.09 168.411 197.088 168.665 196.936 168.822L195.857 169.929C195.668 169.739 195.492 169.539 195.332 169.332ZM197.052 170.866L197.804 169.454C197.909 169.26 198.145 169.187 198.335 169.295C198.523 169.401 198.592 169.646 198.49 169.841L197.75 171.228C197.512 171.123 197.278 171.002 197.052 170.866ZM194.058 164.33L195.542 164.452C195.757 164.47 195.918 164.664 195.9 164.885C195.883 165.106 195.695 165.272 195.48 165.254L193.983 165.13C193.992 164.864 194.017 164.596 194.058 164.33ZM194.621 162.51L196.23 162.936C196.439 162.992 196.566 163.212 196.512 163.427C196.458 163.642 196.244 163.77 196.035 163.715L194.318 163.261C194.402 163.005 194.504 162.756 194.621 162.51ZM204.063 170.34L203.074 169.303C202.923 169.145 202.926 168.89 203.08 168.735C203.234 168.579 203.481 168.581 203.632 168.739L204.642 169.799C204.459 169.994 204.265 170.174 204.063 170.34ZM206.387 165.043C206.4 165.312 206.396 165.581 206.376 165.851L204.736 165.936C204.52 165.946 204.337 165.777 204.327 165.555C204.315 165.332 204.481 165.144 204.697 165.133L206.387 165.043ZM201.584 159.118L201.296 160.973C201.262 161.192 201.062 161.341 200.848 161.306C200.635 161.271 200.489 161.064 200.525 160.846L200.813 158.987C201.07 159.012 201.328 159.056 201.584 159.118ZM204.791 161.057C204.968 161.257 205.131 161.468 205.28 161.687L204.111 162.75C203.948 162.896 203.701 162.879 203.559 162.714C203.416 162.547 203.432 162.293 203.593 162.145L204.791 161.057Z" fill="#FDA92F"/>
<path d="M234.952 172.084C238.321 171.424 240.532 168.078 239.892 164.609C239.252 161.141 236.002 158.863 232.633 159.523C229.264 160.182 227.052 163.528 227.693 166.997C228.333 170.466 231.583 172.743 234.952 172.084Z" fill="#FFCF84"/>
<path fill-rule="evenodd" clip-rule="evenodd" d="M233.05 161.786C235.254 161.355 237.385 162.848 237.804 165.119C238.223 167.391 236.773 169.586 234.569 170.017C234.357 170.058 234.215 170.27 234.256 170.488C234.296 170.706 234.503 170.849 234.715 170.807C237.343 170.293 239.072 167.677 238.572 164.969C238.072 162.262 235.532 160.481 232.904 160.995C232.692 161.037 232.55 161.248 232.59 161.466C232.63 161.684 232.838 161.827 233.05 161.786Z" fill="#FDA92F"/>
<path fill-rule="evenodd" clip-rule="evenodd" d="M234.674 170.018C232.467 170.45 230.336 168.957 229.916 166.685C229.497 164.414 230.947 162.219 233.154 161.787C233.363 161.746 233.503 161.535 233.462 161.317C233.422 161.099 233.217 160.956 233.008 160.997C230.377 161.512 228.649 164.128 229.149 166.835C229.649 169.543 232.189 171.324 234.82 170.809C235.029 170.768 235.168 170.557 235.128 170.339C235.088 170.121 234.883 169.977 234.674 170.018Z" fill="#FDA92F"/>
<path fill-rule="evenodd" clip-rule="evenodd" d="M233.946 172.193L233.725 170.68C233.692 170.461 233.839 170.256 234.052 170.223C234.268 170.189 234.466 170.341 234.498 170.561L234.724 172.111C234.464 172.155 234.203 172.183 233.946 172.193ZM236.165 171.676L235.507 170.215C235.417 170.013 235.501 169.774 235.698 169.681C235.892 169.588 236.125 169.675 236.217 169.876L236.863 171.311C236.64 171.447 236.407 171.569 236.165 171.676ZM229.278 170.284L230.254 169.125C230.395 168.957 230.643 168.939 230.805 169.085C230.968 169.23 230.986 169.484 230.845 169.652L229.86 170.821C229.657 170.654 229.462 170.475 229.278 170.284ZM228.189 168.738L229.477 167.656C229.644 167.516 229.891 167.541 230.028 167.713C230.164 167.885 230.137 168.139 229.97 168.279L228.597 169.434C228.447 169.213 228.312 168.98 228.189 168.738ZM239.911 165.551L238.514 165.756C238.3 165.787 238.103 165.634 238.072 165.414C238.042 165.194 238.19 164.991 238.403 164.959L239.831 164.75C239.875 165.018 239.901 165.285 239.911 165.551ZM237.146 160.483C237.364 160.632 237.572 160.795 237.771 160.971L236.865 162.381C236.746 162.567 236.505 162.618 236.325 162.495C236.144 162.373 236.095 162.123 236.215 161.938L237.146 160.483ZM229.664 160.953L230.944 162.291C231.096 162.449 231.094 162.704 230.94 162.86C230.786 163.016 230.538 163.015 230.388 162.856L229.105 161.515C229.277 161.317 229.464 161.129 229.664 160.953ZM233.082 159.443C233.343 159.416 233.605 159.405 233.865 159.412L234.003 161.011C234.021 161.232 233.861 161.428 233.648 161.447C233.433 161.467 233.243 161.303 233.223 161.082L233.082 159.443Z" fill="#FDA92F"/>
<path fill-rule="evenodd" clip-rule="evenodd" d="M218.408 171.642L188.331 225.571H175.96C175.96 225.571 172.159 233.932 177.919 236.994H234.657C234.716 236.994 234.772 236.999 234.831 237.007C235.961 237.092 242.418 236.902 247.527 223.272C255.827 201.134 264.239 188.362 272.737 171.642H218.408Z" fill="#E9E9EB"/>
<path d="M206.139 221.281C211.064 222.003 216.338 218.569 217.918 213.611C219.497 208.653 216.784 204.048 211.859 203.327C206.933 202.605 201.659 206.039 200.079 210.997C198.5 215.955 201.213 220.559 206.139 221.281Z" fill="white"/>
<path d="M266.055 174.507L219.352 173.997L217.353 177.752L264.056 178.262L266.055 174.507Z" fill="#BABDC2"/>
<path d="M262.855 181.434L215.933 181L213.94 184.759L260.862 185.193L262.855 181.434Z" fill="#BABDC2"/>
<path d="M259.245 188.958L212.172 187.698L210.119 191.42L257.192 192.681L259.245 188.958Z" fill="#BABDC2"/>
<path d="M255.58 196.416L208.752 194.326L206.642 198.011L253.469 200.1L255.58 196.416Z" fill="#BABDC2"/>
<path d="M250.504 204.151L225.507 202.853L223.754 206.447L248.751 207.745L250.504 204.151Z" fill="#BABDC2"/>
<path d="M246.32 211.762L229.44 210.717L227.978 214.328L244.859 215.373L246.32 211.762Z" fill="#BABDC2"/>
<path d="M242.944 219.414L220.549 217.696L219.326 221.324L241.721 223.042L242.944 219.414Z" fill="#BABDC2"/>
<path fill-rule="evenodd" clip-rule="evenodd" d="M189.533 223.552H230.06C230.107 223.552 230.153 223.557 230.199 223.562C230.635 223.623 231.001 223.868 231.17 224.439C231.252 224.713 231.26 225.259 231.155 225.998C230.783 228.646 229.125 235.326 235.764 236.981C235.372 237.025 235.077 237.018 234.908 237.007C234.849 236.999 234.792 236.994 234.733 236.994H231.265C231.04 236.788 230.832 236.571 230.64 236.347C228.302 233.613 228.553 229.654 228.933 227.001C228.997 226.545 229.061 226.051 229.109 225.663L188.407 225.571L189.533 223.552Z" fill="black"/>
<path d="M204.845 214.068C205.544 215.002 206.536 215.589 207.826 215.864C209.375 216.157 210.312 215.787 210.687 214.764C210.965 213.925 210.619 213.315 209.647 212.935C209.187 212.775 208.693 212.609 208.155 212.417C207.195 212.056 206.535 211.535 206.188 210.874C205.829 210.194 205.795 209.444 206.068 208.621C206.394 207.639 206.988 206.913 207.885 206.451C208.749 205.982 209.795 205.87 211.013 206.097C212.48 206.424 213.627 207.076 214.459 208.036L212.995 209.247C212.299 208.516 211.419 208.019 210.362 207.791C209.814 207.681 209.307 207.715 208.853 207.911C208.381 208.104 208.046 208.476 207.85 209.011C207.74 209.344 207.778 209.655 207.955 209.978C208.131 210.3 208.505 210.561 209.049 210.788C209.349 210.899 209.776 211.052 210.32 211.228C211.385 211.593 212.072 212.136 212.398 212.86C212.713 213.565 212.748 214.315 212.48 215.123C211.716 217.267 209.958 218.081 207.242 217.572C205.498 217.223 204.161 216.398 203.241 215.116L204.845 214.068Z" fill="black"/>
<path fill-rule="evenodd" clip-rule="evenodd" d="M211.361 204.639L205.415 218.506L206.791 218.938L212.789 204.949L211.361 204.639Z" fill="black"/>
<path fill-rule="evenodd" clip-rule="evenodd" d="M338.008 201.408C337.339 200.653 336.447 200.233 335.722 200.724C333.174 202.448 331.436 204.287 328.937 206.079C321.211 211.622 310.373 213.166 305.583 222.258C300.725 231.47 300.479 242.758 296.158 252.331C290.336 265.232 282.003 276.678 275.831 289.389C268.187 305.122 256.283 339.623 256.283 339.623C252.438 339.565 233.478 342.112 221.951 343.944C221.512 344.013 221.202 344.419 221.236 344.873C221.269 345.33 221.638 345.681 222.081 345.681C249.257 345.681 328.942 345.681 347.479 345.681C348.425 345.681 349.299 345.161 349.774 344.319C350.248 343.477 350.253 342.437 349.781 341.592C347.408 337.319 343.299 334.815 338.723 333.648C335.204 332.751 331.808 333.191 328.263 333.5C328.129 333.511 327.96 333.534 327.858 333.426C327.832 333.4 327.796 333.352 327.781 333.321C326.84 331.31 327.342 319.892 327.373 317.324C327.504 306.624 327.968 295.893 328.86 285.23C329.147 281.807 329.742 271.965 329.742 271.965C329.742 271.965 337.734 270.832 340.028 270.297C345.677 268.982 350.291 265.216 353.521 260.317C358.312 253.051 358.622 243.183 360.791 234.917C362.603 227.996 365.994 222.604 368.893 216.257C370.398 212.963 369.867 208.096 366.389 206.325C362.987 204.591 359.422 208.215 357.281 210.532C350.471 217.917 350.122 228.078 344.304 235.402C340.177 240.594 331.851 241.546 331.851 241.546C331.851 241.546 331.595 235.215 331.851 233.457C333.135 224.66 337.952 219.067 339.913 210.973C340.479 208.629 340.159 203.825 338.008 201.408Z" fill="#DD6140"/>
<path fill-rule="evenodd" clip-rule="evenodd" d="M318.772 275.616C322.479 273.666 329.692 271.966 329.692 271.966C329.692 271.966 329.502 275.117 329.284 278.472C326.503 277.434 323.017 277.128 319.167 277.194C318.793 277.2 318.462 276.938 318.37 276.566C318.275 276.191 318.441 275.798 318.772 275.616Z" fill="black"/>
<path fill-rule="evenodd" clip-rule="evenodd" d="M322.52 213.173L324.166 214.422C324.622 214.767 325.266 214.667 325.602 214.197C325.937 213.73 325.84 213.068 325.384 212.722L323.738 211.473C323.282 211.128 322.641 211.228 322.305 211.695C321.969 212.165 322.064 212.827 322.52 213.173Z" fill="black"/>
<path fill-rule="evenodd" clip-rule="evenodd" d="M327.695 332.912C327.626 332.801 327.577 332.677 327.549 332.539C325.417 321.375 322.561 313.734 319.329 308.664C316.23 303.803 312.808 301.367 309.383 300.501C302.475 298.751 295.68 303.285 291.899 306.455C290.177 307.896 288.875 309.306 288.875 309.306C288.677 309.556 288.37 309.709 288.031 309.694C287.467 309.665 287.029 309.168 287.057 308.588C287.057 308.572 287.034 308.252 287.357 307.886C287.575 307.64 288.754 306.368 290.605 304.816C294.757 301.332 302.28 296.529 309.873 298.45C313.7 299.419 317.578 302.069 321.044 307.506C323.348 311.119 325.481 315.988 327.306 322.452C327.231 326.345 327.224 331.127 327.695 332.912ZM309.891 218.492C309.891 218.492 306.569 227.086 304.521 232.391C303.293 235.563 304.575 239.179 307.494 240.797C308.825 241.539 310.173 242.088 311.536 242.433C313.387 242.908 315.348 242.476 316.85 241.267C318.355 240.055 319.231 238.2 319.231 236.234C319.231 229.58 319.231 218.88 319.231 218.88C319.231 218.299 318.773 217.824 318.206 217.824C317.642 217.824 317.181 218.299 317.181 218.88C317.181 218.88 317.181 229.58 317.181 236.234C317.181 237.551 316.594 238.791 315.586 239.601C314.582 240.414 313.269 240.702 312.029 240.385C310.826 240.079 309.642 239.593 308.468 238.939C306.461 237.828 305.585 235.347 306.425 233.172C308.476 227.867 311.798 219.271 311.798 219.271C312.006 218.73 311.749 218.115 311.224 217.901C310.696 217.684 310.101 217.948 309.891 218.492ZM331.84 239.438C331.871 240.649 331.907 241.546 331.907 241.546C331.907 241.546 332.071 241.528 332.366 241.483C331.099 241.75 329.928 241.863 328.828 241.853C328.262 241.847 327.808 241.37 327.813 240.789C327.818 240.206 328.28 239.736 328.846 239.741C329.779 239.749 330.771 239.654 331.84 239.438ZM368.603 208.294C368.985 208.888 369.267 209.553 369.454 210.252C365.56 213.155 362.648 217.576 362.51 217.838C362.241 218.35 361.618 218.54 361.12 218.262C360.623 217.985 360.439 217.344 360.708 216.832C360.862 216.536 364.191 211.477 368.603 208.294ZM364.806 205.876C365.352 205.908 365.901 206.048 366.444 206.325C366.67 206.438 366.883 206.568 367.085 206.708C365.429 208.006 362.064 210.962 358.611 215.861C358.28 216.33 357.637 216.436 357.181 216.093C356.722 215.752 356.619 215.09 356.953 214.62C359.941 210.379 362.876 207.523 364.806 205.876ZM332.373 203.371C333.437 202.474 334.506 201.585 335.777 200.724C336.503 200.233 337.395 200.653 338.064 201.408C338.571 201.978 338.976 202.68 339.294 203.453C336.382 206.565 333.165 204.074 332.373 203.371Z" fill="black"/>
<defs>
<linearGradient id="paint0_linear_414_302" x1="142.919" y1="267.155" x2="399.663" y2="120.125" gradientUnits="userSpaceOnUse">
<stop stop-color="#B8D8D5"/>
<stop offset="0.42" stop-color="#CEE0DA"/>
<stop offset="1" stop-color="#FFF0E6"/>
</linearGradient>
<linearGradient id="paint1_linear_414_302" x1="59.84" y1="82.6448" x2="-69.4892" y2="240.032" gradientUnits="userSpaceOnUse">
<stop stop-color="#B8D8D5"/>
<stop offset="0.47" stop-color="#CCDFDA"/>
<stop offset="1" stop-color="#FFF0E6"/>
</linearGradient>
<linearGradient id="paint2_linear_414_302" x1="426.957" y1="116.661" x2="506.249" y2="191.65" gradientUnits="userSpaceOnUse">
<stop stop-color="#FFBF2F"/>
<stop offset="1" stop-color="#FD9500"/>
</linearGradient>
<linearGradient id="paint3_linear_414_302" x1="479.794" y1="261.184" x2="351.774" y2="177.38" gradientUnits="userSpaceOnUse">
<stop stop-color="#FFBF2F"/>
<stop offset="0.48" stop-color="#FEB422"/>
<stop offset="1" stop-color="#FD9500"/>
</linearGradient>
</defs>
</svg>
