<svg width="1288" height="823" viewBox="0 0 1288 823" fill="none" xmlns="http://www.w3.org/2000/svg">
<path fill-rule="evenodd" clip-rule="evenodd" d="M468.434 563.923C468.434 548.049 455.541 535.162 439.669 535.162H28.7657C12.8894 535.162 0 548.049 0 563.923V791.949C0 807.823 12.8894 820.71 28.7657 820.71H439.669C455.541 820.71 468.434 807.823 468.434 791.949V563.923Z" fill="#8ABBB8"/>
<path fill-rule="evenodd" clip-rule="evenodd" d="M81.4486 765.081H33.1069V799.259H81.4486V765.081ZM256.433 701.216H32.9952V749.708H256.433V701.216ZM434.273 701.216H319.585V749.708H434.273V701.216Z" fill="white"/>
<path d="M468.433 614.788H0V681.877H468.433V614.788Z" fill="black"/>
<path fill-rule="evenodd" clip-rule="evenodd" d="M73.6278 731.266C73.4407 728.19 73.787 724.79 74.472 721.619C75.5324 716.717 77.4471 712.391 79.2318 710.476C80.7761 708.821 82.465 708.478 83.8723 708.954C85.8853 709.633 87.0751 711.434 87.2945 713.996C87.6097 717.668 85.7293 723.236 85.0335 724.828C83.4207 728.507 81.3735 731.259 79.0168 733.428C79.3529 735.02 79.9269 736.384 81.0031 737.195C82.1447 738.058 83.7804 738.128 86.0058 737.481C87.1855 737.138 89.6119 735.616 91.9668 733.739C91.5704 731.367 91.989 728.837 92.9187 726.953C94.3514 724.055 96.8895 722.773 99.2476 723.566C100.848 724.105 101.718 725.031 102.167 726.033C102.755 727.346 102.64 729.097 101.54 730.987C100.802 732.255 99.5716 733.682 98.1174 735.077C98.8429 735.661 99.9103 735.946 101.348 735.921C103.13 735.889 105.833 734.519 108.801 732.946C114.082 730.156 119.97 726.553 123.419 725.621C126.41 724.809 128.324 725.792 129.117 727.486C129.735 728.805 130.314 729.762 130.911 730.397C131.199 730.707 131.448 730.923 131.736 730.98C132.123 731.05 132.496 730.866 132.904 730.676C133.43 730.422 133.968 730.086 134.528 729.712C138.418 727.131 143.114 723.522 149.528 725.704C152.177 726.604 152.9 729.052 152.433 732.077C152.3 732.94 152.089 733.847 151.958 734.684C151.939 734.817 151.922 734.976 151.911 735.128C152.222 735.109 152.565 735.052 152.929 734.982C153.913 734.804 154.998 734.494 156.095 734.151C158.697 733.352 161.357 732.458 163.178 732.344C182.482 731.088 201.917 731.411 221.199 729.762C222.595 729.642 223.824 730.682 223.943 732.077C224.063 733.473 223.027 734.697 221.632 734.817C202.314 736.472 182.846 736.149 163.506 737.405C161.626 737.525 158.729 738.711 156.096 739.441C153.714 740.107 151.485 740.386 149.96 739.992C147.263 739.288 146.457 736.91 146.966 733.771C147.085 733.041 147.258 732.268 147.384 731.519C147.44 731.183 147.467 730.695 147.479 730.378C145.149 729.724 143.196 730.346 141.48 731.259C139.965 732.071 138.604 733.098 137.333 733.942C135.027 735.47 132.848 736.346 130.802 735.965C128.948 735.616 126.88 734.234 124.947 730.498C124.612 730.574 124.173 730.688 123.813 730.822C122.614 731.272 121.202 731.97 119.677 732.775C114.641 735.439 108.489 739.206 104.349 740.468C103.262 740.804 102.28 740.975 101.444 740.994C98.0413 741.058 95.7327 739.954 94.2144 738.375C91.4873 740.417 88.7703 741.965 87.4175 742.352C83.1848 743.582 80.1216 742.884 77.9506 741.248C76.5008 740.157 75.4138 738.578 74.6895 736.65C73.9697 737.088 73.2321 737.5 72.4799 737.887C67.8184 740.284 62.5449 741.794 57.3983 744.381C56.1476 745.009 54.6217 744.502 53.9932 743.252C53.3647 741.996 53.8702 740.474 55.1215 739.847C59.2756 737.76 63.5102 736.365 67.4468 734.652C69.6317 733.701 71.7214 732.648 73.6278 731.266ZM82.2608 714.865C81.5561 716 80.8928 717.567 80.322 719.349C79.9846 720.402 79.6827 721.53 79.4315 722.691C79.2267 723.642 79.0535 724.613 78.9235 725.589C79.4512 724.74 79.9402 723.807 80.3873 722.786C80.8604 721.708 82.0667 718.315 82.2418 715.537C82.2563 715.309 82.2633 715.08 82.2608 714.865Z" fill="black"/>
<path d="M1287.93 440.842H587.992V820.273H1287.93V440.842Z" fill="#E4E4E6"/>
<path fill-rule="evenodd" clip-rule="evenodd" d="M1068.56 777.714C1071.14 768.257 1075.28 758.779 1081.02 750.845C1082.16 749.261 1084.09 746.189 1086.31 744.162C1088.38 742.274 1090.74 741.3 1093.01 741.804C1095.64 742.379 1096.99 744.301 1097.27 747.025C1097.69 751.066 1095.13 757.389 1094.14 759.172C1089.29 767.942 1081.39 775.078 1072.99 780.842C1072.62 782.392 1072.38 784.009 1072.49 785.504C1072.63 787.414 1073.47 789.075 1075.82 789.728C1080.61 791.057 1085.92 789.678 1091 787.126C1092.95 786.146 1094.86 784.994 1096.7 783.726C1096.74 782.935 1096.82 782.204 1096.89 781.617C1097.95 773.223 1102.7 765.345 1108.42 759.271C1109.31 758.319 1112.28 754.936 1114.7 753.929C1116.78 753.065 1118.64 753.364 1120 755.102C1121.27 756.713 1121.57 758.995 1120.97 761.547C1119.97 765.838 1116.39 771.12 1114.9 773.174C1111.92 777.276 1107.25 782.143 1101.83 786.262C1101.87 786.528 1101.94 786.782 1102.03 787.009C1102.09 787.142 1102.12 787.286 1102.25 787.336C1104.56 788.205 1107.04 787.242 1109.48 785.802C1114.05 783.106 1118.33 778.478 1121.01 776.003C1122.17 774.929 1124.08 772.924 1126.1 771.712C1128.05 770.538 1130.11 770.101 1131.94 770.749C1134.19 771.546 1135.02 773.096 1135.03 775.117C1135.03 776.291 1134.61 777.758 1133.99 779.308C1133.44 780.687 1132.72 782.165 1132.31 783.544C1132.18 783.986 1132.07 784.407 1132.06 784.806C1132.04 785.083 1132.15 785.304 1132.47 785.432C1133.9 785.996 1135.14 785.62 1136.28 784.861C1137.94 783.759 1139.43 781.982 1140.91 780.188C1143.07 777.581 1145.22 774.934 1147.52 773.439C1149.55 772.127 1151.7 771.59 1154.04 772.172C1157.4 773.008 1158.03 775.798 1157.14 779.491C1156.87 780.67 1156.45 781.96 1156.26 783.167C1156.15 783.887 1155.89 784.629 1156.61 784.95C1157.72 785.443 1158.78 785.21 1159.81 784.751C1160.79 784.313 1161.75 783.665 1162.71 782.99C1164.47 781.75 1166.23 780.399 1168.02 779.53C1169.52 778.799 1171.05 778.378 1172.62 778.428C1173.95 778.472 1174.83 778.893 1175.44 779.397C1176.18 780.017 1176.62 780.836 1176.79 781.827C1176.89 782.348 1176.89 782.94 1176.85 783.56C1176.83 783.887 1176.8 784.396 1176.79 784.762C1181.97 785.437 1187.76 783.815 1192.94 783.472C1201.76 782.879 1210.66 783.4 1219.45 782.608C1220.84 782.481 1222.08 783.51 1222.2 784.906C1222.32 786.301 1221.3 787.535 1219.9 787.663C1211.08 788.46 1202.13 787.94 1193.27 788.532C1187.64 788.908 1181.32 790.575 1175.71 789.733C1174.43 789.545 1173.58 789.047 1172.99 788.466C1172.32 787.807 1171.93 786.993 1171.77 786.063C1171.66 785.426 1171.67 784.712 1171.72 783.998C1171.73 783.87 1171.74 783.71 1171.75 783.549C1170.76 783.715 1169.8 784.274 1168.83 784.894C1167.16 785.963 1165.52 787.297 1163.84 788.327C1160.88 790.149 1157.82 791.035 1154.55 789.584C1152.19 788.538 1151.27 786.766 1151.12 784.634C1151.02 783.184 1151.38 781.49 1151.81 779.851C1152.01 779.092 1152.22 778.35 1152.35 777.664C1152.39 777.481 1152.42 777.232 1152.43 777.027C1151.35 776.922 1150.41 777.52 1149.48 778.295C1147.87 779.624 1146.37 781.556 1144.82 783.422C1143 785.625 1141.11 787.74 1139.08 789.091C1136.54 790.774 1133.77 791.4 1130.61 790.154C1127.77 789.036 1126.87 787.026 1126.99 784.596C1127.06 782.99 1127.74 781.085 1128.52 779.225C1128.9 778.334 1129.29 777.448 1129.58 776.623C1129.7 776.296 1129.8 775.853 1129.87 775.521C1129.7 775.56 1129.53 775.643 1129.36 775.72C1128.9 775.92 1128.44 776.219 1127.99 776.545C1126.57 777.586 1125.29 778.954 1124.44 779.734C1121.58 782.381 1116.95 787.281 1112.06 790.171C1108.18 792.463 1104.13 793.471 1100.46 792.081C1099.08 791.56 1098.11 790.564 1097.49 789.274C1096.11 790.143 1094.71 790.946 1093.28 791.66C1087 794.816 1080.38 796.261 1074.46 794.617C1069.03 793.105 1067.34 788.98 1067.42 784.435C1066.86 784.778 1066.3 785.11 1065.74 785.443C1062.1 787.591 1058.13 790.282 1054.05 791.555C1054.09 791.544 1054.19 791.505 1054.19 791.505C1054.19 791.505 1053.54 791.727 1053.24 791.754C1052.79 791.804 1052.4 791.738 1052.11 791.638C1051.53 791.444 1051.11 791.101 1050.81 790.68C1050.01 789.54 1050.28 787.956 1051.42 787.148C1051.78 786.893 1052.18 786.744 1052.59 786.694C1056.29 785.531 1059.85 783.023 1063.16 781.074C1064.96 780.017 1066.76 778.898 1068.56 777.714ZM1054.84 787.596L1054.87 787.641L1054.87 787.63L1054.84 787.596ZM1054.74 787.491L1054.78 787.53L1054.77 787.519L1054.74 787.491ZM1054.65 787.397L1054.69 787.43L1054.67 787.414L1054.65 787.397ZM1054.56 787.308L1054.57 787.325L1054.56 787.314L1054.56 787.308ZM1116.2 758.934C1115.72 759.249 1115.05 759.709 1114.63 760.096C1113.5 761.148 1112.54 762.294 1112.11 762.748C1107.82 767.31 1104.08 772.991 1102.51 779.153C1105.89 776.158 1108.77 772.98 1110.79 770.195C1111.89 768.672 1114.36 765.14 1115.59 761.835C1115.92 760.921 1116.17 760.035 1116.19 759.238C1116.2 759.133 1116.21 759.033 1116.2 758.934ZM1075.41 772.781C1081.13 768.246 1086.26 762.942 1089.7 756.719C1090.37 755.529 1091.98 751.753 1092.22 748.713C1092.26 748.232 1092.26 747.777 1092.2 747.368C1092.16 747.102 1092.18 746.814 1091.92 746.759C1091.59 746.681 1091.27 746.831 1090.96 747.002C1090.54 747.229 1090.13 747.55 1089.74 747.91C1087.79 749.693 1086.14 752.428 1085.13 753.818C1081.01 759.509 1077.79 766.054 1075.41 772.781Z" fill="black"/>
<path fill-rule="evenodd" clip-rule="evenodd" d="M978.939 699.946V693.905C978.939 691.596 980.645 689.72 982.744 689.72C984.843 689.72 986.55 691.596 986.55 693.905V703.657C986.55 705.966 984.843 707.842 982.744 707.842H982.738C982.211 708.149 981.609 708.317 980.968 708.317H650.302C649.636 708.317 649.008 708.128 648.463 707.801C646.37 707.787 644.676 705.917 644.676 703.615V693.905C644.676 691.596 646.382 689.72 648.482 689.72C650.581 689.72 652.287 691.596 652.287 693.905V699.946H978.939ZM1110.26 609.284V601.423C1110.26 599.114 1111.97 597.237 1114.06 597.237C1116.16 597.237 1117.87 599.114 1117.87 601.423V611.175C1117.87 612.081 1117.61 612.919 1117.17 613.602C1117.1 615.848 1115.42 617.655 1113.36 617.655H648.754C648.71 617.655 648.666 617.655 648.621 617.655C648.57 617.655 648.526 617.655 648.482 617.655C646.382 617.655 644.676 615.779 644.676 613.47V603.76C644.676 601.451 646.382 599.574 648.482 599.574C650.581 599.574 652.287 601.451 652.287 603.76V609.284H1110.26ZM646.281 529.721L646.554 519.976C646.623 517.667 648.38 515.853 650.479 515.923C652.579 516 654.228 517.932 654.164 520.234L654.012 525.675H1111.16V520.108C1111.16 517.799 1112.87 515.923 1114.97 515.923C1117.06 515.923 1118.77 517.799 1118.77 520.108V529.86C1118.77 532.169 1117.06 534.046 1114.97 534.046C1114.92 534.046 1114.87 534.046 1114.83 534.046C1114.78 534.046 1114.74 534.046 1114.69 534.046H650.099C650.08 534.046 650.055 534.046 650.036 534.046H650.016C649.636 534.039 649.274 533.969 648.932 533.85C648.336 533.641 647.803 533.278 647.378 532.804L647.359 532.783L647.34 532.762L647.327 532.748C646.909 532.26 646.592 531.667 646.421 531.004C646.325 530.627 646.275 530.223 646.281 529.811V529.783C646.281 529.762 646.281 529.742 646.281 529.721Z" fill="white"/>
<path fill-rule="evenodd" clip-rule="evenodd" d="M1219.08 712.373V689.713C1219.08 687.613 1220.79 685.907 1222.89 685.907C1224.99 685.907 1226.69 687.613 1226.69 689.713V716.178C1226.69 718.284 1224.99 719.984 1222.89 719.984H1034.27C1032.17 719.984 1030.47 718.284 1030.47 716.178V689.713C1030.47 687.613 1032.17 685.907 1034.27 685.907C1036.37 685.907 1038.08 687.613 1038.08 689.713V712.373H1219.08Z" fill="white"/>
<path fill-rule="evenodd" clip-rule="evenodd" d="M1038.08 662.446V689.71C1038.08 691.81 1036.37 693.516 1034.27 693.516C1032.17 693.516 1030.47 691.81 1030.47 689.71V658.64C1030.47 656.541 1032.17 654.835 1034.27 654.835H1222.89C1224.99 654.835 1226.69 656.541 1226.69 658.64V689.71C1226.69 691.81 1224.99 693.516 1222.89 693.516C1220.79 693.516 1219.08 691.81 1219.08 689.71V662.446H1038.08Z" fill="white"/>
<path fill-rule="evenodd" clip-rule="evenodd" d="M1051.62 704.271H1070.99C1073.09 704.271 1074.8 702.565 1074.8 700.466C1074.8 698.367 1073.09 696.661 1070.99 696.661H1051.62C1049.52 696.661 1047.81 698.367 1047.81 700.466C1047.81 702.565 1049.52 704.271 1051.62 704.271ZM1118.76 704.271H1138.13C1140.23 704.271 1141.93 702.565 1141.93 700.466C1141.93 698.367 1140.23 696.661 1138.13 696.661H1118.76C1116.66 696.661 1114.95 698.367 1114.95 700.466C1114.95 702.565 1116.66 704.271 1118.76 704.271ZM1085.18 704.271H1104.56C1106.66 704.271 1108.36 702.565 1108.36 700.466C1108.36 698.367 1106.66 696.661 1104.56 696.661H1085.18C1083.09 696.661 1081.38 698.367 1081.38 700.466C1081.38 702.565 1083.09 704.271 1085.18 704.271ZM1152.33 704.271H1171.7C1173.8 704.271 1175.51 702.565 1175.51 700.466C1175.51 698.367 1173.8 696.661 1171.7 696.661H1152.33C1150.23 696.661 1148.52 698.367 1148.52 700.466C1148.52 702.565 1150.23 704.271 1152.33 704.271ZM1185.9 704.271H1205.27C1207.37 704.271 1209.08 702.565 1209.08 700.466C1209.08 698.367 1207.37 696.661 1205.27 696.661H1185.9C1183.8 696.661 1182.1 698.367 1182.1 700.466C1182.1 702.565 1183.8 704.271 1185.9 704.271Z" fill="white"/>
<path d="M1200.13 574.02C1229.58 574.02 1253.46 550.143 1253.46 520.69C1253.46 491.236 1229.58 467.359 1200.13 467.359C1170.67 467.359 1146.8 491.236 1146.8 520.69C1146.8 550.143 1170.67 574.02 1200.13 574.02Z" fill="white"/>
<path fill-rule="evenodd" clip-rule="evenodd" d="M1198.35 492.125L1198.71 467.378C1199.18 467.366 1199.65 467.359 1200.12 467.359C1201.36 467.359 1202.58 467.404 1203.79 467.486L1203.43 492.189C1207.97 492.132 1212.7 491.758 1217.56 490.965C1214.37 481.731 1210.45 473.778 1207.11 467.816C1209.3 468.101 1211.45 468.52 1213.55 469.065C1216.6 474.856 1219.86 481.978 1222.6 490.001C1228.06 488.789 1233.68 487.033 1239.36 484.585C1240.55 485.878 1241.68 487.236 1242.74 488.644C1236.44 491.466 1230.21 493.483 1224.14 494.846C1224.52 496.102 1224.87 497.37 1225.21 498.664C1227.06 505.647 1228.36 513.124 1228.74 520.868L1253.45 521.604C1253.42 523.316 1253.31 525.003 1253.12 526.671L1228.85 525.948C1228.8 534.567 1227.53 543.446 1224.49 552.3C1229.14 553.612 1233.87 555.344 1238.64 557.57C1237.37 558.889 1236.04 560.145 1234.64 561.331C1230.61 559.555 1226.62 558.153 1222.69 557.056C1220.59 562.105 1217.88 567.128 1214.47 572.062C1212.06 572.74 1209.57 573.248 1207.03 573.578C1211.61 567.768 1215.09 561.819 1217.66 555.82C1212.46 554.703 1207.39 554.107 1202.51 553.911L1202.21 573.977C1201.52 574.002 1200.82 574.021 1200.12 574.021C1199.12 574.021 1198.12 573.99 1197.13 573.939L1197.43 553.847C1191.34 553.936 1185.61 554.608 1180.37 555.61C1183.16 561.356 1186.78 567.261 1191.4 573.305C1188.79 572.88 1186.26 572.258 1183.8 571.466C1180.34 566.449 1177.52 561.527 1175.27 556.72C1171.16 557.716 1167.43 558.883 1164.17 560.062C1162.8 558.813 1161.5 557.5 1160.28 556.118C1163.98 554.703 1168.33 553.257 1173.23 552.033C1169.58 542.958 1167.9 534.32 1167.58 526.24C1167.55 525.529 1167.54 524.825 1167.53 524.128L1146.87 523.513C1146.82 522.58 1146.8 521.635 1146.8 520.69C1146.8 519.936 1146.81 519.187 1146.84 518.439L1167.66 519.054C1168.24 509.579 1170.65 500.979 1173.86 493.457C1167.24 491.694 1161.83 489.627 1158.02 487.971C1159.11 486.57 1160.27 485.231 1161.48 483.944C1165.15 485.472 1170.09 487.274 1176.01 488.802C1180.3 480.183 1185.48 473.251 1189.68 468.38C1192.2 467.879 1194.79 467.556 1197.43 467.423C1193.4 471.494 1186.54 479.302 1181.05 489.982C1186.28 491.066 1192.1 491.884 1198.35 492.125ZM1223.76 525.796L1202.93 525.181L1202.58 548.85C1208.03 549.059 1213.7 549.737 1219.52 551.038C1222.47 542.558 1223.71 534.047 1223.76 525.796ZM1172.61 524.28C1172.62 524.864 1172.63 525.453 1172.65 526.043C1172.95 533.831 1174.64 542.146 1178.25 550.892C1184.11 549.699 1190.6 548.888 1197.51 548.792L1197.86 525.028L1172.61 524.28ZM1219.14 495.836C1213.7 496.768 1208.41 497.193 1203.35 497.25L1203.01 520.107L1223.64 520.716C1223.26 513.473 1222.03 506.484 1220.31 499.952C1219.94 498.563 1219.55 497.186 1219.14 495.836ZM1178.82 494.662C1175.68 501.835 1173.31 510.093 1172.74 519.206L1197.94 519.955L1198.28 497.174C1191.19 496.907 1184.64 495.937 1178.82 494.662Z" fill="#E4E4E6"/>
<path fill-rule="evenodd" clip-rule="evenodd" d="M740.701 710.117C742.286 741.714 747.347 768.598 755.871 793.409C761.446 809.803 776.838 820.826 794.152 820.826C794.152 820.845 794.152 820.845 794.152 820.845C808.739 820.845 821.893 812.067 827.486 798.596C837.171 775.327 845.333 746.749 851.174 710.117H740.701Z" fill="#F27F71"/>
<path fill-rule="evenodd" clip-rule="evenodd" d="M741.858 724.986C741.75 723.762 741.648 722.531 741.547 721.288L770.277 721.821C770.277 721.821 776.866 743.796 782.904 763.317C790.958 789.339 798.645 806.628 815.299 814.099C813.714 815.234 812.033 816.243 810.283 817.105C804.936 819.059 798.322 820.847 794.282 820.847C794.282 820.847 794.282 820.847 794.282 820.828C794.174 820.828 794.06 820.828 793.952 820.828C793.318 820.822 792.69 820.803 792.062 820.771L791.859 820.758C791.593 820.739 791.32 820.727 791.053 820.701L790.857 820.688L790.66 820.67L790.457 820.65C790.394 820.644 790.33 820.638 790.261 820.631L790.153 820.619C789.918 820.6 789.69 820.568 789.455 820.543C789.328 820.53 789.202 820.511 789.075 820.498L788.872 820.473C788.548 820.422 788.219 820.378 787.895 820.327L787.698 820.295C787.635 820.283 787.565 820.27 787.502 820.257L787.305 820.226C787.242 820.213 787.178 820.207 787.109 820.194L786.925 820.156C786.709 820.118 786.493 820.08 786.278 820.035C785.219 819.82 784.172 819.566 783.145 819.268C782.802 819.173 782.466 819.071 782.124 818.963C781.68 818.824 781.236 818.672 780.798 818.52C780.633 818.462 780.468 818.399 780.304 818.342L779.936 818.202C777.386 817.232 774.951 816.014 772.661 814.568L772.338 814.359C772.211 814.277 772.084 814.194 771.964 814.112L771.691 813.928L771.367 813.712L771.266 813.642C770.188 812.894 769.148 812.101 768.152 811.251C767.803 810.96 767.461 810.662 767.125 810.357L766.839 810.091L766.554 809.831C766.459 809.742 766.37 809.653 766.275 809.564L766.04 809.336C764.746 808.074 763.535 806.723 762.419 805.296C761.842 804.554 761.283 803.793 760.757 803.013C760.592 802.759 760.427 802.512 760.262 802.258C760.059 801.941 759.863 801.618 759.666 801.294L759.603 801.193L759.539 801.085C759.089 800.33 758.664 799.556 758.258 798.77L758.169 798.592L758.106 798.459C757.567 797.375 757.072 796.265 756.622 795.123L756.552 794.933C756.451 794.667 756.349 794.4 756.254 794.134C756.165 793.893 756.083 793.652 756 793.411L755.81 792.859L755.753 792.682L755.626 792.314L755.55 792.098L755.436 791.756L755.36 791.534L755.252 791.204L755.176 790.976L755.062 790.639L754.992 790.417L754.878 790.062L754.808 789.866L754.669 789.422L754.631 789.314L754.447 788.756L754.402 788.604L754.269 788.204L754.206 787.995L754.091 787.646L754.022 787.418L753.914 787.081L753.844 786.853L753.736 786.517L753.667 786.289L753.559 785.94L753.495 785.731L753.368 785.331L753.318 785.172L753.153 784.608L753.115 784.5L752.982 784.05L752.918 783.847L752.81 783.486L752.747 783.263L752.639 782.921L752.576 782.686L752.474 782.35L752.404 782.122L752.303 781.773L752.24 781.551L752.132 781.177L752.075 780.987L751.916 780.435L751.91 780.422L751.751 779.851L751.7 779.668L751.586 779.287L751.529 779.065L751.428 778.716L751.364 778.482L751.269 778.139L751.206 777.904L751.111 777.562L751.047 777.334L750.946 776.966L750.895 776.757L750.768 776.306L750.737 776.186L750.584 775.615L750.54 775.45L750.432 775.038L750.375 774.822L750.28 774.461L750.216 774.226L750.128 773.884L750.071 773.643L749.982 773.3L749.918 773.065L749.83 772.704L749.773 772.482L749.665 772.076L749.627 771.905L749.481 771.321L749.449 771.207L749.335 770.744L749.284 770.535L749.195 770.161L749.138 769.926L749.049 769.577L748.992 769.33L748.91 768.987L748.853 768.74L748.764 768.391L748.713 768.157L748.625 767.77L748.574 767.567L748.447 767.028L748.434 766.977L748.301 766.393L748.257 766.19L748.168 765.81L748.117 765.569L748.035 765.214L747.978 764.966L747.902 764.618L747.844 764.37L747.768 764.021L747.718 763.774L747.635 763.406L747.584 763.178L747.489 762.74L747.458 762.582L747.331 761.998L747.293 761.808L747.204 761.402L747.153 761.161L747.083 760.8L747.026 760.546L746.957 760.197L746.906 759.937L746.836 759.595L746.779 759.335L746.709 758.986L746.658 758.732L746.582 758.345L746.538 758.13L746.424 757.54L746.392 757.369L746.31 756.937L746.259 756.69L746.189 756.328L746.138 756.062L746.075 755.726L746.024 755.447L745.961 755.111L745.91 754.838L745.847 754.496L745.796 754.229L745.733 753.874L745.688 753.614L745.606 753.17L745.574 753.011L745.555 752.891L745.473 752.415L745.422 752.149L745.365 751.8L745.314 751.515L745.257 751.185L745.206 750.893L745.149 750.57L745.098 750.278L745.048 749.955L744.997 749.656L744.94 749.333L744.895 749.041L744.838 748.686L744.794 748.42L744.699 747.83L744.648 747.538L744.597 747.208L744.547 746.898L744.502 746.587L744.451 746.27L744.401 745.965L744.356 745.648L744.306 745.344L744.255 745.02L744.21 744.722L744.16 744.393L744.122 744.101L744.071 743.765L744.033 743.498L743.982 743.168L743.931 742.826L743.893 742.553L743.843 742.204L743.805 741.925L743.754 741.577L743.716 741.298L743.665 740.949L743.633 740.67L743.583 740.315L743.544 740.048L743.494 739.68L743.462 739.433L743.411 739.046L743.392 738.881L743.329 738.437L743.265 737.917L743.253 737.835L743.202 737.416L743.17 737.2L743.126 736.801L743.094 736.566L743.044 736.167L743.018 735.932L742.967 735.533L742.942 735.304L742.891 734.892L742.866 734.689L742.815 734.245L742.803 734.137L742.739 733.63C742.72 733.427 742.695 733.224 742.676 733.021L742.612 732.501L742.606 732.4L742.549 731.93L742.536 731.759L742.485 731.302L742.466 731.125L742.416 730.668L742.397 730.491L742.346 730.021L742.333 729.875L742.282 729.374L742.276 729.324C742.194 728.531 742.118 727.744 742.041 726.945L742.035 726.888L741.984 726.349L741.972 726.241L741.927 725.715L741.915 725.607L741.87 725.068L741.858 724.986Z" fill="#FFC2BA"/>
<path fill-rule="evenodd" clip-rule="evenodd" d="M396.789 710.884C398.374 742.48 403.435 769.365 411.959 794.175C417.534 810.57 432.926 821.592 450.24 821.592C450.24 821.611 450.24 821.611 450.24 821.611C464.827 821.611 477.981 812.834 483.575 799.363C493.259 776.094 501.421 747.516 507.262 710.884H396.789Z" fill="#FFC3BB"/>
<path fill-rule="evenodd" clip-rule="evenodd" d="M397.017 715.032C396.935 713.655 396.858 712.279 396.789 710.884H507.262C506.73 714.207 506.184 717.454 505.62 720.644L487.564 720.346C484.221 731.058 463.99 795.754 454.052 806.155C445.915 814.667 441.685 817.495 437.486 819.531C425.829 815.656 416.31 806.58 412.092 794.562L412.086 794.549L412.035 794.391L411.959 794.175C410.697 790.503 409.511 786.78 408.401 783.007C408.249 782.499 408.103 781.992 407.957 781.478C407.551 780.083 407.164 778.675 406.778 777.254C406.701 776.956 406.619 776.658 406.537 776.354C406.093 774.673 405.655 772.973 405.236 771.261C404.881 769.815 404.532 768.356 404.203 766.891C403.733 764.855 403.289 762.801 402.864 760.72C402.566 759.268 402.281 757.797 402.002 756.319C401.888 755.691 401.767 755.063 401.653 754.429L401.539 753.782C401.374 752.862 401.209 751.936 401.057 751.004C400.772 749.324 400.499 747.624 400.239 745.911L400.137 745.246C399.96 744.091 399.795 742.924 399.63 741.751L399.56 741.231L399.541 741.079C398.97 736.861 398.469 732.568 398.044 728.179L397.981 727.475L397.968 727.361C397.848 726.061 397.727 724.754 397.619 723.435C397.391 720.67 397.188 717.873 397.017 715.032Z" fill="#F27F71"/>
<path fill-rule="evenodd" clip-rule="evenodd" d="M924.584 414.975C929.29 413.654 933.159 412.458 934.123 411.856C945.437 404.814 954.988 393.188 960.056 379.993C964.952 367.26 966.176 353.129 960.233 340.628C953.105 350.883 941.797 357.85 931.491 358.663C920.011 359.57 908.976 353.956 903.433 337.714C896.901 318.569 909.623 303.326 928.63 299.507C935.905 298.045 944.232 298.482 952.496 301.436C951.988 296.504 950.764 291.677 948.97 287.032C944.238 274.789 935.829 263.741 925.84 255.199C923.284 253.141 922.884 249.397 924.939 246.842C926.994 244.287 930.742 243.884 933.298 245.942C945.494 255.186 955.921 267.533 962.263 281.438C966.48 290.691 968.801 300.639 968.675 310.917C973.951 315.431 978.835 321.331 982.97 328.807C993.327 347.534 993.491 369.397 987.099 389.482C980.813 409.251 967.628 426.968 951.665 438.257C949.667 439.677 941.923 443.204 932.943 446.641C934.034 451.975 935.042 457.531 935.974 463.34C953.352 571.575 952.673 672.688 920.715 774.657C911.652 803.399 884.996 822.952 854.865 822.952C854.859 822.958 854.859 822.958 854.859 822.958C828.101 822.958 804.312 805.898 795.737 780.542C785.425 750.068 773.337 714.33 773.337 714.33H480.399C480.399 714.33 465.311 757.006 454.054 788.863C446.83 809.297 427.512 822.958 405.841 822.958H405.835C378.861 822.958 355.445 804.363 349.335 778.088C342.38 748.178 334.509 714.33 334.509 714.33H246.384C236.155 714.33 226.562 708.35 222.941 698.786C211.664 668.997 189.209 592.352 225.105 502.896C227.741 496.332 234.563 492.406 241.643 492.406C265.12 492.387 316.983 492.387 316.983 492.387C316.983 492.387 324.824 372.947 432.986 309.965L403.564 253.812C403.564 253.812 452.76 234.431 496.312 290.449C600.107 266.026 691.637 263.399 808.199 297.983C835.483 306.031 860.161 321.129 879.751 341.756C893.387 356.082 904.131 370.436 912.654 386.718C917.24 395.48 921.178 404.801 924.584 414.975ZM948.69 326.213C945.228 323.758 941.537 322.331 937.896 321.875C929.715 320.852 921.013 323.966 923.138 331.633C924.965 338.248 929.347 340.458 934.046 339.002C939.837 337.207 945.57 332.422 948.69 326.213Z" fill="#FFC3BB"/>
<path fill-rule="evenodd" clip-rule="evenodd" d="M478.522 720.186L487.965 691.126C488.422 689.712 489.824 688.818 491.295 689.002C492.773 689.186 493.914 690.391 494.016 691.875L495.563 714.339H480.589L478.522 720.186ZM755.629 714.339L760.525 690.036C760.747 688.957 761.661 688.158 762.764 688.089C763.861 688.012 764.876 688.691 765.231 689.738C768.827 700.354 774.478 717.04 774.478 717.04L774.453 717.047L773.533 714.339H755.629ZM869.851 512.202C869.851 430.204 806.779 362.003 725.028 355.609C665.361 350.886 606.043 350.927 547.074 355.594C465.318 361.975 402.232 430.179 402.232 512.183C402.226 512.183 402.226 512.183 402.226 512.183C402.226 597.168 469.795 666.76 554.748 669.259C609.145 670.876 663.338 670.876 717.329 669.278C802.282 666.779 869.851 597.187 869.851 512.202ZM280.533 492.655C285.58 503.894 290.215 519.153 293.392 539.866C293.922 543.323 291.544 546.564 288.085 547.09C284.624 547.623 281.385 545.245 280.854 541.788C277.291 518.557 271.971 503.019 266.5 492.662L277.041 492.655H280.533ZM305.261 492.655C309.25 501.287 312.843 512.291 315.474 526.32C316.119 529.763 313.85 533.08 310.409 533.721C306.969 534.368 303.652 532.097 303.007 528.66C299.931 512.259 295.551 500.735 291.03 492.655H305.261ZM933.133 446.643C934.23 451.977 923.867 412.248 924.78 414.978C929.48 413.658 933.355 412.461 934.319 411.86C935.01 411.428 935.702 410.979 936.38 410.514C938.98 418.929 941.999 429.71 944.663 441.899C941.429 443.339 937.42 445.001 933.133 446.643ZM960.43 340.632C959.263 343.208 969.689 325.83 968.871 310.92C972.911 314.378 976.723 318.649 980.141 323.818C978.467 331.927 974.807 342.394 966.905 352.611C966.182 353.546 965.25 354.224 964.222 354.628C963.778 349.846 962.567 345.133 960.43 340.632ZM952.686 301.439C953.777 314.832 948.018 327.942 948.887 326.217C945.424 323.762 941.733 322.335 938.086 321.879C937.775 321.839 937.465 321.806 937.154 321.78C942.164 313.51 941.359 304.546 939.989 298.791C944.137 299.059 948.424 299.913 952.686 301.439ZM433.106 310.012L437.793 319.375C439.359 322.505 438.091 326.318 434.964 327.885C431.831 329.453 428.019 328.183 426.453 325.054L422.28 316.721C425.774 314.423 429.383 312.184 433.106 310.012ZM500.91 297.772C500.91 297.772 494.745 288.184 496.508 290.453C500.764 289.451 505 288.487 509.224 287.558L511.273 290.455C513.29 293.314 512.605 297.275 509.751 299.294C506.89 301.313 502.926 300.631 500.91 297.772Z" fill="#F27F71"/>
<path d="M238.221 714.596C256.946 714.596 272.125 664.911 272.125 603.622C272.125 542.332 256.946 492.647 238.221 492.647C219.496 492.647 204.316 542.332 204.316 603.622C204.316 664.911 219.496 714.596 238.221 714.596Z" fill="#F27F71"/>
<path fill-rule="evenodd" clip-rule="evenodd" d="M219.968 554.127V653.121C219.968 656.616 222.81 659.463 226.31 659.463C229.81 659.463 232.652 656.616 232.652 653.121V554.127C232.652 550.626 229.81 547.785 226.31 547.785C222.81 547.785 219.968 550.626 219.968 554.127Z" fill="#D7441E"/>
<path fill-rule="evenodd" clip-rule="evenodd" d="M243.657 554.127V653.121C243.657 656.616 246.498 659.463 249.999 659.463C253.499 659.463 256.341 656.616 256.341 653.121V554.127C256.341 550.626 253.499 547.785 249.999 547.785C246.498 547.785 243.657 550.626 243.657 554.127Z" fill="#D7441E"/>
<path fill-rule="evenodd" clip-rule="evenodd" d="M341.085 463.916C340.947 467.506 340.539 475.2 342.423 482.134C344.785 490.825 350.323 498.34 362.079 499.003C366.923 499.274 373.568 498.65 378.986 493.405C383.621 488.919 387.78 480.446 387.453 464.027L374.768 464.283C374.99 475.307 373.276 481.278 370.163 484.293C367.836 486.543 364.873 486.456 362.793 486.34C357.763 486.054 355.674 482.526 354.663 478.805C353.175 473.327 353.651 467.235 353.76 464.399L341.085 463.916Z" fill="black"/>
<path d="M774.438 307.538H522.847L529.204 335.491H780.795L774.438 307.538Z" fill="black"/>
<path fill-rule="evenodd" clip-rule="evenodd" d="M544.844 355.799C545.663 355.722 546.468 355.653 547.28 355.589C606.249 350.922 665.567 350.881 725.234 355.604C737.252 356.544 748.865 358.819 759.932 362.277V494.762H544.844V355.799Z" fill="#82B5B2"/>
<path fill-rule="evenodd" clip-rule="evenodd" d="M583.339 353.308C627.144 351.255 671.133 351.756 715.325 354.871C704.188 380.072 678.966 397.676 649.665 397.676C619.762 397.676 594.108 379.341 583.339 353.308Z" fill="#A8CFCC"/>
<path fill-rule="evenodd" clip-rule="evenodd" d="M613.373 494.761V432.976C613.373 425.606 619.347 419.631 626.711 419.631C634.08 419.631 640.054 425.606 640.054 432.976V494.761H613.373ZM657.933 494.761V448.73C657.933 441.366 663.914 435.386 671.277 435.386C678.64 435.386 684.621 441.366 684.621 448.73V494.761H657.933Z" fill="#A8CFCC"/>
<path d="M759.931 134.513H544.845V320.309H759.931V134.513Z" fill="#A8CFCC"/>
<path fill-rule="evenodd" clip-rule="evenodd" d="M578.263 320.309C581.136 283.335 612.085 254.186 649.789 254.186C687.493 254.186 718.443 283.335 721.316 320.309H578.263Z" fill="#82B5B2"/>
<path fill-rule="evenodd" clip-rule="evenodd" d="M692.658 134.512V187.157C692.658 194.52 686.684 200.499 679.32 200.499C671.957 200.499 665.977 194.52 665.977 187.157V134.512H692.658ZM648.098 134.512V171.402C648.098 178.766 642.117 184.744 634.754 184.744C627.391 184.744 621.41 178.766 621.41 171.402V134.512H648.098Z" fill="#82B5B2"/>
<path d="M544.924 560.838C582.348 560.838 612.686 530.805 612.686 493.758C612.686 456.71 582.348 426.677 544.924 426.677C507.5 426.677 477.162 456.71 477.162 493.758C477.162 530.805 507.5 560.838 544.924 560.838Z" fill="#FFCF84"/>
<path fill-rule="evenodd" clip-rule="evenodd" d="M544.876 441.437C574.046 441.437 597.73 464.882 597.73 493.759C597.73 522.637 574.046 546.082 544.876 546.082C543.691 546.082 542.729 547.034 542.729 548.207C542.729 549.38 543.691 550.332 544.876 550.332C576.416 550.332 602.024 524.983 602.024 493.759C602.024 462.536 576.416 437.187 544.876 437.187C543.691 437.187 542.729 438.139 542.729 439.312C542.729 440.485 543.691 441.437 544.876 441.437Z" fill="#FD9909"/>
<path fill-rule="evenodd" clip-rule="evenodd" d="M544.885 546.082C515.712 546.082 492.027 522.637 492.027 493.759C492.027 464.882 515.712 441.437 544.885 441.437C546.07 441.437 547.032 440.485 547.032 439.312C547.032 438.139 546.07 437.187 544.885 437.187C513.342 437.187 487.737 462.536 487.737 493.759C487.737 524.983 513.342 550.332 544.885 550.332C546.07 550.332 547.032 549.38 547.032 548.207C547.032 547.034 546.07 546.082 544.885 546.082Z" fill="#FD9909"/>
<path fill-rule="evenodd" clip-rule="evenodd" d="M553.104 560.358L551.717 549.307C551.571 548.143 552.408 547.08 553.584 546.935C554.761 546.791 555.83 547.619 555.98 548.783L557.35 559.717C555.95 559.974 554.533 560.188 553.104 560.358ZM565.774 557.606L561.935 546.392C561.558 545.281 562.159 544.074 563.284 543.698C564.404 543.321 565.624 543.917 566.001 545.028L569.818 556.17C568.492 556.69 567.144 557.169 565.774 557.606ZM507.591 549.722L513.56 540.007C514.174 539.005 515.496 538.686 516.509 539.296C517.523 539.905 517.844 541.214 517.231 542.216L511.245 551.957C510 551.249 508.781 550.503 507.591 549.722ZM600.698 531.875L590.836 524.65C589.887 523.952 589.685 522.62 590.389 521.677C591.093 520.734 592.437 520.535 593.39 521.233L603.034 528.298C602.295 529.516 601.514 530.709 600.698 531.875ZM480.546 514.669L492.134 509.506C493.212 509.024 494.487 509.502 494.973 510.571C495.458 511.641 494.977 512.9 493.895 513.382L482.019 518.674C481.486 517.359 480.993 516.024 480.546 514.669ZM610.698 477.49C611.041 478.859 611.346 480.245 611.604 481.645L600.178 484.313C599.028 484.582 597.868 483.874 597.598 482.732C597.323 481.591 598.04 480.445 599.191 480.176L610.698 477.49ZM488.953 455.986L499.163 462.597C500.155 463.24 500.434 464.558 499.786 465.539C499.137 466.521 497.806 466.797 496.815 466.154L486.647 459.57C487.377 458.349 488.15 457.154 488.953 455.986ZM495.617 447.786L503.92 453.831C504.874 454.526 505.08 455.858 504.376 456.802C503.676 457.747 502.327 457.95 501.374 457.255L492.766 450.984C493.68 449.889 494.633 448.822 495.617 447.786ZM584.112 439.028C585.28 439.85 586.422 440.706 587.534 441.598L580.11 450.864C579.372 451.783 578.019 451.936 577.092 451.208C576.164 450.479 576.01 449.141 576.744 448.222L584.112 439.028ZM572.614 432.517C573.923 433.099 575.211 433.721 576.474 434.379L571.24 444.098C570.681 445.133 569.38 445.525 568.333 444.973C567.29 444.421 566.895 443.133 567.453 442.098L572.614 432.517ZM529.751 428.376L532.773 439.045C533.091 440.174 532.426 441.348 531.283 441.665C530.141 441.982 528.956 441.322 528.639 440.193L525.599 429.459C526.964 429.056 528.347 428.695 529.751 428.376Z" fill="#FD9909"/>
<path d="M725.129 643.941C762.552 643.941 792.89 613.908 792.89 576.861C792.89 539.813 762.552 509.78 725.129 509.78C687.705 509.78 657.367 539.813 657.367 576.861C657.367 613.908 687.705 643.941 725.129 643.941Z" fill="#FFCF84"/>
<path fill-rule="evenodd" clip-rule="evenodd" d="M725.081 524.54C754.25 524.54 777.935 547.985 777.935 576.863C777.935 605.741 754.25 629.186 725.081 629.186C723.896 629.186 722.934 630.138 722.934 631.311C722.934 632.484 723.896 633.436 725.081 633.436C756.62 633.436 782.228 608.087 782.228 576.863C782.228 545.639 756.62 520.29 725.081 520.29C723.896 520.29 722.934 521.242 722.934 522.415C722.934 523.588 723.896 524.54 725.081 524.54Z" fill="#FD9909"/>
<path fill-rule="evenodd" clip-rule="evenodd" d="M725.089 629.186C695.916 629.186 672.232 605.741 672.232 576.863C672.232 547.985 695.916 524.54 725.089 524.54C726.274 524.54 727.236 523.588 727.236 522.415C727.236 521.242 726.274 520.29 725.089 520.29C693.546 520.29 667.942 545.639 667.942 576.863C667.942 608.087 693.546 633.436 725.089 633.436C726.274 633.436 727.236 632.484 727.236 631.311C727.236 630.138 726.274 629.186 725.089 629.186Z" fill="#FD9909"/>
<path fill-rule="evenodd" clip-rule="evenodd" d="M733.308 643.461L731.921 632.409C731.775 631.245 732.613 630.183 733.789 630.038C734.965 629.893 736.035 630.721 736.185 631.885L737.554 642.819C736.155 643.077 734.738 643.291 733.308 643.461ZM745.978 640.709L742.14 629.495C741.762 628.384 742.363 627.176 743.488 626.8C744.609 626.423 745.828 627.02 746.206 628.13L750.023 639.273C748.696 639.792 747.348 640.271 745.978 640.709ZM687.796 632.825L693.764 623.11C694.378 622.108 695.701 621.789 696.714 622.398C697.727 623.008 698.049 624.316 697.435 625.318L691.45 635.059C690.205 634.352 688.985 633.606 687.796 632.825ZM780.903 614.977L771.04 607.752C770.091 607.054 769.889 605.723 770.594 604.78C771.298 603.837 772.642 603.638 773.595 604.335L783.238 611.4C782.5 612.619 781.718 613.812 780.903 614.977ZM660.751 597.771L672.339 592.608C673.417 592.127 674.692 592.604 675.177 593.674C675.662 594.744 675.181 596.003 674.099 596.484L662.223 601.776C661.691 600.462 661.197 599.127 660.751 597.771ZM790.902 560.592C791.246 561.962 791.551 563.348 791.808 564.748L780.383 567.415C779.232 567.685 778.073 566.976 777.803 565.835C777.528 564.693 778.245 563.548 779.395 563.278L790.902 560.592ZM669.158 539.089L679.368 545.7C680.36 546.342 680.639 547.66 679.99 548.642C679.342 549.623 678.011 549.899 677.019 549.257L666.852 542.673C667.582 541.452 668.355 540.257 669.158 539.089ZM675.821 530.889L684.125 536.934C685.078 537.629 685.284 538.96 684.58 539.905C683.88 540.85 682.532 541.052 681.579 540.358L672.97 534.086C673.885 532.991 674.838 531.925 675.821 530.889ZM764.316 522.131C765.484 522.952 766.626 523.809 767.738 524.701L760.315 533.966C759.576 534.885 758.224 535.039 757.296 534.31C756.369 533.581 756.214 532.243 756.949 531.324L764.316 522.131ZM752.818 515.619C754.128 516.201 755.416 516.823 756.678 517.482L751.444 527.2C750.886 528.235 749.585 528.627 748.537 528.076C747.494 527.523 747.099 526.235 747.657 525.2L752.818 515.619ZM709.955 511.479L712.978 522.148C713.296 523.277 712.63 524.451 711.488 524.767C710.346 525.085 709.161 524.425 708.843 523.295L705.803 512.562C707.169 512.159 708.551 511.797 709.955 511.479Z" fill="#FD9909"/>
<path d="M398.137 134.161C435.561 134.161 465.899 104.128 465.899 67.0803C465.899 30.0329 435.561 0 398.137 0C360.713 0 330.375 30.0329 330.375 67.0803C330.375 104.128 360.713 134.161 398.137 134.161Z" fill="#FFCF84"/>
<path fill-rule="evenodd" clip-rule="evenodd" d="M398.09 14.7596C427.26 14.7596 450.944 38.2046 450.944 67.0822C450.944 95.9599 427.26 119.405 398.09 119.405C396.905 119.405 395.943 120.357 395.943 121.53C395.943 122.703 396.905 123.655 398.09 123.655C429.629 123.655 455.237 98.3058 455.237 67.0822C455.237 35.8586 429.629 10.5093 398.09 10.5093C396.905 10.5093 395.943 11.4615 395.943 12.6345C395.943 13.8074 396.905 14.7596 398.09 14.7596Z" fill="#FD9909"/>
<path fill-rule="evenodd" clip-rule="evenodd" d="M398.099 119.405C368.925 119.405 345.241 95.9599 345.241 67.0822C345.241 38.2046 368.925 14.7596 398.099 14.7596C399.284 14.7596 400.245 13.8074 400.245 12.6345C400.245 11.4615 399.284 10.5093 398.099 10.5093C366.556 10.5093 340.951 35.8586 340.951 67.0822C340.951 98.3058 366.556 123.655 398.099 123.655C399.284 123.655 400.245 122.703 400.245 121.53C400.245 120.357 399.284 119.405 398.099 119.405Z" fill="#FD9909"/>
<path fill-rule="evenodd" clip-rule="evenodd" d="M406.317 133.681L404.93 122.629C404.784 121.465 405.622 120.403 406.798 120.258C407.975 120.113 409.044 120.941 409.194 122.105L410.564 133.039C409.164 133.296 407.747 133.51 406.317 133.681ZM418.988 130.928L415.149 119.715C414.771 118.604 415.372 117.396 416.497 117.02C417.618 116.643 418.837 117.24 419.215 118.35L423.032 129.493C421.706 130.012 420.357 130.491 418.988 130.928ZM360.805 123.045L366.773 113.33C367.387 112.327 368.71 112.009 369.723 112.618C370.736 113.228 371.058 114.536 370.444 115.538L364.459 125.279C363.214 124.571 361.995 123.826 360.805 123.045ZM453.912 105.197L444.049 97.972C443.1 97.2741 442.899 95.9425 443.603 94.9993C444.307 94.0566 445.651 93.8577 446.604 94.5551L456.247 101.62C455.509 102.838 454.728 104.031 453.912 105.197ZM333.76 87.9908L345.348 82.8279C346.426 82.3463 347.701 82.824 348.186 83.8934C348.671 84.9633 348.191 86.2222 347.109 86.7038L335.233 91.996C334.7 90.6813 334.206 89.3463 333.76 87.9908ZM463.912 50.8121C464.255 52.1816 464.56 53.5672 464.817 54.9678L453.392 57.6349C452.242 57.9044 451.082 57.1958 450.812 56.0546C450.537 54.9129 451.254 53.7674 452.405 53.498L463.912 50.8121ZM342.167 29.3085L352.377 35.9196C353.369 36.5618 353.648 37.8799 352.999 38.8617C352.351 39.8431 351.02 40.119 350.028 39.4767L339.861 32.8924C340.591 31.6717 341.364 30.4765 342.167 29.3085ZM348.83 21.1086L357.134 27.1535C358.087 27.8485 358.293 29.1801 357.589 30.1246C356.889 31.0694 355.541 31.2722 354.588 30.5772L345.979 24.3062C346.894 23.2109 347.847 22.1444 348.83 21.1086ZM437.326 12.3507C438.493 13.1718 439.636 14.0283 440.748 14.9205L433.324 24.1859C432.585 25.1048 431.233 25.2587 430.306 24.5298C429.378 23.8008 429.224 22.4628 429.958 21.5439L437.326 12.3507ZM425.827 5.83905C427.137 6.42093 428.425 7.04319 429.687 7.70157L424.453 17.4201C423.895 18.4551 422.594 18.847 421.547 18.2953C420.503 17.7432 420.108 16.4549 420.666 15.4199L425.827 5.83905ZM382.964 1.69873L385.987 12.3672C386.305 13.4966 385.639 14.6705 384.497 14.9872C383.355 15.3043 382.17 14.6446 381.852 13.5148L378.813 2.78131C380.178 2.37837 381.56 2.01709 382.964 1.69873Z" fill="#FD9909"/>
<path d="M169.286 380.898C206.71 380.898 237.048 350.865 237.048 313.818C237.048 276.77 206.71 246.737 169.286 246.737C131.862 246.737 101.524 276.77 101.524 313.818C101.524 350.865 131.862 380.898 169.286 380.898Z" fill="#FFCF84"/>
<path fill-rule="evenodd" clip-rule="evenodd" d="M169.238 261.497C198.408 261.497 222.092 284.942 222.092 313.82C222.092 342.697 198.408 366.142 169.238 366.142C168.053 366.142 167.091 367.094 167.091 368.267C167.091 369.44 168.053 370.392 169.238 370.392C200.778 370.392 226.386 345.043 226.386 313.82C226.386 282.596 200.778 257.247 169.238 257.247C168.053 257.247 167.091 258.199 167.091 259.372C167.091 260.545 168.053 261.497 169.238 261.497Z" fill="#FD9909"/>
<path fill-rule="evenodd" clip-rule="evenodd" d="M169.247 366.142C140.074 366.142 116.389 342.697 116.389 313.82C116.389 284.942 140.074 261.497 169.247 261.497C170.432 261.497 171.394 260.545 171.394 259.372C171.394 258.199 170.432 257.247 169.247 257.247C137.704 257.247 112.099 282.596 112.099 313.82C112.099 345.043 137.704 370.392 169.247 370.392C170.432 370.392 171.394 369.44 171.394 368.267C171.394 367.094 170.432 366.142 169.247 366.142Z" fill="#FD9909"/>
<path fill-rule="evenodd" clip-rule="evenodd" d="M177.465 380.418L176.079 369.366C175.933 368.202 176.77 367.14 177.946 366.995C179.123 366.851 180.192 367.678 180.342 368.842L181.712 379.776C180.312 380.034 178.895 380.248 177.465 380.418ZM190.136 377.666L186.297 366.452C185.919 365.341 186.521 364.133 187.646 363.757C188.766 363.381 189.986 363.977 190.363 365.087L194.18 376.23C192.854 376.749 191.505 377.228 190.136 377.666ZM131.953 369.782L137.921 360.067C138.535 359.065 139.858 358.746 140.871 359.355C141.884 359.965 142.206 361.273 141.592 362.275L135.607 372.016C134.362 371.309 133.143 370.563 131.953 369.782ZM225.06 351.934L215.198 344.709C214.249 344.011 214.047 342.68 214.751 341.737C215.455 340.794 216.799 340.595 217.752 341.292L227.396 348.357C226.657 349.576 225.876 350.769 225.06 351.934ZM104.908 334.728L116.496 329.565C117.574 329.084 118.849 329.561 119.334 330.631C119.82 331.701 119.339 332.96 118.257 333.441L106.381 338.733C105.848 337.419 105.355 336.084 104.908 334.728ZM235.06 297.549C235.403 298.919 235.708 300.305 235.966 301.705L224.54 304.372C223.39 304.642 222.23 303.933 221.96 302.792C221.685 301.65 222.402 300.505 223.553 300.235L235.06 297.549ZM113.315 276.046L123.525 282.657C124.517 283.299 124.796 284.617 124.148 285.599C123.499 286.58 122.168 286.856 121.176 286.214L111.009 279.63C111.739 278.409 112.512 277.214 113.315 276.046ZM119.978 267.846L128.282 273.891C129.235 274.586 129.442 275.917 128.737 276.862C128.038 277.807 126.689 278.009 125.736 277.315L117.128 271.044C118.042 269.948 118.995 268.882 119.978 267.846ZM208.474 259.088C209.642 259.909 210.784 260.766 211.896 261.658L204.472 270.923C203.734 271.842 202.381 271.996 201.454 271.267C200.526 270.538 200.372 269.2 201.106 268.281L208.474 259.088ZM196.976 252.576C198.285 253.158 199.573 253.78 200.835 254.439L195.602 264.157C195.043 265.192 193.742 265.584 192.695 265.033C191.651 264.48 191.256 263.192 191.815 262.157L196.976 252.576ZM154.113 248.436L157.135 259.105C157.453 260.234 156.787 261.408 155.645 261.724C154.503 262.042 153.318 261.382 153.001 260.252L149.961 249.519C151.326 249.116 152.709 248.754 154.113 248.436Z" fill="#FD9909"/>
<path d="M1095.27 290.187C1132.69 290.187 1163.03 260.155 1163.03 223.107C1163.03 186.06 1132.69 156.027 1095.27 156.027C1057.84 156.027 1027.51 186.06 1027.51 223.107C1027.51 260.155 1057.84 290.187 1095.27 290.187Z" fill="#FFCF84"/>
<path fill-rule="evenodd" clip-rule="evenodd" d="M1095.22 170.786C1124.39 170.786 1148.07 194.231 1148.07 223.109C1148.07 251.986 1124.39 275.431 1095.22 275.431C1094.04 275.431 1093.07 276.383 1093.07 277.556C1093.07 278.729 1094.04 279.682 1095.22 279.682C1126.76 279.682 1152.37 254.332 1152.37 223.109C1152.37 191.885 1126.76 166.536 1095.22 166.536C1094.04 166.536 1093.07 167.488 1093.07 168.661C1093.07 169.834 1094.04 170.786 1095.22 170.786Z" fill="#FD9909"/>
<path fill-rule="evenodd" clip-rule="evenodd" d="M1095.23 275.431C1066.06 275.431 1042.37 251.986 1042.37 223.109C1042.37 194.231 1066.06 170.786 1095.23 170.786C1096.41 170.786 1097.38 169.834 1097.38 168.661C1097.38 167.488 1096.41 166.536 1095.23 166.536C1063.69 166.536 1038.08 191.885 1038.08 223.109C1038.08 254.332 1063.69 279.682 1095.23 279.682C1096.41 279.682 1097.38 278.729 1097.38 277.556C1097.38 276.383 1096.41 275.431 1095.23 275.431Z" fill="#FD9909"/>
<path fill-rule="evenodd" clip-rule="evenodd" d="M1103.45 289.708L1102.06 278.656C1101.91 277.492 1102.75 276.43 1103.93 276.285C1105.1 276.141 1106.17 276.968 1106.32 278.132L1107.69 289.066C1106.29 289.324 1104.88 289.538 1103.45 289.708ZM1116.12 286.956L1112.28 275.742C1111.9 274.631 1112.5 273.423 1113.63 273.047C1114.75 272.671 1115.97 273.267 1116.35 274.378L1120.16 285.52C1118.84 286.039 1117.49 286.518 1116.12 286.956ZM1057.94 279.072L1063.9 269.357C1064.52 268.355 1065.84 268.036 1066.85 268.645C1067.87 269.255 1068.19 270.563 1067.57 271.565L1061.59 281.307C1060.34 280.599 1059.12 279.853 1057.94 279.072ZM1151.04 261.224L1141.18 253.999C1140.23 253.301 1140.03 251.97 1140.73 251.027C1141.44 250.084 1142.78 249.885 1143.73 250.582L1153.38 257.647C1152.64 258.866 1151.86 260.059 1151.04 261.224ZM1030.89 244.018L1042.48 238.855C1043.56 238.374 1044.83 238.851 1045.32 239.921C1045.8 240.991 1045.32 242.25 1044.24 242.731L1032.36 248.023C1031.83 246.709 1031.34 245.374 1030.89 244.018ZM1161.04 206.839C1161.39 208.209 1161.69 209.595 1161.95 210.995L1150.52 213.662C1149.37 213.932 1148.21 213.223 1147.94 212.082C1147.67 210.94 1148.38 209.795 1149.53 209.525L1161.04 206.839ZM1039.3 185.336L1049.51 191.947C1050.5 192.589 1050.78 193.907 1050.13 194.889C1049.48 195.87 1048.15 196.146 1047.16 195.504L1036.99 188.92C1037.72 187.699 1038.49 186.504 1039.3 185.336ZM1045.96 177.136L1054.26 183.181C1055.22 183.876 1055.42 185.207 1054.72 186.152C1054.02 187.097 1052.67 187.3 1051.72 186.605L1043.11 180.334C1044.02 179.238 1044.98 178.172 1045.96 177.136ZM1134.46 168.378C1135.62 169.199 1136.77 170.056 1137.88 170.948L1130.45 180.213C1129.72 181.132 1128.36 181.286 1127.44 180.557C1126.51 179.828 1126.35 178.49 1127.09 177.571L1134.46 168.378ZM1122.96 161.866C1124.27 162.448 1125.56 163.071 1126.82 163.729L1121.58 173.447C1121.03 174.482 1119.72 174.874 1118.68 174.323C1117.63 173.77 1117.24 172.482 1117.8 171.447L1122.96 161.866ZM1080.09 157.726L1083.12 168.395C1083.44 169.524 1082.77 170.698 1081.63 171.015C1080.49 171.332 1079.3 170.672 1078.98 169.542L1075.94 158.809C1077.31 158.406 1078.69 158.044 1080.09 157.726Z" fill="#FD9909"/>
<path fill-rule="evenodd" clip-rule="evenodd" d="M853.866 141.391V130.81C853.866 129.06 855.286 127.639 857.037 127.639C858.787 127.639 860.208 129.06 860.208 130.81V141.391H870.786C872.537 141.391 873.957 142.811 873.957 144.562C873.957 146.312 872.537 147.733 870.786 147.733H860.208V158.314C860.208 160.063 858.787 161.485 857.037 161.485C855.286 161.485 853.866 160.063 853.866 158.314V147.733H843.28C841.53 147.733 840.109 146.312 840.109 144.562C840.109 142.811 841.53 141.391 843.28 141.391H853.866Z" fill="#FD9500"/>
<path fill-rule="evenodd" clip-rule="evenodd" d="M336.517 261.415V250.834C336.517 249.084 337.938 247.663 339.688 247.663C341.438 247.663 342.859 249.084 342.859 250.834V261.415H353.438C355.188 261.415 356.609 262.835 356.609 264.586C356.609 266.336 355.188 267.757 353.438 267.757H342.859V278.338C342.859 280.087 341.438 281.509 339.688 281.509C337.938 281.509 336.517 280.087 336.517 278.338V267.757H325.932C324.181 267.757 322.761 266.336 322.761 264.586C322.761 262.835 324.181 261.415 325.932 261.415H336.517Z" fill="#FD9500"/>
<path fill-rule="evenodd" clip-rule="evenodd" d="M1060.72 369.899V359.318C1060.72 357.568 1062.14 356.147 1063.89 356.147C1065.64 356.147 1067.06 357.568 1067.06 359.318V369.899H1077.64C1079.39 369.899 1080.81 371.319 1080.81 373.07C1080.81 374.82 1079.39 376.241 1077.64 376.241H1067.06V386.821C1067.06 388.571 1065.64 389.992 1063.89 389.992C1062.14 389.992 1060.72 388.571 1060.72 386.821V376.241H1050.14C1048.38 376.241 1046.96 374.82 1046.96 373.07C1046.96 371.319 1048.38 369.899 1050.14 369.899H1060.72Z" fill="#FD9500"/>
</svg>
