<svg width="484" height="379" viewBox="0 0 484 379" fill="none" xmlns="http://www.w3.org/2000/svg">
<path fill-rule="evenodd" clip-rule="evenodd" d="M133.693 169.429C133.693 169.429 86.794 164.161 68.6331 198.057C62.5217 209.461 17.2249 315.225 12.4231 356.906C12.4231 356.906 1.51502 360.356 0 365.955H64.2578C64.9388 365.955 65.5531 365.546 65.8156 364.917C70.5044 353.7 111.649 255.255 111.649 255.255C111.649 255.255 116.94 344.493 118.02 362.725C118.128 364.54 119.631 365.955 121.448 365.955C133.63 365.955 176.059 365.955 176.059 365.955C176.059 365.955 174.553 360.073 163.534 356.906C163.534 356.906 169.493 218.09 152.951 183.334L133.693 169.429Z" fill="url(#paint0_linear_412_196)"/>
<path fill-rule="evenodd" clip-rule="evenodd" d="M102.53 277.052L108.33 218.532C108.37 218.125 108.716 217.819 109.125 217.83C109.532 217.84 109.862 218.165 109.881 218.574L111.534 255.51L102.53 277.052Z" fill="#13524E"/>
<path fill-rule="evenodd" clip-rule="evenodd" d="M164.493 303.42C164.493 304.307 164.49 305.187 164.488 306.061H114.576L114.42 303.42H164.493ZM26.4308 303.42H91.434L90.3302 306.061H25.5444L25.5584 306.019C25.8387 305.179 26.1205 304.342 26.4036 303.502L26.4308 303.42Z" fill="#82B5B2"/>
<path d="M97.5933 88.1488C107.126 88.1488 114.853 80.4212 114.853 70.8888C114.853 61.3564 107.126 53.6288 97.5933 53.6288C88.0608 53.6288 80.3333 61.3564 80.3333 70.8888C80.3333 80.4212 88.0608 88.1488 97.5933 88.1488Z" fill="#A8CFCC"/>
<path fill-rule="evenodd" clip-rule="evenodd" d="M96.3183 53.6756C97.1899 57.1935 98.4498 66.0649 91.8921 73.9036C91.1969 72.7779 89.9389 72.0251 88.5039 72.0251C86.3167 72.0251 84.5413 73.7731 84.5413 75.9257C84.5413 78.0786 86.3167 79.8266 88.5039 79.8266C88.8822 79.8266 89.2482 79.774 89.595 79.6763C89.6444 81.0357 89.2929 82.9364 87.6257 84.978C83.2148 81.8508 80.3333 76.7038 80.3333 70.8891C80.3333 61.7916 87.3867 54.3288 96.3183 53.6756Z" fill="black"/>
<path fill-rule="evenodd" clip-rule="evenodd" d="M83.4695 79.6219C82.9788 79.9098 81.743 79.8665 81.1809 79.9793C79.3373 80.3488 77.5043 80.7775 75.6792 81.2286C70.0346 82.6235 64.4702 84.302 59.2044 86.7953C55.3733 88.6093 51.362 90.9056 49.5493 94.9256C46.9144 100.769 51.5973 106.014 57.6854 105.465C63.5569 104.936 68.1651 100.682 72.0773 96.6813C76.6546 92.0007 81.8811 86.9556 85.3905 81.3697" fill="black"/>
<path fill-rule="evenodd" clip-rule="evenodd" d="M63.4351 118.416C60.5139 121.529 34.8145 149.625 15.5049 171.301C9.02648 178.632 8.43959 189.456 14.0874 197.446C14.0866 197.449 14.0868 197.449 14.0868 197.449C19.0474 204.466 28.0257 207.396 36.1706 204.654C44.9958 201.68 57.0485 194.813 71.0749 179.427C78.1999 171.612 83.8641 164.475 88.538 160.106C88.538 160.106 109.043 166.703 119.59 155.396C119.59 155.396 145.336 188.294 170.254 201.408C180.108 206.532 192.25 203.093 197.953 193.561C200.607 189.16 201.722 183.862 198.734 178.109C185.655 152.913 165.117 133.848 133.725 103.665C127.632 97.8049 116.977 89.4345 96.3413 94.2112C88.5663 96.011 79.089 101.737 63.4351 118.416Z" fill="#A8CFCC"/>
<path fill-rule="evenodd" clip-rule="evenodd" d="M108.658 139.128C108.658 139.128 109.334 138.954 110.132 139.026C110.808 139.087 111.609 139.326 112.021 140.177C112.573 141.321 111.738 142.266 110.465 143.232C107.884 145.19 103.339 146.902 99.3136 148.541C98.7721 148.761 98.5133 149.378 98.7325 149.918C98.9517 150.458 99.5698 150.718 100.109 150.498C104.316 148.786 109.047 146.961 111.743 144.915C113.994 143.208 114.9 141.283 113.922 139.259C113.125 137.606 111.635 137.04 110.322 136.921C109.131 136.814 108.119 137.085 108.119 137.085C107.554 137.234 107.219 137.813 107.367 138.377C107.517 138.941 108.096 139.277 108.658 139.128Z" fill="#82B5B2"/>
<path fill-rule="evenodd" clip-rule="evenodd" d="M116.835 134.809C116.835 134.809 118.092 133.59 119.804 132.618C120.873 132.01 122.125 131.483 123.354 131.489C123.855 131.49 124.328 131.708 124.653 132.086C124.978 132.464 125.121 132.965 125.044 133.457C124.838 134.643 124.273 136.254 122.815 137.79C120.81 139.905 115.736 146.288 99.5771 148.334C98.9986 148.408 98.5892 148.937 98.6632 149.515C98.7371 150.094 99.2654 150.504 99.8438 150.431C116.898 148.27 122.231 141.477 124.349 139.245C126.172 137.324 126.866 135.308 127.131 133.799C127.302 132.677 126.983 131.557 126.259 130.711C125.533 129.865 124.476 129.378 123.361 129.376C121.777 129.368 120.142 129.996 118.76 130.78C116.798 131.895 115.361 133.294 115.361 133.294C114.944 133.701 114.933 134.37 115.34 134.789C115.747 135.206 116.415 135.216 116.835 134.809Z" fill="#82B5B2"/>
<path fill-rule="evenodd" clip-rule="evenodd" d="M119.494 141.734C119.494 141.734 116.787 148.644 114.114 151.314C113.702 151.727 113.702 152.396 114.114 152.809C114.526 153.221 115.197 153.221 115.609 152.809C118.488 149.931 121.459 142.512 121.459 142.512C121.673 141.97 121.409 141.356 120.865 141.141C120.324 140.926 119.708 141.192 119.494 141.734Z" fill="#82B5B2"/>
<path fill-rule="evenodd" clip-rule="evenodd" d="M111.339 146.293V148.78C111.339 149.363 111.812 149.836 112.395 149.836C112.976 149.836 113.452 149.363 113.452 148.78V146.293C113.452 145.71 112.976 145.237 112.395 145.237C111.812 145.237 111.339 145.71 111.339 146.293Z" fill="#82B5B2"/>
<path fill-rule="evenodd" clip-rule="evenodd" d="M118.983 106.366C118.983 106.366 117.292 107.067 116.497 108.994C116.009 110.176 115.829 111.857 116.754 114.166C117.821 116.827 120.565 124.702 116.835 130.764C116.529 131.26 116.685 131.912 117.179 132.217C117.678 132.523 118.328 132.368 118.634 131.871C122.791 125.118 119.902 116.345 118.713 113.38C118.074 111.78 118.111 110.62 118.449 109.8C118.896 108.724 119.812 108.309 119.812 108.309C120.348 108.08 120.599 107.459 120.369 106.922C120.14 106.387 119.519 106.137 118.983 106.366Z" fill="#82B5B2"/>
<path fill-rule="evenodd" clip-rule="evenodd" d="M78.6236 170.888C76.3024 173.559 73.7951 176.443 71.0749 179.427C57.0485 194.813 44.9958 201.68 36.1706 204.654C28.0257 207.396 19.0474 204.466 14.0868 197.449C14.0868 197.449 14.0866 197.449 14.0874 197.446C8.43959 189.456 9.02648 178.632 15.5049 171.301C34.8145 149.625 60.5139 121.529 63.4351 118.416C79.089 101.737 88.5663 96.011 96.3413 94.2112C116.977 89.4345 127.632 97.8049 133.725 103.665C165.117 133.848 185.655 152.913 198.734 178.109C201.722 183.862 200.607 189.16 197.953 193.561C193.346 201.26 184.538 204.984 176.128 203.431L168.983 200.724C160.378 195.969 151.726 188.968 144.116 181.878C139.784 177.378 136.816 173.949 136.816 173.949L149.438 142.779L129.109 128.363C128.253 122.466 127.915 118.697 126.09 114.789C125.593 113.72 124.983 112.64 124.22 111.504C120.672 106.214 118.438 109.363 118.438 109.363C116.79 107.328 115.261 106.391 114.241 105.961C113.702 105.747 113.097 105.784 112.59 106.064C112.086 106.343 111.732 106.835 111.626 107.404C111.381 108.802 112.236 110.379 112.699 111.102C112.841 111.321 113.005 111.527 113.187 111.715C123.205 122.072 117.667 133.697 117.667 133.697C112.717 139.79 103.879 139.645 103.879 139.645C97.4163 140.165 93.3514 138.173 91.0461 136.356C87.6183 133.662 83.0846 132.826 78.9215 134.121C68.7606 137.359 57.7968 147.006 57.7968 147.006L78.6236 170.888Z" fill="url(#paint1_linear_412_196)"/>
<path fill-rule="evenodd" clip-rule="evenodd" d="M88.613 160.115L98.9701 148.532C98.9701 148.532 111.45 154.229 115.404 149.772L120.42 156.379C119.905 155.742 119.635 155.395 119.635 155.395C109.321 166.454 89.4773 160.386 88.613 160.115Z" fill="#82B5B2"/>
<path fill-rule="evenodd" clip-rule="evenodd" d="M60.1785 145.088C58.7158 146.249 57.855 147.007 57.855 147.007L59.5591 148.961L28.5886 174.635C28.0274 175.099 27.1943 175.02 26.7289 174.46C26.2638 173.898 26.3417 173.066 26.903 172.6L59.8531 145.286C59.954 145.203 60.0639 145.136 60.1785 145.088ZM147.975 141.701C148.252 141.718 148.53 141.824 148.757 142.02L178.917 168.156C179.467 168.634 179.527 169.468 179.049 170.019C178.571 170.57 177.737 170.63 177.187 170.152L148.485 145.28L149.496 142.78L147.975 141.701ZM63.1826 142.799C63.3382 140.256 63.779 135.28 64.9755 130.927C65.1044 130.526 65.4824 130.257 65.9039 130.267C66.3255 130.278 66.69 130.564 66.799 130.971C67.4483 133.381 68.3384 136.697 68.9379 138.932C66.8128 140.23 64.8487 141.582 63.1826 142.799ZM135.979 133.195L137.394 126.456C137.447 126.204 137.65 126.01 137.904 125.968C138.158 125.926 138.411 126.045 138.541 126.267C139.341 128.035 140.545 131.44 141.129 136.848L135.979 133.195Z" fill="#13524E"/>
<path d="M102.923 140.146C112.188 140.146 119.699 132.738 119.699 123.601C119.699 114.463 112.188 107.055 102.923 107.055C93.6576 107.055 86.1467 114.463 86.1467 123.601C86.1467 132.738 93.6576 140.146 102.923 140.146Z" fill="#FFCD80"/>
<path d="M102.847 137.361C110.611 137.361 116.905 131.153 116.905 123.496C116.905 115.839 110.611 109.631 102.847 109.631C95.0832 109.631 88.7893 115.839 88.7893 123.496C88.7893 131.153 95.0832 137.361 102.847 137.361Z" fill="#FFB000"/>
<path d="M98.2344 128.946C99.7909 130.079 101.567 130.582 103.591 130.506C106.001 130.358 107.138 129.451 107.082 127.779C106.993 126.418 106.136 125.637 104.51 125.435C103.751 125.37 102.941 125.308 102.051 125.224C100.452 125.047 99.1952 124.518 98.307 123.661C97.3912 122.779 96.9029 121.67 96.816 120.335C96.7125 118.743 97.1476 117.433 98.1732 116.402C99.147 115.374 100.593 114.811 102.484 114.69C104.796 114.625 106.834 115.167 108.598 116.289L107.191 118.653C105.758 117.823 104.196 117.412 102.535 117.47C101.679 117.513 100.967 117.755 100.425 118.221C99.8567 118.687 99.5889 119.371 99.6198 120.245C99.6548 120.784 99.8923 121.236 100.336 121.652C100.779 122.068 101.471 122.316 102.391 122.45C102.888 122.502 103.595 122.57 104.483 122.628C106.236 122.772 107.546 123.324 108.441 124.284C109.308 125.219 109.797 126.328 109.882 127.638C110.031 131.134 107.968 133.016 103.745 133.28C101.023 133.418 98.6078 132.689 96.5286 131.119L98.2344 128.946Z" fill="#FFCD80"/>
<path fill-rule="evenodd" clip-rule="evenodd" d="M101.954 112.378L101.471 135.37L104.674 135.37L104.674 112.378L101.954 112.378Z" fill="#FFCD80"/>
<path fill-rule="evenodd" clip-rule="evenodd" d="M37.3348 326.028C35.74 325.741 34.5293 324.343 34.5293 322.666V315.831C34.5293 313.945 36.0607 312.413 37.9468 312.413H76.336C78.2223 312.413 79.7537 313.945 79.7537 315.831V322.666C79.7537 324.343 78.543 325.741 76.9482 326.028C78.543 326.319 79.7537 327.716 79.7537 329.393V336.229C79.7537 337.906 78.543 339.301 76.9482 339.591C78.543 339.879 79.7537 341.276 79.7537 342.954V349.789C79.7537 351.466 78.543 352.864 76.9482 353.151C78.543 353.442 79.7537 354.837 79.7537 356.514V363.349C79.7537 365.235 78.2223 366.767 76.336 366.767H37.9468C36.0607 366.767 34.5293 365.235 34.5293 363.349V356.514C34.5293 354.837 35.74 353.442 37.3348 353.151C35.74 352.864 34.5293 351.466 34.5293 349.789V342.954C34.5293 341.276 35.74 339.879 37.3348 339.591C35.74 339.301 34.5293 337.906 34.5293 336.229V329.393C34.5293 327.716 35.74 326.319 37.3348 326.028Z" fill="#FFCD80"/>
<path fill-rule="evenodd" clip-rule="evenodd" d="M70.6246 312.413V323.35H79.4902C79.533 323.35 79.5752 323.353 79.6167 323.356C79.3507 324.655 78.3478 325.685 77.065 325.992H76.9968V326.007C76.9585 326.015 76.92 326.023 76.8809 326.028C76.92 326.036 76.9585 326.044 76.9968 326.052V336.908H79.4902C79.533 336.908 79.5755 336.91 79.6172 336.913C79.3526 338.21 78.3542 339.24 77.0755 339.549H74.251V350.468H79.4902C79.5332 350.468 79.5757 350.468 79.6177 350.473C79.3547 351.765 78.3605 352.795 77.0861 353.109H70.0807V366.767H67.4395V353.109H64.9401V366.767H62.2988V353.109H44.7573V366.767H42.116V353.109H37.0622C35.786 352.795 34.7905 351.762 34.5293 350.468H51.1256V339.549H37.0728C35.7921 339.24 34.7924 338.207 34.5298 336.908H38.3345V325.992H37.0834C35.7987 325.685 34.7947 324.65 34.5303 323.35H45.623V312.413H48.2643V323.35H62.6195V312.413H65.2607V323.35H67.9833V312.413H70.6246ZM53.7668 339.549V350.468H55.7633V339.549H53.7668ZM58.4046 339.549V350.468H71.6097V339.549H58.4046ZM40.9758 325.992V336.908H60.6676V325.992H40.9758ZM63.3088 325.992V336.908H74.3556V325.992H63.3088Z" fill="#FDA425"/>
<path fill-rule="evenodd" clip-rule="evenodd" d="M392.208 144.006C390.401 143.114 389.157 141.252 389.157 139.102V128.17C389.157 125.153 391.606 122.704 394.622 122.704H477.626C480.642 122.704 483.091 125.153 483.091 128.17V139.102C483.091 141.252 481.847 143.114 480.037 144.006C481.847 144.898 483.091 146.76 483.091 148.91V159.842C483.091 161.733 482.129 163.4 480.669 164.382C482.129 165.363 483.091 167.031 483.091 168.922V179.854C483.091 181.745 482.129 183.411 480.669 184.394C482.129 185.374 483.091 187.043 483.091 188.932V199.864C483.091 201.755 482.129 203.422 480.669 204.404C482.129 205.387 483.091 207.053 483.091 208.944V219.877C483.091 221.765 482.129 223.434 480.669 224.417C482.129 225.397 483.091 227.066 483.091 228.955V239.887C483.091 241.778 482.129 243.444 480.669 244.427C482.129 245.41 483.091 247.076 483.091 248.967V259.899C483.091 261.788 482.129 263.457 480.669 264.437C482.129 265.42 483.091 267.086 483.091 268.977V279.91C483.091 281.801 482.129 283.467 480.669 284.45C482.129 285.432 483.091 287.099 483.091 288.99V299.922C483.091 301.811 482.129 303.48 480.669 304.46C482.129 305.443 483.091 307.109 483.091 309V319.932C483.091 321.824 482.129 323.49 480.669 324.473C482.129 325.453 483.091 327.122 483.091 329.013V339.943C483.091 341.834 482.129 343.503 480.669 344.483C482.129 345.465 483.091 347.132 483.091 349.023V359.955C483.091 362.972 480.642 365.42 477.626 365.42H394.622C391.606 365.42 389.157 362.972 389.157 359.955V349.023C389.157 347.132 390.119 345.465 391.579 344.483C390.119 343.503 389.157 341.834 389.157 339.943V329.013C389.157 327.122 390.119 325.453 391.579 324.473C390.119 323.49 389.157 321.824 389.157 319.932V309C389.157 307.109 390.119 305.443 391.579 304.46C390.119 303.48 389.157 301.811 389.157 299.922V288.99C389.157 287.099 390.119 285.432 391.579 284.45C390.119 283.467 389.157 281.801 389.157 279.91V268.977C389.157 267.086 390.119 265.42 391.579 264.437C390.119 263.457 389.157 261.788 389.157 259.899V248.967C389.157 247.076 390.119 245.41 391.579 244.427C390.119 243.444 389.157 241.778 389.157 239.887V228.955C389.157 227.066 390.119 225.397 391.579 224.417C390.119 223.434 389.157 221.765 389.157 219.877V208.944C389.157 207.053 390.119 205.387 391.579 204.404C390.119 203.422 389.157 201.755 389.157 199.864V188.932C389.157 187.043 390.119 185.374 391.579 184.394C390.119 183.411 389.157 181.745 389.157 179.854V168.922C389.157 167.031 390.119 165.363 391.579 164.382C390.119 163.4 389.157 161.733 389.157 159.842V148.91C389.157 146.76 390.401 144.898 392.208 144.006Z" fill="#FFCD80"/>
<path fill-rule="evenodd" clip-rule="evenodd" d="M457.63 122.703V141.232H467.746C467.881 140.646 468.407 140.209 469.033 140.209C469.659 140.209 470.184 140.646 470.319 141.232H482.717C482.241 142.353 481.404 143.282 480.35 143.873H470.353V161.81H482.783C482.376 162.864 481.652 163.76 480.728 164.381C480.762 164.404 480.794 164.428 480.828 164.452H478.512V182.262C478.512 182.304 478.509 182.346 478.507 182.389H482.527C482.101 183.197 481.481 183.886 480.728 184.393C481.008 184.581 481.269 184.795 481.51 185.03H467.572V201.971H482.727C482.313 202.964 481.61 203.809 480.728 204.403C480.826 204.469 480.923 204.541 481.016 204.612H475.506V221.962H482.735C482.321 222.966 481.615 223.817 480.728 224.416C480.818 224.474 480.905 224.538 480.992 224.604H466.13V241.981H482.735C482.318 242.979 481.615 243.829 480.728 244.426C480.82 244.49 480.91 244.553 480.997 244.622H474.96V262.16H482.659C482.239 263.087 481.565 263.874 480.728 264.436C480.894 264.55 481.056 264.672 481.209 264.801H463.536V281.935H482.762C482.35 282.962 481.637 283.839 480.728 284.449C480.789 284.489 480.847 284.531 480.905 284.576H471.217V301.694H482.854C482.487 302.764 481.8 303.683 480.905 304.335H462.699V321.989H482.749C482.337 323.004 481.626 323.867 480.728 324.472C480.802 324.522 480.876 324.575 480.95 324.631H472.854V341.743H482.846C482.471 342.816 481.774 343.735 480.868 344.385H454.152V365.419H451.511V344.385H446.175V365.419H443.534V344.385H408.841V365.419H406.2V344.385H391.499C390.593 343.735 389.896 342.816 389.52 341.743H394.214V324.631H391.417C391.488 324.575 391.562 324.522 391.639 324.472C390.741 323.867 390.03 323.004 389.616 321.989H406.583V304.335H391.462C390.566 303.683 389.877 302.764 389.51 301.694H396.113V284.576H391.459C391.517 284.531 391.578 284.489 391.639 284.449C390.73 283.839 390.014 282.962 389.605 281.935H403.95V264.801H391.155C391.311 264.672 391.47 264.55 391.639 264.436C390.801 263.874 390.128 263.087 389.705 262.16H395.447V244.622H391.367C391.456 244.553 391.546 244.49 391.639 244.426C390.751 243.829 390.046 242.979 389.631 241.981H404.9V224.604H391.375C391.462 224.538 391.549 224.474 391.639 224.416C390.749 223.817 390.043 222.966 389.629 221.962H393.606V204.612H391.348C391.443 204.541 391.541 204.469 391.639 204.403C390.754 203.809 390.054 202.964 389.637 201.971H398.266V185.03H390.857C391.097 184.795 391.359 184.581 391.639 184.393C390.886 183.886 390.265 183.197 389.84 182.389H413.804V164.452H400.278C400.107 164.533 399.916 164.578 399.716 164.578C399.512 164.578 399.322 164.533 399.15 164.452H391.536C391.57 164.428 391.604 164.404 391.639 164.381C390.714 163.76 389.991 162.864 389.581 161.81H398.395V143.873H392.016C390.963 143.282 390.123 142.352 389.647 141.232H398.427C398.564 140.646 399.087 140.209 399.716 140.209C400.342 140.209 400.867 140.646 401.002 141.232H417.6V122.703H420.241V141.232H423.107V122.703H425.748V141.232H433.339C433.473 140.646 433.999 140.209 434.628 140.209C435.254 140.209 435.779 140.646 435.914 141.232H439.918C440.055 140.646 440.578 140.209 441.207 140.209C441.833 140.209 442.359 140.646 442.493 141.232H454.989V122.703H457.63ZM396.855 324.631V341.743H420.479V324.631H396.855ZM423.12 324.631V341.743H427.156V324.631H423.12ZM429.797 324.631V341.743H470.213V324.631H429.797ZM409.224 304.335V321.989H433.759V304.335H409.224ZM455.018 304.335H436.4V321.989H455.01V304.475L455.018 304.335ZM457.651 321.989H460.058V304.335H457.644C457.649 304.38 457.651 304.428 457.651 304.475V321.989ZM451.991 284.576V301.694H468.576V284.576H451.991ZM423.194 301.694H449.35V284.576H423.17C423.186 284.655 423.194 284.737 423.194 284.819V301.694ZM420.574 284.576H398.754V301.694H420.552V284.819C420.552 284.74 420.558 284.658 420.574 284.579V284.576ZM442.147 264.801V281.935H460.895V264.801H442.147ZM436.181 264.801V281.935H439.506V264.801H436.181ZM406.591 264.801V281.935H433.54V264.801H406.591ZM418.157 244.622V262.16H450.486V244.622H418.157ZM398.089 244.622V262.16H415.516V244.622H398.089ZM453.127 244.622V262.16H472.318V244.622H453.127ZM430.415 224.604V241.981H433.035V224.604H430.415ZM417.066 241.981H427.774V224.604H407.542V241.981H416.606C416.68 241.967 416.757 241.959 416.836 241.959C416.916 241.959 416.992 241.967 417.066 241.981ZM435.676 224.604V241.981H463.489V224.604H435.676ZM465.203 221.962H472.865V204.612H451.244V221.962H464.416C464.54 221.923 464.672 221.902 464.809 221.902C464.947 221.902 465.079 221.923 465.203 221.962ZM444.881 204.612V221.962H448.603V204.612H444.881ZM396.248 204.612V221.962H422.127V204.612H396.248ZM424.768 204.612V221.962H442.24V204.612H424.768ZM400.907 185.03V201.971H404.132V185.03H400.907ZM437.174 185.03V201.971H464.931V185.03H437.174ZM406.773 185.03V201.971H434.533V185.03H406.773ZM421.12 164.452H416.445V182.389H421.128C421.123 182.346 421.12 182.304 421.12 182.262V164.452ZM453.053 164.452H441.77C441.601 164.533 441.408 164.578 441.207 164.578C441.004 164.578 440.813 164.533 440.642 164.452H435.19C435.019 164.533 434.828 164.578 434.628 164.578C434.424 164.578 434.234 164.533 434.062 164.452H423.762V182.262C423.762 182.304 423.762 182.346 423.756 182.389H453.058C453.053 182.346 453.053 182.304 453.053 182.262V164.452ZM475.871 164.452H469.598C469.426 164.533 469.236 164.578 469.033 164.578C468.832 164.578 468.639 164.533 468.47 164.452H455.694V182.262C455.694 182.304 455.692 182.346 455.686 182.389H475.876C475.873 182.346 475.871 182.304 475.871 182.262V164.452ZM401.036 143.873V161.81H433.307V143.873H401.036ZM435.948 143.873V161.81H439.886V143.873H435.948ZM442.528 143.873V161.81H467.712V143.873H442.528Z" fill="#FDA425"/>
<path fill-rule="evenodd" clip-rule="evenodd" d="M251.878 265.175C250.417 264.195 249.456 262.526 249.456 260.638V249.706C249.456 246.689 251.904 244.238 254.92 244.238H337.921C340.94 244.238 343.389 246.689 343.389 249.706V260.638C343.389 262.526 342.427 264.195 340.967 265.175C342.427 266.158 343.389 267.825 343.389 269.716V280.648C343.389 282.539 342.427 284.206 340.967 285.188C342.427 286.168 343.389 287.837 343.389 289.728V300.658C343.389 302.549 342.427 304.218 340.967 305.198C342.427 306.181 343.389 307.847 343.389 309.739V320.671C343.389 322.562 342.427 324.229 340.967 325.211C342.427 326.191 343.389 327.86 343.389 329.749V340.681C343.389 342.572 342.427 344.239 340.967 345.221C342.427 346.204 343.389 347.87 343.389 349.762V360.694C343.389 363.71 340.94 366.158 337.921 366.158H254.92C251.904 366.158 249.456 363.71 249.456 360.694V349.762C249.456 347.87 250.417 346.204 251.878 345.221C250.417 344.239 249.456 342.572 249.456 340.681V329.749C249.456 327.86 250.417 326.191 251.878 325.211C250.417 324.229 249.456 322.562 249.456 320.671V309.739C249.456 307.847 250.417 306.181 251.878 305.198C250.417 304.218 249.456 302.549 249.456 300.658V289.728C249.456 287.837 250.417 286.168 251.878 285.188C250.417 284.206 249.456 282.539 249.456 280.648V269.716C249.456 267.825 250.417 266.158 251.878 265.175Z" fill="#FFCD80"/>
<path fill-rule="evenodd" clip-rule="evenodd" d="M323.926 262.93H342.928C342.505 263.844 341.837 264.621 341.01 265.175C341.19 265.297 341.361 265.429 341.528 265.572H333.691V282.674V282.676H343.041C342.632 283.704 341.916 284.578 341.01 285.188C341.071 285.23 341.134 285.273 341.195 285.318H325.553V302.306C325.553 302.383 325.548 302.457 325.535 302.528H343.102C342.708 303.608 341.985 304.53 341.052 305.169H336.232V322.271C336.232 322.345 336.224 322.419 336.214 322.491H343.12C342.74 323.565 342.035 324.485 341.121 325.132H326.729V342.535H343.107C342.719 343.615 342 344.534 341.073 345.176H335.585V366.158H332.944V345.176H315.905C315.905 345.2 315.908 345.221 315.908 345.242V366.158H313.266V345.242C313.266 345.221 313.266 345.2 313.266 345.176H300.24C300.071 345.255 299.886 345.298 299.69 345.298C299.492 345.298 299.307 345.255 299.138 345.176H282.216V366.158H279.575V345.176H274.958V366.158H272.317V345.176H251.855C250.928 344.534 250.209 343.615 249.821 342.535H268.046V325.132H251.807C250.896 324.485 250.188 323.565 249.808 322.491H256.517V305.169H251.879C250.944 304.53 250.22 303.608 249.826 302.528H266.041V285.318H251.733C251.797 285.273 251.857 285.23 251.921 285.188C251.012 284.578 250.299 283.704 249.887 282.676H255.664V265.572H251.403C251.567 265.429 251.739 265.297 251.921 265.175C251.092 264.621 250.426 263.844 250.001 262.93H262.142V244.238H264.784V262.93H267.488V244.238H270.13V262.93H294.387V244.238H297.028V262.93H321.285V244.238H323.926V262.93ZM270.687 325.132V342.535H298.37V325.132H270.687ZM301.011 325.132V342.535H318.858V325.132H301.011ZM321.499 325.132V342.535H324.088V325.132H321.499ZM259.158 305.169V322.491H280.526V305.169H259.158ZM309.077 305.169H283.167V322.491H309.149C309.104 322.356 309.077 322.211 309.077 322.06V305.169ZM333.591 305.169H311.719V322.06C311.719 322.211 311.695 322.356 311.647 322.491H333.607C333.596 322.419 333.591 322.345 333.591 322.271V305.169ZM268.682 285.318V302.528H288.978V285.318H268.682ZM291.619 285.318V302.528H294.741V285.318H291.619ZM322.912 285.318H297.382V302.528H309.991C310.118 302.486 310.255 302.465 310.398 302.465C310.541 302.465 310.678 302.486 310.807 302.528H322.933C322.92 302.457 322.912 302.383 322.912 302.306V285.318ZM258.305 265.572V282.676H281.564V265.572H258.305ZM284.205 265.572V282.676H305.234V265.572H284.205ZM307.876 265.572V282.676H311.41V265.572H307.876ZM331.05 265.572H314.051V282.676H331.05V282.674V265.572Z" fill="#FDA425"/>
<path fill-rule="evenodd" clip-rule="evenodd" d="M343.396 186.942H368.839C412.612 186.942 448.153 228.209 448.153 279.037C448.153 325.935 417.945 365.419 378.884 371.132C375.608 371.613 343.567 371.132 343.567 371.132C299.794 371.132 264.253 329.865 264.253 279.037C264.253 228.275 299.702 187.048 343.396 186.942Z" fill="#FDA425"/>
<path d="M343.566 371.133C387.369 371.133 422.878 329.9 422.878 279.037C422.878 228.174 387.369 186.942 343.566 186.942C299.763 186.942 264.253 228.174 264.253 279.037C264.253 329.9 299.763 371.133 343.566 371.133Z" fill="#FFCD80"/>
<path fill-rule="evenodd" clip-rule="evenodd" d="M343.763 224.314L341.024 224.162L341.087 220.075L345.865 220.341C346.997 220.404 347.895 221.37 347.878 222.498L347.772 229.409C351.95 229.83 355.952 230.725 359.772 232.092C364.653 233.836 369.243 236.35 373.536 239.63C374.023 239.998 374.326 240.557 374.377 241.154C374.423 241.751 374.212 242.329 373.789 242.738L364.436 251.804C363.731 252.486 362.62 252.538 361.803 251.924C357.568 248.748 352.807 246.691 347.52 245.75L347.165 268.78C366.829 274.061 376.163 284.04 375.677 298.171C375.444 305.848 372.487 312.054 366.839 316.769C361.677 321.245 354.84 323.932 346.303 324.763L346.12 336.638C346.103 337.764 345.176 338.626 344.044 338.563L339.354 338.302L339.417 334.22L342.068 334.368L342.247 322.75C342.263 321.715 343.047 320.889 344.077 320.824C352.473 320.278 359.156 317.91 364.125 313.608C368.913 309.609 371.396 304.364 371.595 297.873C372.031 285.16 362.875 276.838 344.681 272.325C343.722 272.084 343.041 271.203 343.056 270.225L343.471 243.279C343.48 242.716 343.723 242.192 344.139 241.826C344.555 241.465 345.11 241.295 345.673 241.366C351.991 242.115 357.676 244.214 362.722 247.654L369.165 241.41C365.808 239.1 362.269 237.273 358.537 235.942C354.461 234.483 350.169 233.615 345.649 233.324C344.528 233.253 343.64 232.29 343.658 231.168L343.763 224.314ZM346.558 308.238C349.54 307.504 351.729 306.359 353.062 304.707C353.894 303.639 354.509 302.419 354.908 301.052L358.832 302.358C358.284 304.207 357.444 305.856 356.299 307.33C354.113 310.035 350.336 311.922 344.868 312.776C344.265 312.869 343.639 312.686 343.164 312.27C342.694 311.855 342.424 311.255 342.434 310.639L342.656 296.197L346.74 296.425L346.558 308.238ZM325.101 249.213C325.845 247.406 326.804 245.921 327.954 244.749C327.982 244.72 328.015 244.691 328.043 244.662C330.634 242.337 333.69 241.083 337.199 240.898C337.774 240.869 338.351 241.089 338.777 241.497C339.203 241.91 339.44 242.478 339.431 243.054L339.249 254.881L335.166 254.654L335.309 245.329C333.672 245.753 332.199 246.549 330.885 247.717C330.067 248.563 329.405 249.641 328.871 250.935C328.86 250.969 328.843 251.003 328.826 251.037C328.187 252.374 327.877 254.021 327.847 255.955L323.764 255.728C323.803 253.165 324.263 250.997 325.101 249.213Z" fill="#FDA31F"/>
<path fill-rule="evenodd" clip-rule="evenodd" d="M326.685 264.459C324.709 262.051 323.72 259.147 323.772 255.728L327.856 255.955C327.82 258.3 328.451 260.301 329.81 261.95L329.858 262.01C330.92 263.397 332.648 264.542 335.007 265.53L335.174 254.654L339.258 254.882L339.048 268.516C339.038 269.149 338.734 269.731 338.225 270.091C337.721 270.448 337.063 270.547 336.454 270.351C331.739 268.839 328.515 266.82 326.685 264.459Z" fill="#FDA31F"/>
<path fill-rule="evenodd" clip-rule="evenodd" d="M347.015 286.648L346.864 296.423L342.781 296.195L342.97 283.94C342.979 283.342 343.25 282.789 343.71 282.426C344.175 282.063 344.779 281.926 345.368 282.055C351.055 283.302 354.831 285.352 356.827 287.923L356.87 287.987C358.809 290.682 359.763 293.724 359.711 297.12C359.681 299.019 359.425 300.766 358.957 302.357L355.032 301.05C355.408 299.786 355.604 298.399 355.627 296.893C355.665 294.452 354.998 292.265 353.616 290.327C352.361 288.728 350.141 287.547 347.015 286.648Z" fill="#FDA31F"/>
<path fill-rule="evenodd" clip-rule="evenodd" d="M334.856 283.6C315.952 278.322 307.085 268.618 307.727 255.034C308.017 246.84 310.745 240.572 315.786 236.178C320.4 232.157 327.019 229.698 335.698 228.922L335.807 221.819C335.824 220.691 336.751 219.827 337.878 219.89L341.223 220.076L341.16 224.162L339.859 224.09L339.753 230.944C339.737 231.983 338.948 232.813 337.913 232.874C329.397 233.391 322.92 235.487 318.533 239.311C314.263 243.036 312.058 248.397 311.808 255.37C311.232 267.538 319.939 275.582 337.355 280.082C338.304 280.327 338.98 281.203 338.965 282.173L338.53 310.415C338.521 310.991 338.266 311.523 337.84 311.888C337.407 312.253 336.836 312.409 336.263 312.325C331.159 311.56 326.847 310.176 323.332 308.201C320.238 306.631 317.477 304.743 315.043 302.532L307.119 308.689C310.855 311.579 315.008 314.074 319.56 316.176C324.874 318.569 330.471 319.964 336.358 320.37C337.478 320.45 338.36 321.408 338.343 322.526L338.164 334.143L339.553 334.22L339.49 338.302L336.057 338.111C334.931 338.049 334.032 337.086 334.049 335.959L334.229 324.276C328.57 323.682 323.166 322.218 317.998 319.89C312.224 317.227 307.081 313.978 302.55 310.147C302.075 309.745 301.794 309.148 301.793 308.532C301.786 307.915 302.063 307.341 302.539 306.97L313.83 298.199C314.627 297.575 315.796 297.671 316.54 298.425C318.969 300.88 321.827 302.931 325.095 304.585L325.182 304.63C327.785 306.098 330.887 307.18 334.482 307.891L334.856 283.6Z" fill="#FDA31F"/>
<path fill-rule="evenodd" clip-rule="evenodd" d="M339.654 205.17C371.646 205.17 397.342 238.442 397.342 279.155C397.342 319.866 371.646 353.137 339.654 353.137C338.488 353.137 337.54 354.084 337.54 355.25C337.54 356.416 338.488 357.365 339.654 357.365C373.671 357.365 401.566 322.441 401.566 279.155C401.566 235.866 373.671 200.945 339.654 200.945C338.488 200.945 337.54 201.891 337.54 203.057C337.54 204.223 338.488 205.17 339.654 205.17Z" fill="#FDA425"/>
<path fill-rule="evenodd" clip-rule="evenodd" d="M339.732 353.137C307.738 353.137 282.045 319.866 282.045 279.155C282.045 238.442 307.738 205.17 339.732 205.17C340.898 205.17 341.844 204.223 341.844 203.057C341.844 201.891 340.898 200.945 339.732 200.945C305.715 200.945 277.819 235.866 277.819 279.155C277.819 322.441 305.715 357.365 339.732 357.365C340.898 357.365 341.844 356.416 341.844 355.25C341.844 354.084 340.898 353.137 339.732 353.137Z" fill="#FDA425"/>
<path fill-rule="evenodd" clip-rule="evenodd" d="M401.627 363.577H371.363C370.199 363.577 369.25 362.629 369.25 361.464C369.25 360.296 370.199 359.351 371.363 359.351H407.715C407.96 359.351 408.196 359.393 408.415 359.47C406.217 360.962 403.954 362.333 401.627 363.577ZM436.153 327.997C435.387 329.431 434.592 330.841 433.763 332.223H404.701C403.534 332.223 402.588 331.277 402.588 330.11C402.588 328.942 403.534 327.997 404.701 327.997H436.153ZM441.887 315.097C441.37 316.526 440.82 317.933 440.247 319.323H407.715C406.547 319.323 405.602 318.377 405.602 317.21C405.602 316.045 406.547 315.097 407.715 315.097H441.887ZM447.933 272.205C448.023 273.608 448.084 275.016 448.118 276.431H419.099C417.931 276.431 416.986 275.486 416.986 274.318C416.986 273.154 417.931 272.205 419.099 272.205H447.933ZM443.316 247.33C443.755 248.725 444.169 250.135 444.552 251.556H412.937C411.772 251.556 410.824 250.611 410.824 249.443C410.824 248.278 411.772 247.33 412.937 247.33H443.316ZM438.979 236.039C439.611 237.428 440.215 238.836 440.786 240.265H411.798C410.633 240.265 409.685 239.319 409.685 238.152C409.685 236.987 410.633 236.039 411.798 236.039H438.979ZM410.868 200.945C412.691 202.271 414.463 203.678 416.185 205.171H382.747C381.582 205.171 380.634 204.222 380.634 203.058C380.634 201.89 381.582 200.945 382.747 200.945H410.868Z" fill="#FFCD80"/>
<path fill-rule="evenodd" clip-rule="evenodd" d="M273.399 34.3633C275.268 27.9155 280.596 9.48474 284.44 1.24881L306.568 13.2534C306.568 13.2534 297.035 47.6977 294.979 57.5752L269.242 51.455C270.024 46.073 271.518 40.8503 273.399 34.3633Z" fill="#82B5B2"/>
<path d="M285.137 41.4265C289.374 41.4265 292.808 37.8322 292.808 33.3983C292.808 28.9645 289.374 25.3701 285.137 25.3701C280.901 25.3701 277.466 28.9645 277.466 33.3983C277.466 37.8322 280.901 41.4265 285.137 41.4265Z" fill="#A8CFCC" fill-opacity="0.63"/>
<path fill-rule="evenodd" clip-rule="evenodd" d="M279.608 43.2689C280.857 39.7864 287.828 21.7232 292.128 16.2946L312.156 27.5511C312.156 27.5511 301.361 56.234 298.9 64.4929L275.176 58.0385C276.201 53.5217 277.654 48.7154 279.608 43.2689Z" fill="#A8CFCC"/>
<path d="M293.594 49.6403C297.83 49.6403 301.265 46.046 301.265 41.6121C301.265 37.1783 297.83 33.584 293.594 33.584C289.357 33.584 285.923 37.1783 285.923 41.6121C285.923 46.046 289.357 49.6403 293.594 49.6403Z" fill="#82B5B2"/>
<path d="M343.008 44.7849C352.352 44.7849 359.928 37.2098 359.928 27.8656C359.928 18.5213 352.352 10.9463 343.008 10.9463C333.664 10.9463 326.089 18.5213 326.089 27.8656C326.089 37.2098 333.664 44.7849 343.008 44.7849Z" fill="#E86135"/>
<path fill-rule="evenodd" clip-rule="evenodd" d="M331.903 15.2367C334.895 12.5688 338.838 10.9463 343.157 10.9463C352.496 10.9463 360.077 18.5277 360.077 27.8655C360.077 31.0694 359.184 34.0666 357.636 36.621C345.072 30.9764 346.913 17.3579 346.913 17.3579C340.006 19.6143 334.848 17.3291 331.903 15.2367Z" fill="black"/>
<path fill-rule="evenodd" clip-rule="evenodd" d="M270.582 242.906C270.582 242.906 265.635 233.334 270.582 226.163L261.8 210.733C261.8 210.733 257.532 207.999 252.685 204.893C241.727 197.87 235.44 185.458 236.262 172.471C236.325 171.481 236.439 170.574 236.611 169.78C231.571 165.025 227.408 154.353 228.94 144.142C228.94 144.142 228.94 144.142 228.94 144.142C231.072 129.919 242.886 119.142 257.244 118.324C280.35 117.014 320.003 116.118 344.381 123.109L338.898 109.459C338.898 109.459 299.887 123.408 290.006 91.3741C267.611 100.417 242.672 107.028 218.014 110.605C207.705 112.105 197.533 107.107 192.422 98.0287C192.412 98.035 192.412 98.035 192.412 98.035C188.088 90.3564 189.47 80.7304 195.777 74.5763C202.118 68.4578 212.934 60.5431 231.405 51.4371C231.405 51.4371 249.907 41.6534 260.741 35.9243C265.582 33.3649 271.322 33.142 276.345 35.3186C287.019 39.9413 304.652 47.5806 304.652 47.5806L306.712 42.3808C318.957 44.4198 330.988 48.1292 342.783 52.7197C355.311 57.6105 365.017 67.8115 369.278 80.5642C379.769 111.969 399.578 172.266 402.177 187.371H409.604C413.777 187.371 417.393 190.265 418.305 194.338C419.015 197.521 419.702 200.593 419.702 200.593C419.702 200.593 424.432 205.883 425.816 210.733C426.379 212.708 423.228 215.011 419.702 211.311C418.659 210.215 408.527 202.22 403.976 201.721C400.495 201.338 397.415 200.939 394.544 200.587C385.73 199.507 377.907 194.42 373.34 186.8C370.287 181.708 367.479 177.022 367.479 177.022C367.479 177.022 357.96 192.289 331.83 189.534L335.89 242.306C335.89 242.306 330.676 241.073 328.933 232.552C328.933 232.552 299.485 228.63 282.714 221.527C282.714 221.527 276.097 228.096 270.582 242.906Z" fill="url(#paint2_linear_412_196)"/>
<path fill-rule="evenodd" clip-rule="evenodd" d="M402.044 186.614C402.094 186.879 402.139 187.129 402.181 187.37H405.697C407.398 188.564 409.983 190.439 412.786 192.673L413.686 191.659C414.075 191.223 414.743 191.184 415.179 191.572C415.615 191.958 415.654 192.626 415.266 193.062L414.429 194.005C416.019 195.317 417.635 196.722 419.164 198.165L419.706 200.592L402.493 187.729C402.115 187.481 401.949 187.029 402.044 186.614Z" fill="#D7441E"/>
<path fill-rule="evenodd" clip-rule="evenodd" d="M301.647 227.405L316.277 185.869C316.52 185.18 317.275 184.818 317.962 185.061C318.648 185.304 319.01 186.057 318.77 186.746L304.232 228.013C303.374 227.817 302.513 227.614 301.647 227.405ZM261.862 210.731C261.862 210.731 267.524 213.777 272.397 216.296C278.573 219.495 285.041 222.485 282.775 221.526C282.775 221.526 282.144 222.155 281.108 223.457C275.554 220.969 269.159 217.614 264.257 214.941L261.862 210.731ZM234.657 167.498C238.896 147.164 254.743 135.611 273.179 129.185C299.238 120.101 330.439 121.333 340.198 122.004C341.632 122.341 343.716 122.788 345.058 123.172C345.135 123.362 345.724 123.726 345.703 123.943C345.626 124.668 346.632 125.199 345.906 125.124C345.906 125.124 305.384 122.564 274.048 131.679C254.593 137.339 241.144 151.437 236.672 169.779C235.98 169.125 235.304 168.359 234.657 167.498Z" fill="#D7441E"/>
<path fill-rule="evenodd" clip-rule="evenodd" d="M332.096 192.146C327.228 191.398 321.053 189.372 314.54 186.723C295.454 178.968 273.36 165.99 273.36 165.99C272.732 165.621 272.523 164.811 272.89 164.182C273.26 163.554 274.071 163.343 274.699 163.713C274.699 163.713 296.606 176.586 315.533 184.277C322.363 187.053 332.453 189.594 331.861 189.533L332.096 192.146Z" fill="#8A2208"/>
<path fill-rule="evenodd" clip-rule="evenodd" d="M342.876 119.357L338.898 109.459C338.898 109.459 299.887 123.408 290.006 91.3741C267.611 100.417 242.672 107.028 218.014 110.605C207.705 112.105 197.533 107.107 192.422 98.0287C192.412 98.035 192.412 98.035 192.412 98.035C188.088 90.3564 189.47 80.7304 195.777 74.5763C202.118 68.4578 212.934 60.5431 231.405 51.4371C231.405 51.4371 249.907 41.6534 260.741 35.9243C265.582 33.3649 271.322 33.142 276.345 35.3186C287.019 39.9413 304.652 47.5806 304.652 47.5806L306.712 42.3808C318.957 44.4198 330.988 48.1292 342.783 52.7197C355.311 57.6105 365.017 67.8115 369.278 80.5642C375.58 99.4256 385.241 128.709 392.515 152.363L362.109 161.636C355.514 147.804 348.827 134.085 342.982 119.374L342.876 119.357Z" fill="#D7441E"/>
<path fill-rule="evenodd" clip-rule="evenodd" d="M333.239 111.008C332.272 106.178 332.045 101.11 332.135 95.9393C332.138 95.6549 332.344 95.4132 332.624 95.3609C332.904 95.3083 333.181 95.4594 333.289 95.7225C335.867 102.006 342.18 117.385 342.18 117.385H342.082L338.897 109.457C338.897 109.457 336.707 110.24 333.239 111.008ZM249.644 79.7601L217.185 98.0447C216.549 98.4023 216.324 99.2084 216.681 99.8434C217.04 100.478 217.846 100.704 218.482 100.346L250.94 82.0614C251.577 81.7038 251.801 80.8977 251.442 80.2628C251.086 79.6275 250.28 79.4025 249.644 79.7601ZM283.169 94.0279C284.397 85.1446 287.318 78.9155 289.352 75.4792C289.482 75.2896 289.732 75.2243 289.941 75.326C290.147 75.4274 290.25 75.6651 290.179 75.8851C288.079 83.4336 289.883 90.8925 289.999 91.3504L290.004 91.3726C287.752 92.2825 285.472 93.1676 283.169 94.0279Z" fill="#8A2208"/>
<path fill-rule="evenodd" clip-rule="evenodd" d="M232.895 50.6871L260.813 35.9241C265.655 33.3648 271.394 33.1418 276.418 35.3185L303.955 47.248C304.14 47.371 304.309 47.482 304.46 47.5805C309.05 50.5886 305.424 53.5627 304.14 53.1382C307.275 54.6281 307.17 57.104 306.43 58.1769C305.213 59.9468 300.855 59.301 300.855 59.301C302.067 59.7334 303.179 62.0992 302.239 63.854C300.728 66.6751 296.594 64.9612 296.594 64.9612C297.344 68.8954 293.277 68.9083 288.314 67.8573C284.471 67.0436 282.709 66.1825 279.439 65.3669C274.154 79.4601 258.373 77.8323 258.373 77.8323L247.974 83.7275L232.895 50.6871Z" fill="url(#paint3_linear_412_196)"/>
<path fill-rule="evenodd" clip-rule="evenodd" d="M296.693 65.0424L279.021 58.1823C278.477 57.9713 278.207 57.3585 278.419 56.8149C278.63 56.2714 279.243 56.0014 279.787 56.2125L301.656 64.7025C299.855 66.2777 296.678 64.9605 296.678 64.9605C296.683 64.9883 296.688 65.0155 296.693 65.0424ZM301.205 59.4279L281.113 51.6278C280.569 51.4168 280.299 50.8043 280.511 50.2607C280.722 49.7171 281.335 49.4472 281.879 49.658L304.908 58.5986C305.119 58.6804 305.288 58.8228 305.404 58.9984C303.661 59.7039 300.938 59.3003 300.938 59.3003C301.028 59.3326 301.118 59.3754 301.205 59.4279ZM304.438 53.1761L283.522 45.0561C282.977 44.8451 282.705 44.2323 282.917 43.6887C283.128 43.1452 283.741 42.8752 284.285 43.0863L306.545 51.7282C306.083 52.6389 305.087 53.2147 304.438 53.1761Z" fill="#D7441E"/>
<path fill-rule="evenodd" clip-rule="evenodd" d="M241.016 357.21C239.521 356.204 238.533 354.495 238.533 352.559V341.357C238.533 338.267 241.042 335.758 244.135 335.758H329.186C332.276 335.758 334.785 338.267 334.785 341.357V352.559C334.785 354.495 333.8 356.204 332.302 357.21C333.8 358.217 334.785 359.925 334.785 361.862V373.063C334.785 376.156 332.276 378.665 329.186 378.665H244.135C241.042 378.665 238.533 376.156 238.533 373.063V361.862C238.533 359.925 239.521 358.217 241.016 357.21Z" fill="#FFDBA3"/>
<path fill-rule="evenodd" clip-rule="evenodd" d="M309.361 354.941H334.249C333.816 355.863 333.137 356.648 332.297 357.21C332.469 357.327 332.633 357.451 332.791 357.583H324.727V378.665H322.086V357.583H300.008V378.665H297.367V357.583H293.997V378.665H291.355V357.583H257.252V378.665H254.61V357.583H240.519C240.675 357.451 240.839 357.327 241.011 357.21C240.173 356.648 239.494 355.863 239.061 354.941H269.977V335.758H272.618V354.941H275.989V335.758H278.63V354.941H306.719V335.758H309.361V354.941Z" fill="#FDA425"/>
<defs>
<linearGradient id="paint0_linear_412_196" x1="88.0293" y1="267.542" x2="87.4934" y2="418.512" gradientUnits="userSpaceOnUse">
<stop stop-color="#A8CFCC"/>
<stop offset="1" stop-color="#59A09B"/>
</linearGradient>
<linearGradient id="paint1_linear_412_196" x1="105.366" y1="149.234" x2="112.342" y2="283.262" gradientUnits="userSpaceOnUse">
<stop stop-color="#82B5B2"/>
<stop offset="0.45" stop-color="#A7C6C1"/>
<stop offset="1" stop-color="#FFF0E6"/>
</linearGradient>
<linearGradient id="paint2_linear_412_196" x1="352.683" y1="176.668" x2="203.693" y2="44.645" gradientUnits="userSpaceOnUse">
<stop stop-color="#E86135"/>
<stop offset="0.48" stop-color="#EE734F"/>
<stop offset="1" stop-color="#FFA396"/>
</linearGradient>
<linearGradient id="paint3_linear_412_196" x1="269.889" y1="63.1588" x2="280.577" y2="-7.02094" gradientUnits="userSpaceOnUse">
<stop stop-color="#E86135"/>
<stop offset="1" stop-color="#FFA396"/>
</linearGradient>
</defs>
</svg>
